<?xml version="1.0" encoding="UTF-8"?>
<svg width="17px" height="9px" viewBox="0 0 17 9" version="1.1" xmlns="http://www.w3.org/2000/svg" xmlns:xlink="http://www.w3.org/1999/xlink">
    <!-- Generator: sketchtool 61.2 (101010) - https://sketch.com -->
    <title>D22BB1D0-8A56-4C10-9273-C8190CA24A44SVG</title>
    <desc>Created with sketchtool.</desc>
    <g id="Page-1" stroke="none" stroke-width="1" fill="none" fill-rule="evenodd">
        <g id="Woofer-DropDown" transform="translate(-233.000000, -94.000000)" fill="#000000">
            <g id="ButtonDropDown" transform="translate(109.000000, 78.000000)">
                <path d="M140.44374,16.0149184 C140.314084,16.0496005 140.185589,16.1398403 140.088263,16.2370665 C137.604034,18.7189119 135.123873,21.2048327 132.644707,23.6917099 C132.599136,23.7374952 132.574732,23.8044058 132.54045,23.8614607 C132.516752,23.8534763 132.493137,23.8454504 132.46948,23.8373829 C132.42864,23.7851103 132.392781,23.7278475 132.346256,23.6811889 C129.878213,21.206704 127.409299,18.7330509 124.940302,16.2594809 C124.88946,16.2085391 124.839988,16.1554348 124.784166,16.1105228 C124.545023,15.9180665 124.207932,15.9870564 124.06047,16.2565284 C124.039553,16.2947036 124.020129,16.3336689 124,16.3723431 L124,16.6051786 C124.079604,16.7089752 124.148748,16.8231681 124.240263,16.9149882 C126.848256,19.5315696 129.458406,22.145947 132.06839,24.760574 C132.385809,25.0784927 132.618311,25.0796571 132.932409,24.7649404 C135.542186,22.1501887 138.15188,19.5353123 140.761324,16.9201863 C140.808223,16.8732367 140.856284,16.8264117 140.896252,16.7737649 C141.022879,16.6069251 141.034874,16.4007042 140.92518,16.2296643 C140.812498,16.0539253 140.641795,15.9619389 140.44374,16.0149184 Z" id="arrow-down" transform="translate(132.500000, 20.500000) scale(1, -1) translate(-132.500000, -20.500000) "></path>
            </g>
        </g>
    </g>
</svg>