<?xml version="1.0" encoding="UTF-8"?>
<svg width="29px" height="30px" viewBox="0 0 29 30" version="1.1" xmlns="http://www.w3.org/2000/svg" xmlns:xlink="http://www.w3.org/1999/xlink">
    <!-- Generator: sketchtool 53.2 (72643) - https://sketchapp.com -->
    <title>A72D8D21-9A61-4108-A486-C7D052A8EBF6SVG</title>
    <desc>Created with sketchtool.</desc>
    <g id="Page-1" stroke="none" stroke-width="1" fill="none" fill-rule="evenodd">
        <g id="gdpr-success" transform="translate(-280.000000, -15.000000)" fill="#FFFFFF">
            <g id="Header">
                <path d="M301.094855,39.7663035 C302.012701,39.7663035 302.742891,40.569198 302.742891,41.5787064 C302.742891,42.5882148 302.012701,43.3911093 301.094855,43.3911093 C300.176899,43.3911093 299.446819,42.5882148 299.446819,41.5787064 C299.446819,40.569198 300.176899,39.7663035 301.094855,39.7663035 L301.094855,39.7663035 Z M291.865856,39.7663035 C292.783812,39.7663035 293.513891,40.569198 293.513891,41.5787064 C293.513891,42.5882148 292.783812,43.3911093 291.865856,43.3911093 C290.9479,43.3911093 290.21782,42.5882148 290.21782,41.5787064 C290.21782,40.569198 290.9479,39.7663035 291.865856,39.7663035 L291.865856,39.7663035 Z M301.094855,38.3163812 C299.464289,38.3163812 298.128391,39.785515 298.128391,41.5787064 C298.128391,43.3718978 299.464289,44.8410316 301.094855,44.8410316 C302.725421,44.8410316 304.061319,43.3718978 304.061319,41.5787064 C304.061319,39.785515 302.725421,38.3163812 301.094855,38.3163812 L301.094855,38.3163812 Z M291.865856,38.3163812 C290.23529,38.3163812 288.899392,39.785515 288.899392,41.5787064 C288.899392,43.3718978 290.23529,44.8410316 291.865856,44.8410316 C293.496312,44.8410316 294.83232,43.3718978 294.83232,41.5787064 C294.83232,39.785515 293.496312,38.3163812 291.865856,38.3163812 L291.865856,38.3163812 Z M286.128605,20.9173133 L307.522194,20.9173133 L305.513568,30.3418084 L287.941444,30.3418084 L286.128605,20.9173133 Z M280.659214,15.8425852 C280.295108,15.8425852 280,16.1671261 280,16.5675463 C280,16.9678457 280.295108,17.2925075 280.659214,17.2925075 L284.078888,17.2925075 L287.54998,35.348511 C287.514603,35.761618 287.863327,36.1624007 288.240178,36.1414977 L304.720533,36.1414977 C305.068818,36.1469349 305.389086,35.7996785 305.389086,35.4165365 C305.389086,35.0335154 305.068818,34.6861382 304.720533,34.6915754 L288.775789,34.6915754 L288.219522,31.7917307 L306.038962,31.7917307 C306.33407,31.7881059 306.613027,31.5421024 306.67763,31.2252944 L308.98488,20.3509978 C309.070578,19.9302787 308.738224,19.4704116 308.346211,19.467391 L285.850526,19.467391 L285.263386,16.4090215 C285.198124,16.0885887 284.913014,15.8398061 284.6145,15.8425852 L280.659214,15.8425852 Z" id="cart"></path>
            </g>
        </g>
    </g>
</svg>