<?xml version="1.0" standalone="no"?>
<!DOCTYPE svg PUBLIC "-//W3C//DTD SVG 1.1//EN" "http://www.w3.org/Graphics/SVG/1.1/DTD/svg11.dtd" >
<svg>
<metadata>
Created by FontForge 20090622 at Mon Jun 24 10:48:31 2019
 By deploy user
Copyright (c) 1981, 1982, 1983, 1989 and 1993, Linotype Library GmbH or its affiliated Linotype-Hell companies. All rights reserved.

The digitally encoded machine readable software for producing the Typefaces licensed to you is now the property of Heidelberger Druckmaschinen AG and its licensors, and may not be reproduced, used, displayed, modified, disclosed or transferred without the express written approval of Heidelberger Druckmaschinen AG.

Copyright (c) 1988, 1990, 1993 Adobe Systems Incorporated. All Rights Reserved.
</metadata>
<defs>
<font id=".HelveticaNeueDeskInterface-MediumP4" horiz-adv-x="556" >
  <font-face 
    font-family=".Helvetica Neue DeskInterface"
    font-weight="500"
    font-stretch="normal"
    units-per-em="984"
    panose-1="2 11 6 4 2 2 2 2 2 4"
    ascent="787"
    descent="-197"
    x-height="517"
    cap-height="714"
    bbox="-582 -284 1975 1160"
    underline-thickness="50"
    underline-position="-150"
    unicode-range="U+0020-U+FE48"
  />
<missing-glyph horiz-adv-x="354" 
d="M32 0v656h258v-656h-258zM64 32h194v592h-194v-592z" />
    <glyph glyph-name="IJ" unicode="IJ" horiz-adv-x="821" 
d="M72 714h131v-714h-131v714zM745 231q0 -47 -8 -91.5t-33 -79t-71.5 -56t-123.5 -21.5q-57 0 -97.5 17.5t-67 48.5t-38.5 73t-12 92v41h132v-40q0 -59 19.5 -91t73.5 -32q29 0 47.5 8.5t29 25.5t14.5 41.5t4 56.5v490h131v-483z" />
    <glyph glyph-name="ij" unicode="ij" horiz-adv-x="474" 
d="M59 711h120v-114h-120v114zM59 517h120v-517h-120v517zM292 711h120v-114h-120v114zM292 517h120v-556q0 -79 -34.5 -121t-115.5 -42q-17 0 -28.5 1t-25.5 4v97q14 -3 24 -4t18 -1q28 0 35 17.5t7 53.5v551z" />
    <glyph glyph-name="fi" unicode="fi" 
d="M370 711h120v-114h-120v114zM7 517h84v38q0 50 12 80.5t32 47.5t46 22.5t54 5.5q29 0 49 -1.5t34 -6.5v-95q-13 4 -25.5 5t-30.5 1q-22 0 -36.5 -9.5t-14.5 -39.5v-48h95v-92h-95v-425h-120v425h-84v92zM370 517h120v-517h-120v517z" />
    <glyph glyph-name="fl" unicode="fl" 
d="M370 711h120v-711h-120v711zM7 517h84v38q0 50 12 80.5t32 47.5t46 22.5t54 5.5q29 0 49 -1.5t34 -6.5v-95q-13 4 -25.5 5t-30.5 1q-22 0 -36.5 -9.5t-14.5 -39.5v-48h95v-92h-95v-425h-120v425h-84v92z" />
    <glyph glyph-name=".notdef" horiz-adv-x="354" 
d="M32 0v656h258v-656h-258zM64 32h194v592h-194v-592z" />
    <glyph glyph-name=".null" horiz-adv-x="0" 
 />
    <glyph glyph-name="nonmarkingreturn" horiz-adv-x="278" 
 />
    <glyph glyph-name="space" unicode=" " horiz-adv-x="278" 
 />
    <glyph glyph-name="exclam" unicode="!" horiz-adv-x="278" 
d="M68 132h140v-132h-140v132zM73 714h131v-208l-32 -309h-66l-33 309v208z" />
    <glyph glyph-name="quotedbl" unicode="&#x22;" horiz-adv-x="444" 
d="M253 714h109v-287h-109v287zM79 714h109v-287h-109v287z" />
    <glyph glyph-name="numbersign" unicode="#" 
d="M239 410q-5 -30 -8 -60t-8 -60h101l17 120h-102zM495 208h-95l-29 -208h-88l29 208h-101l-28 -208h-88l28 208h-92v82h104l17 120h-92v82h103l14.5 104.5t13.5 103.5h89l-29 -208h101l14 104.5l14 103.5h89l-29 -208h84v-82h-96q-5 -30 -8 -60t-8 -60h83v-82z" />
    <glyph glyph-name="dollar" unicode="$" 
d="M254 634q-51 0 -77.5 -21.5t-26.5 -71.5q0 -22 8.5 -38t23 -27.5t33.5 -18.5t39 -12v189zM135 223q-1 -64 27.5 -101.5t91.5 -41.5v232q-41 11 -81 26.5t-72 40.5t-52 62t-20 92q0 48 18.5 85t49 62t71.5 38t86 13v77h50v-77q45 0 84.5 -12.5t69 -37.5t46.5 -62.5
t17 -88.5h-121q-2 50 -23.5 76.5t-72.5 27.5v-202q45 -12 87.5 -27.5t75 -40.5t52.5 -62.5t20 -91.5q0 -56 -18 -98t-50 -69.5t-75 -42.5t-92 -17v-77h-50v77q-54 1 -98.5 17.5t-76.5 47t-49 74.5t-16 101h121zM304 80q51 5 82.5 31t31.5 83q0 25 -9.5 43t-25.5 30.5
t-36.5 20.5t-42.5 14v-222z" />
    <glyph glyph-name="percent" unicode="%" horiz-adv-x="1000" 
d="M177 513q0 -54 16 -91t55 -37t56 37t17 91q0 24 -3.5 47.5t-11.5 41.5t-22.5 29t-35.5 11q-22 0 -35.5 -11t-21.5 -29t-11 -41.5t-3 -47.5zM249 312q-46 0 -78 16t-52.5 43.5t-29.5 64t-9 77.5t9.5 77.5t30 64t52.5 43.5t77 16t77 -16t52.5 -43.5t30 -64t9.5 -77.5
t-9 -77.5t-29.5 -64t-52.5 -43.5t-78 -16zM673 187q0 -54 16 -91.5t55 -37.5q20 0 34 10t23 27.5t13 41t4 50.5q0 24 -3.5 47t-12 41t-22.5 29t-36 11t-35.5 -11t-21.5 -29t-11 -41t-3 -47zM745 -14q-46 0 -78 16t-52.5 43.5t-29.5 64t-9 77.5t10 77.5t30.5 64t52.5 43.5
t76 16q45 0 77 -16t52.5 -43.5t30.5 -64t10 -77.5t-9.5 -77.5t-29.5 -64t-52.5 -43.5t-78.5 -16zM642 724h85l-387 -748h-87z" />
    <glyph glyph-name="ampersand" unicode="&#x26;" horiz-adv-x="648" 
d="M454 76q-40 -48 -87.5 -69t-110.5 -21q-50 0 -91.5 14.5t-71.5 42t-46.5 67t-16.5 90.5q0 37 13.5 68t36 56.5t51.5 45.5t59 36q-27 35 -48 71t-21 82q0 39 14 70.5t38 54t56 35t69 12.5q35 0 67.5 -10.5t57.5 -32.5t40 -54.5t15 -75.5q0 -32 -10.5 -59t-27.5 -49.5
t-39.5 -40.5t-47.5 -31l51 -61.5l51 -62.5q5 16 10 36t9 55h106q-5 -49 -18 -93.5t-36 -82.5l139 -169h-149zM254 325l-17 -10q-15 -8 -30 -17.5t-28 -23t-21 -32t-8 -44.5q0 -55 31 -85t79 -30q28 0 48.5 7.5t35.5 18.5t25 23.5l18 22.5l2 3zM301 639q-31 0 -51.5 -20
t-20.5 -54q0 -29 16.5 -53t33.5 -45l12 -15q15 10 29 21t25 24t17.5 28.5t6.5 36.5q0 33 -18.5 55t-49.5 22z" />
    <glyph glyph-name="quotesingle" unicode="'" horiz-adv-x="278" 
d="M84 714h109v-287h-109v287z" />
    <glyph glyph-name="parenleft" unicode="(" horiz-adv-x="278" 
d="M190 -189q-30 49 -56.5 100t-46 107t-31 118.5t-11.5 134.5q0 121 38 237t107 223h100q-60 -110 -92 -222.5t-32 -237.5t30.5 -238t94.5 -222h-101z" />
    <glyph glyph-name="parenright" unicode=")" horiz-adv-x="278" 
d="M87 731q30 -48 56 -99.5t45.5 -108.5t31 -119.5t11.5 -133.5q0 -121 -37.5 -237t-106.5 -222h-100q60 109 91.5 221t31.5 238t-30 239t-93 222h100z" />
    <glyph glyph-name="asterisk" unicode="*" horiz-adv-x="370" 
d="M15 567l24 72l107 -42v117h76v-117l52.5 21.5l52.5 20.5l27 -72l-112 -37l69 -92l-59 -42l-69 95l-66 -95l-62 42l69 92z" />
    <glyph glyph-name="plus" unicode="+" horiz-adv-x="600" 
d="M244 508h109v-199h199v-109h-199v-200h-109v200h-199v109h199v199z" />
    <glyph glyph-name="comma" unicode="," horiz-adv-x="278" 
d="M65 141h145v-137q-1 -64 -39.5 -106t-101.5 -55v68q32 8 47.5 34t16.5 55h-68v141z" />
    <glyph glyph-name="hyphen" unicode="-" horiz-adv-x="389" 
d="M46 330h295v-114h-295v114z" />
    <glyph glyph-name="period" unicode="." horiz-adv-x="278" 
d="M65 141h145v-141h-145v141z" />
    <glyph glyph-name="slash" unicode="/" horiz-adv-x="352" 
d="M260 731h117l-287 -748h-117z" />
    <glyph glyph-name="zero" unicode="0" 
d="M276 714q76 0 123.5 -34.5t74.5 -88t36.5 -117.5t9.5 -124t-9.5 -124t-36.5 -117.5t-74.5 -88t-123.5 -34.5q-75 0 -122.5 34.5t-74.5 88t-36.5 117.5t-9.5 124t9.5 124t36.5 117.5t74.5 88t122.5 34.5zM276 88q36 0 59.5 21t38 56.5t20 83t5.5 101.5q0 53 -5.5 100.5
t-20 83.5t-38 57t-59.5 21t-59.5 -21t-37.5 -57t-19.5 -83.5t-5.5 -100.5q0 -54 5.5 -101.5t19.5 -83t37.5 -56.5t59.5 -21z" />
    <glyph glyph-name="one" unicode="1" 
d="M50 585q36 0 69.5 6t61 20t46.5 35.5t25 53.5h99v-700h-131v489h-170v96z" />
    <glyph glyph-name="two" unicode="2" 
d="M517 0h-481q1 85 44.5 153t109.5 116q26 20 53 37q27 18 54 38t49 43t36 49t15 57q0 18 -4.5 39t-16.5 38.5t-34 29.5t-58 12q-32 0 -53.5 -13.5t-34.5 -36.5t-19 -54.5t-7 -68.5h-121q0 59 15.5 109.5t46.5 87t76 57.5t104 21q64 0 108 -21t70 -53.5t37.5 -70.5
t11.5 -72q0 -50 -18.5 -89t-48 -71t-66 -58l-72.5 -50q-45 -29 -82.5 -57.5t-49.5 -62.5h336v-109z" />
    <glyph glyph-name="three" unicode="3" 
d="M223 413q28 -1 55.5 3.5t49 17t35 33t13.5 51.5q0 44 -28.5 69t-74.5 25q-29 0 -50 -12t-35 -32t-20.5 -45t-5.5 -52h-121q2 52 18.5 96.5t46.5 77t72.5 51t95.5 18.5q41 0 81 -12t71.5 -35.5t51 -59t19.5 -82.5q0 -51 -21 -89.5t-67 -59.5q54 -16 85 -62.5t31 -111.5
q0 -50 -20 -90t-54.5 -68t-80 -43t-95.5 -15q-61 0 -107 18t-76.5 50.5t-46.5 78.5t-17 102h121q-2 -63 30 -105t96 -42q56 0 92.5 31.5t36.5 88.5q0 39 -16 62t-41.5 34.5t-58 14.5t-65.5 2v92z" />
    <glyph glyph-name="four" unicode="4" 
d="M119 261h199v289zM522 164h-89v-164h-115v164h-297v117l299 419h113v-439h89v-97z" />
    <glyph glyph-name="five" unicode="5" 
d="M120 700h365v-109h-274q-8 -44 -15.5 -80.5t-15.5 -81.5q23 22 56 33.5t65 11.5q53 0 94.5 -18t69.5 -49.5t42.5 -74.5t14.5 -94q0 -42 -14 -86.5t-43.5 -81.5t-75.5 -60.5t-111 -23.5q-51 0 -95 14t-77 41.5t-52.5 68.5t-21.5 95h121q5 -57 37 -87t86 -30q35 0 59 11.5
t38.5 31.5t21 47t6.5 58q0 28 -7.5 53.5t-23 45t-40 31t-57.5 11.5q-34 0 -64 -13.5t-44 -50.5h-121z" />
    <glyph glyph-name="six" unicode="6" 
d="M388 517q-4 43 -29 69t-68 26t-69 -21.5t-40 -54.5t-20 -72t-8 -73q24 36 62.5 54t82.5 18q53 0 94.5 -18t70 -50t43.5 -75.5t15 -93.5q0 -51 -17 -95t-47.5 -76t-74 -50.5t-96.5 -18.5q-77 0 -126.5 28.5t-78.5 78t-40 116t-11 143.5q0 63 13.5 127t44.5 116.5t82 85.5
t125 33q42 0 79.5 -14t66.5 -40t47 -62.5t20 -80.5h-121zM283 88q30 0 52 11.5t36.5 31t22 45t7.5 52.5t-7.5 52t-22 44t-36.5 30.5t-52 11.5t-52.5 -11t-37.5 -30t-22.5 -44t-7.5 -53q0 -27 7.5 -52.5t22.5 -45t37.5 -31t52.5 -11.5z" />
    <glyph glyph-name="seven" unicode="7" 
d="M32 700h482v-100q-54 -61 -99 -127t-78 -139.5t-53.5 -156.5t-27.5 -177h-132q6 82 28 162.5t56.5 155.5t79.5 144t98 129h-354v109z" />
    <glyph glyph-name="eight" unicode="8" 
d="M276 617q-44 0 -74 -26.5t-30 -75.5q0 -48 29 -73t75 -25q47 0 76 25t29 73q0 49 -30 75.5t-75 26.5zM276 -14q-53 0 -98.5 15.5t-78.5 44t-52 69.5t-19 93q0 64 32 108t87 63q-42 20 -66 57t-24 85q0 92 56.5 142.5t162.5 50.5q107 0 163.5 -50.5t56.5 -142.5
q0 -49 -22.5 -86t-65.5 -57q54 -18 85.5 -62.5t31.5 -107.5q0 -52 -19 -93t-52 -69.5t-78.5 -44t-99.5 -15.5zM276 83q56 0 92 32.5t36 92.5q0 55 -36 86t-92 31q-55 0 -91 -31t-36 -86q0 -60 36 -92.5t91 -32.5z" />
    <glyph glyph-name="nine" unicode="9" 
d="M165 183q4 -42 29 -68.5t68 -26.5q42 0 67.5 21.5t39.5 54.5t20 72t9 73q-25 -35 -63 -54t-81 -19q-50 0 -91 17t-70.5 48t-45.5 75t-16 98q0 51 16 95t47 76t76 50.5t103 18.5q74 0 122.5 -28.5t76.5 -78t39 -116.5t11 -143q0 -63 -13.5 -127t-45 -116.5t-82 -85.5
t-124.5 -33q-42 0 -79.5 14t-66.5 40t-47 62.5t-20 80.5h121zM269 612q-30 0 -52 -11t-36.5 -30t-21.5 -44t-7 -52t7 -53t21.5 -45.5t36.5 -31.5t52 -12t53 12t38 31.5t22.5 45t7.5 53.5q0 27 -7.5 52t-22.5 43.5t-38 30t-53 11.5z" />
    <glyph glyph-name="colon" unicode=":" horiz-adv-x="278" 
d="M65 141h145v-141h-145v141zM65 508h145v-141h-145v141z" />
    <glyph glyph-name="semicolon" unicode=";" horiz-adv-x="278" 
d="M65 508h145v-141h-145v141zM65 141h145v-137q-1 -64 -39.5 -106t-101.5 -55v68q32 8 47.5 34t16.5 55h-68v141z" />
    <glyph glyph-name="less" unicode="&#x3c;" horiz-adv-x="600" 
d="M553 -11l-510 227v77l510 226v-111l-362 -154l181.5 -77l180.5 -77v-111z" />
    <glyph glyph-name="equal" unicode="=" horiz-adv-x="600" 
d="M552 100h-507v109h507v-109zM552 300h-507v108h507v-108z" />
    <glyph glyph-name="greater" unicode="&#x3e;" horiz-adv-x="600" 
d="M406 254l-182 77.5l-181 76.5v111l510 -226v-77l-510 -227v111z" />
    <glyph glyph-name="question" unicode="?" 
d="M203 132h141v-132h-141v132zM46 482q0 56 17 102t48 78.5t75.5 50.5t100.5 18q46 0 86 -13.5t70 -39.5t47 -64t17 -87q0 -33 -7 -57.5t-18.5 -43t-26 -32.5l-28.5 -27l-8 -7q-19 -16 -34.5 -30.5t-27 -33t-18 -43.5t-6.5 -61h-115q0 45 4.5 76.5t14.5 55t24.5 41.5
t34.5 35l16 12h-1q13 11 24.5 22t20.5 23.5t14 28.5t5 37q0 29 -10 49t-24 33t-30 18.5t-29 5.5q-60 0 -87.5 -39.5t-27.5 -107.5h-121z" />
    <glyph glyph-name="at" unicode="@" horiz-adv-x="800" 
d="M543 279q-4 -12 -6.5 -24t-2.5 -21q0 -18 15 -18q22 0 44.5 16t40.5 44t29 66t11 83q0 55 -20.5 98.5t-56 73.5t-82.5 46t-101 16q-63 0 -114.5 -23t-88 -62.5t-57 -93t-20.5 -114.5q0 -72 22 -129.5t60.5 -98t91.5 -62t115 -21.5q65 0 122 25.5t98 72.5h78
q-50 -81 -129.5 -125.5t-172.5 -44.5q-77 0 -145 28.5t-118.5 79.5t-79.5 122t-29 157q0 76 29.5 141.5t79.5 114.5t116.5 77t141.5 28q67 0 127.5 -22t106.5 -61t73.5 -93t27.5 -118q0 -75 -25.5 -131.5t-62.5 -93.5t-78 -55.5t-71 -18.5q-23 0 -41 12t-23 40
q-20 -21 -48.5 -36t-59.5 -15q-32 0 -59 13t-47 35t-31 51t-11 61q0 48 16 94.5t45 83t69.5 59.5t90.5 23q34 0 62 -14.5t47 -49.5q4 13 8 24.5t8 24.5h77zM359 222q28 0 52.5 17t42 42.5t27.5 55.5t10 57q0 34 -22 58.5t-52 24.5t-55 -16.5t-42 -41t-26.5 -54.5t-9.5 -57
q0 -38 20 -62t55 -24z" />
    <glyph glyph-name="A" unicode="A" horiz-adv-x="667" 
d="M263 714h137l275 -714h-141l-66 187h-276l-67 -187h-136zM228 289h204l-51.5 143.5l-51.5 143.5z" />
    <glyph glyph-name="B" unicode="B" horiz-adv-x="704" 
d="M205 418h198q43 0 71 24.5t28 69.5q0 51 -25.5 72t-73.5 21h-198v-187zM73 714h347q97 0 155.5 -44t58.5 -135q0 -51 -24 -89.5t-68 -61.5q64 -17 94 -64t30 -119q0 -42 -15 -79t-47.5 -64t-82.5 -42.5t-119 -15.5h-329v714zM205 109h214q55 0 85 28t30 80q0 51 -30 77.5
t-85 26.5h-214v-212z" />
    <glyph glyph-name="C" unicode="C" horiz-adv-x="722" 
d="M551 482q-16 62 -56.5 101t-116.5 39q-56 0 -96 -22.5t-65.5 -59.5t-37.5 -85t-12 -98t12 -98t37.5 -85t65.5 -59.5t96 -22.5q40 0 71.5 14.5t53 39.5t34.5 58.5t17 72.5h128q-4 -65 -28 -119t-63.5 -93t-93.5 -60.5t-119 -21.5q-80 0 -143.5 29.5t-107.5 80.5t-67.5 119
t-23.5 145q0 76 23.5 144t67.5 119t107.5 81t143.5 30q61 0 113.5 -17t93 -49t65.5 -78t31 -105h-130z" />
    <glyph glyph-name="D" unicode="D" horiz-adv-x="722" 
d="M73 714h297q83 0 142.5 -28t98 -76.5t56.5 -113.5t18 -139t-18 -139t-56.5 -113.5t-98 -76.5t-142.5 -28h-297v714zM205 109h118q71 0 116 19t70.5 52.5t35 78.5t9.5 98q0 52 -9.5 97.5t-35 79t-70.5 52.5t-116 19h-118v-496z" />
    <glyph glyph-name="E" unicode="E" horiz-adv-x="630" 
d="M73 714h516v-115h-384v-177h356v-109h-356v-198h391v-115h-523v714z" />
    <glyph glyph-name="F" unicode="F" horiz-adv-x="593" 
d="M73 714h495v-115h-363v-177h319v-109h-319v-313h-132v714z" />
    <glyph glyph-name="G" unicode="G" horiz-adv-x="759" 
d="M697 0h-86l-19 77q-47 -49 -97.5 -71.5t-111.5 -22.5q-80 0 -143.5 29.5t-107.5 80.5t-67.5 119t-23.5 145q0 76 23.5 144t67.5 119t107.5 81t143.5 30q58 0 110.5 -16t93.5 -47t68 -78t34 -108h-128q-5 34 -21 60.5t-40 44t-54 26.5t-63 9q-56 0 -96 -22.5t-65.5 -59.5
t-37.5 -85t-12 -98t12 -98t37.5 -85t65.5 -59.5t96 -22.5q93 -2 142 48t52 138h-188v102h308v-380z" />
    <glyph glyph-name="H" unicode="H" horiz-adv-x="722" 
d="M70 714h132v-281h313v281h132v-714h-132v318h-313v-318h-132v714z" />
    <glyph glyph-name="I" unicode="I" horiz-adv-x="278" 
d="M72 714h131v-714h-131v714z" />
    <glyph glyph-name="J" unicode="J" horiz-adv-x="537" 
d="M461 231q0 -47 -8 -91.5t-33 -79t-71.5 -56t-123.5 -21.5q-57 0 -97.5 17.5t-67 48.5t-38.5 73t-12 92v41h132v-40q0 -59 19.5 -91t73.5 -32q29 0 47.5 8.5t29 25.5t14.5 41.5t4 56.5v490h131v-483z" />
    <glyph glyph-name="K" unicode="K" horiz-adv-x="685" 
d="M73 714h132v-315l308 315h165l-287 -287l151.5 -213.5l151.5 -213.5h-163l-229 336l-22 -22l-26.5 -26.5l-26.5 -26.5l-22 -22v-239h-132v714z" />
    <glyph glyph-name="L" unicode="L" horiz-adv-x="574" 
d="M73 714h132v-599h358v-115h-490v714z" />
    <glyph glyph-name="M" unicode="M" horiz-adv-x="889" 
d="M72 714h181l193 -545l94 272.5l93 272.5h179v-714h-125l-2 526l-189 -526h-108l-191 526v-526h-125v714z" />
    <glyph glyph-name="N" unicode="N" horiz-adv-x="722" 
d="M68 714h137l318 -511v511h126v-714h-137l-318 510v-510h-126v714z" />
    <glyph glyph-name="O" unicode="O" horiz-adv-x="760" 
d="M378 622q-56 0 -95.5 -22.5t-65.5 -59.5t-38 -85t-12 -98t12 -98t38 -85t65.5 -59.5t95.5 -22.5q55 0 95 22.5t66 59.5t38 85t12 98t-12 98t-38 85t-66 59.5t-95 22.5zM378 731q80 0 143.5 -30t107.5 -81t67.5 -119t23.5 -144q0 -77 -23.5 -145t-67.5 -119t-107.5 -80.5
t-143.5 -29.5t-143.5 29.5t-107.5 80.5t-67.5 119t-23.5 145q0 76 23.5 144t67.5 119t107.5 81t143.5 30z" />
    <glyph glyph-name="P" unicode="P" horiz-adv-x="667" 
d="M73 714h316q76 0 124 -22t74.5 -55.5t36 -72.5t9.5 -73q0 -33 -9.5 -71.5t-36 -71.5t-74.5 -55t-124 -22h-184v-271h-132v714zM205 380h177q20 0 41 5.5t38.5 18.5t28.5 34.5t11 53.5q0 34 -9.5 55.5t-25.5 34.5t-37 18t-45 5h-179v-225z" />
    <glyph glyph-name="Q" unicode="Q" horiz-adv-x="760" 
d="M713 7l-66 -73l-104 91q-39 -23 -81 -32.5t-84 -9.5q-80 0 -143.5 29.5t-107.5 80.5t-67.5 119t-23.5 145q0 76 23.5 144t67.5 119t107.5 81t143.5 30t143.5 -30t107.5 -81t67.5 -119t23.5 -144q0 -36 -5.5 -73.5t-17 -73.5t-30 -68t-44.5 -56zM380 167l65 74l85 -75
q32 41 45.5 90t13.5 101q0 50 -12 98t-38 85t-66 59.5t-95 22.5q-56 0 -95.5 -22.5t-65.5 -59.5t-38 -85t-12 -98t12 -98t38 -85t65.5 -59.5t95.5 -22.5q19 0 36.5 3t35.5 11z" />
    <glyph glyph-name="R" unicode="R" horiz-adv-x="704" 
d="M73 714h341q120 0 179 -51t59 -144q0 -44 -11.5 -74.5t-28 -51.5t-35 -33.5t-31.5 -18.5q16 -4 33 -14t30.5 -28t22 -45t8.5 -64q0 -62 10.5 -113.5t33.5 -76.5h-144q-16 26 -18.5 54t-2.5 54q0 47 -5.5 81.5t-20.5 57t-41.5 33.5t-68.5 11h-178v-291h-132v714zM205 393
h199q116 0 116 108q0 33 -9.5 53.5t-26 31.5t-38 15t-44.5 4h-197v-212z" />
    <glyph glyph-name="S" unicode="S" horiz-adv-x="648" 
d="M162 243q0 -41 13.5 -69.5t37.5 -46.5t56 -26.5t68 -8.5q40 0 67.5 9t44.5 23.5t25 33t8 37.5q0 18 -5.5 33t-19 27t-37.5 22.5t-60 20.5l-115 30q-62 16 -99.5 37.5t-57 46.5t-25.5 52.5t-6 54.5q0 55 23 95t60 66t84 38.5t95 12.5q56 0 106 -15t87.5 -44.5t59.5 -73.5
t22 -101h-131q-5 68 -45.5 96.5t-103.5 28.5q-21 0 -43 -4t-40 -14.5t-30 -27.5t-12 -42q0 -35 26.5 -57t73.5 -33l124 -33q60 -15 99 -34t61.5 -43t31.5 -55t9 -70q0 -61 -24.5 -104t-64.5 -70t-91.5 -39.5t-104.5 -12.5q-61 0 -115 15t-94.5 47t-64.5 81t-25 117h132z" />
    <glyph glyph-name="T" unicode="T" horiz-adv-x="593" 
d="M6 714h579v-115h-224v-599h-132v599h-223v115z" />
    <glyph glyph-name="U" unicode="U" horiz-adv-x="722" 
d="M65 714h132v-415q0 -35 3.5 -70.5t19 -64.5t48 -47.5t91.5 -18.5q58 0 91 18.5t48.5 47.5t19 64.5t3.5 70.5v415h132v-456q0 -69 -21 -120.5t-60 -86t-93 -51.5t-120 -17t-120 17t-93 51.5t-60 86t-21 120.5v456z" />
    <glyph glyph-name="V" unicode="V" horiz-adv-x="611" 
d="M-9 714h137l176 -550l178 550h135l-244 -714h-144z" />
    <glyph glyph-name="W" unicode="W" horiz-adv-x="944" 
d="M4 714h133l127 -526l139 526h133l137 -526l129 526h133l-197 -714h-131l-141 528l-70.5 -264l-70.5 -264h-134z" />
    <glyph glyph-name="X" unicode="X" horiz-adv-x="648" 
d="M9 714h156l158 -246l83 123l82 123h148l-237 -344l254 -370h-160l-174 267l-88 -133.5l-89 -133.5h-150l253 370z" />
    <glyph glyph-name="Y" unicode="Y" horiz-adv-x="648" 
d="M257 281l-268 433h152l185 -313l91 156l91 157h147l-267 -433v-281h-131v281z" />
    <glyph glyph-name="Z" unicode="Z" horiz-adv-x="630" 
d="M52 714h545v-100l-407 -499h417v-115h-586v107l407 492h-376v115z" />
    <glyph glyph-name="bracketleft" unicode="[" horiz-adv-x="296" 
d="M68 731h229v-97h-114v-726h114v-97h-229v920z" />
    <glyph glyph-name="backslash" unicode="\" horiz-adv-x="352" 
d="M377 -17h-117l-287 748h117z" />
    <glyph glyph-name="bracketright" unicode="]" horiz-adv-x="296" 
d="M226 -189h-228v97h113v726h-113v97h228v-920z" />
    <glyph glyph-name="asciicircum" unicode="^" horiz-adv-x="600" 
d="M78 331l182 369h77l182 -369h-111l-110 239l-109 -239h-111z" />
    <glyph glyph-name="underscore" unicode="_" horiz-adv-x="500" 
d="M-3 -124v58h503v-58h-503z" />
    <glyph glyph-name="grave" unicode="`" horiz-adv-x="241" 
d="M106 732l95 -150h-91l-148 150h144z" />
    <glyph glyph-name="a" unicode="a" 
d="M492 117q0 -18 4.5 -26t17.5 -8q9 0 17.5 0.5t14.5 1.5v-85q-14 -5 -37 -9.5t-38 -4.5q-34 0 -57 13t-32 45h-1q-34 -30 -81 -44t-92 -14q-35 0 -67.5 9.5t-57 28.5t-39 47.5t-14.5 67.5q0 49 17.5 79t46 47.5t64 25t71.5 12.5l54 6q20 3 37.5 6t30 9t20 16.5t7.5 28.5
q0 21 -10 34t-25 19.5t-32.5 9t-33.5 2.5q-46 0 -75 -19t-33 -61h-121q3 51 24.5 85t54 54.5t73.5 29t84 8.5q38 0 75 -8.5t66.5 -26.5t48 -47t18.5 -70v-262zM371 252q-19 -10 -43 -14.5t-47 -7.5l-42 -5q-18 -2 -34 -7t-28 -13.5t-19.5 -21.5t-7.5 -31q0 -21 10.5 -34.5
t25.5 -21t32 -10.5t31 -3q18 0 39.5 5t39.5 15.5t30.5 28t12.5 43.5v77z" />
    <glyph glyph-name="b" unicode="b" horiz-adv-x="611" 
d="M61 711h120l2 -252q25 34 65 53t82 19q61 0 107 -21.5t76 -59t45 -87.5t15 -107q0 -53 -13.5 -101.5t-41 -86t-70 -60t-99.5 -22.5q-50 0 -97.5 15t-76.5 58v-59h-114v711zM452 258q0 34 -8.5 65.5t-26 56t-43 39.5t-58.5 15q-69 0 -104 -47.5t-35 -128.5q0 -38 9.5 -70
t27 -55t43.5 -36.5t59 -13.5q37 0 63 15t42 40t23.5 56t7.5 64z" />
    <glyph glyph-name="c" unicode="c" 
d="M401 339q-7 48 -36.5 71.5t-75.5 23.5q-21 0 -45 -7t-44 -27t-33.5 -55t-13.5 -92q0 -31 7 -61.5t23 -54.5t40.5 -39t60.5 -15q48 0 78.5 30t38.5 86h121q-17 -104 -77.5 -158.5t-160.5 -54.5q-61 0 -108 20.5t-78.5 56t-48 84.5t-16.5 106q0 58 16 109t47.5 88.5
t79.5 59t112 21.5q45 0 85.5 -11.5t71.5 -35.5t51 -60t25 -85h-120z" />
    <glyph glyph-name="d" unicode="d" horiz-adv-x="611" 
d="M545 0h-114l-2 57q-25 -39 -66.5 -55t-87.5 -16q-61 0 -106.5 21.5t-75.5 58.5t-45 87.5t-15 108.5q0 70 19 121t50.5 84t72 48.5t82.5 15.5q45 0 91.5 -18.5t76.5 -54.5v253h120v-711zM153 253q0 -32 8 -62.5t25 -54.5t42.5 -38.5t61.5 -14.5t62 15.5t43.5 40t25.5 56
t8 64.5q0 83 -37 129t-100 46q-39 0 -65.5 -16t-43 -41.5t-23.5 -58t-7 -65.5z" />
    <glyph glyph-name="e" unicode="e" 
d="M407 307q-2 25 -11.5 48.5t-25 40.5t-37.5 27.5t-50 10.5q-57 0 -91.5 -36.5t-38.5 -90.5h254zM153 226q1 -29 9 -54.5t24.5 -45.5t41.5 -31.5t58 -11.5q48 0 77 21t44 63h114q-9 -44 -31 -77.5t-53.5 -56.5t-70 -35t-80.5 -12q-62 0 -109 20t-79 56t-48.5 86t-16.5 110
q0 55 17.5 104.5t50 87t78.5 59.5t104 22q56 0 101.5 -21.5t77.5 -58t49.5 -84.5t17.5 -100v-21.5t-2 -19.5h-374z" />
    <glyph glyph-name="f" unicode="f" horiz-adv-x="315" 
d="M6 517h84v38q0 50 12 80.5t32.5 47.5t46.5 22.5t54 5.5t48 -1.5t34 -6.5v-95q-12 4 -25 5t-31 1q-21 0 -36 -9.5t-15 -39.5v-48h96v-92h-96v-425h-120v425h-84v92z" />
    <glyph glyph-name="g" unicode="g" horiz-adv-x="593" 
d="M536 31q0 -118 -65 -175.5t-189 -57.5q-39 0 -79 8.5t-72.5 28t-54.5 51.5t-26 79h120q5 -24 16.5 -38.5t27.5 -23t35 -11t40 -2.5q66 0 96.5 32.5t30.5 93.5l-2 64q-26 -38 -65 -59t-84 -21q-62 0 -105.5 21.5t-72 59t-41.5 86.5t-13 105q0 52 15.5 99t45.5 82.5
t73.5 56.5t99.5 21q45 0 84 -17.5t65 -54.5v58h120v-486zM283 97q36 0 61.5 15t41 39.5t23 55.5t7.5 63t-7.5 61.5t-23.5 52.5t-41.5 36.5t-60.5 13.5q-36 0 -61 -15.5t-40.5 -40t-22 -55.5t-6.5 -62q0 -30 7.5 -59.5t23.5 -53t40.5 -37.5t58.5 -14z" />
    <glyph glyph-name="h" unicode="h" horiz-adv-x="574" 
d="M57 711h120l2 -252q23 30 63 51t86 21q85 0 134.5 -44t49.5 -133v-354h-120v324q-2 58 -24.5 84t-70.5 26q-27 0 -49.5 -10t-38 -27.5t-24 -41.5t-8.5 -51v-304h-120v711z" />
    <glyph glyph-name="i" unicode="i" horiz-adv-x="241" 
d="M59 711h120v-114h-120v114zM59 517h120v-517h-120v517z" />
    <glyph glyph-name="j" unicode="j" horiz-adv-x="241" 
d="M59 711h120v-114h-120v114zM59 517h120v-556q0 -79 -34.5 -121t-115.5 -42q-17 0 -28.5 1t-25.5 4v97q14 -3 24 -4t18 -1q28 0 35 17.5t7 53.5v551z" />
    <glyph glyph-name="k" unicode="k" horiz-adv-x="537" 
d="M60 711h121v-394l197 200h149l-200 -192l216 -325h-146l-153 245l-63 -61v-184h-121v711z" />
    <glyph glyph-name="l" unicode="l" horiz-adv-x="241" 
d="M59 711h120v-711h-120v711z" />
    <glyph glyph-name="m" unicode="m" horiz-adv-x="870" 
d="M58 517h115l3 -63q26 35 59.5 56t92.5 21q47 0 85.5 -19.5t58.5 -61.5q29 38 66 59.5t93 21.5q82 0 128 -40.5t46 -135.5v-355h-120v301q0 30 -2 54.5t-11 42t-27 27t-49 9.5q-55 0 -79.5 -34.5t-24.5 -97.5v-302h-120v331q0 51 -18.5 77t-67.5 26q-21 0 -40.5 -8.5
t-34 -25t-23.5 -40.5t-9 -54v-306h-121v517z" />
    <glyph glyph-name="n" unicode="n" horiz-adv-x="574" 
d="M57 517h115l2 -68q26 38 66 60t88 22q85 0 134.5 -44t49.5 -133v-354h-120v324q-2 58 -24.5 84t-70.5 26q-27 0 -49.5 -10t-38 -27.5t-24 -41.5t-8.5 -51v-304h-120v517z" />
    <glyph glyph-name="o" unicode="o" horiz-adv-x="593" 
d="M295 -14q-62 0 -110.5 20.5t-82 56.5t-51 86t-17.5 110q0 59 17.5 109t51 86t82 56.5t110.5 20.5t110.5 -20.5t82 -56.5t51 -86t17.5 -109q0 -60 -17.5 -110t-51 -86t-82 -56.5t-110.5 -20.5zM295 83q36 0 63 15.5t44 40t25.5 56t8.5 64.5q0 32 -8.5 63.5t-25.5 56
t-44 40t-63 15.5q-37 0 -63.5 -15.5t-44 -40t-25.5 -56t-8 -63.5q0 -33 8 -64.5t25.5 -56t44 -40t63.5 -15.5z" />
    <glyph glyph-name="p" unicode="p" horiz-adv-x="611" 
d="M61 517h114l2 -58q25 39 65 55.5t88 16.5q61 0 107 -21.5t76 -59t45 -87.5t15 -107q0 -53 -13.5 -101.5t-41 -86t-70 -60t-99.5 -22.5q-46 0 -92.5 18.5t-75.5 54.5v-247h-120v705zM452 258q0 34 -8.5 65.5t-26 56t-43 39.5t-58.5 15q-69 0 -104 -47.5t-35 -128.5
q0 -38 9.5 -70t27 -55t43.5 -36.5t59 -13.5q37 0 63 15t42 40t23.5 56t7.5 64z" />
    <glyph glyph-name="q" unicode="q" horiz-adv-x="611" 
d="M545 -188h-120l-2 247q-30 -38 -74 -55.5t-93 -17.5q-57 0 -99 22.5t-69.5 60t-41 86t-13.5 101.5q0 57 15 107t45 87.5t75.5 59t106.5 21.5q48 0 88.5 -17t67.5 -56v59h114v-705zM153 258q0 -33 7.5 -64t23.5 -56t42 -40t64 -15q71 0 105 48.5t34 126.5q0 82 -35 129
t-104 47q-34 0 -59.5 -15t-43 -39.5t-26 -56t-8.5 -65.5z" />
    <glyph glyph-name="r" unicode="r" horiz-adv-x="352" 
d="M57 517h113l2 -81q8 19 23 36t34 30t41.5 21t46.5 8q14 0 22 -0.5t13 -1.5q2 0 5.5 -0.5t5.5 -0.5v-117q-29 6 -52 6q-28 0 -52.5 -11.5t-42.5 -33t-28.5 -53.5t-10.5 -73v-246h-120v517z" />
    <glyph glyph-name="s" unicode="s" horiz-adv-x="519" 
d="M150 171q3 -25 12.5 -41.5t24 -27t33.5 -15t41 -4.5q16 0 35 2t35.5 9t27.5 19t11 33q0 32 -31 46t-97 27l-35 7q-31 6 -61 16.5t-53.5 28t-38 44t-14.5 66.5q0 43 20.5 71.5t52.5 46t70.5 25t73.5 7.5q40 0 77 -9t66 -28.5t49 -51t25 -76.5h-124q-8 40 -36.5 54
t-64.5 14q-12 0 -27 -1.5t-28.5 -7t-23 -15t-9.5 -24.5q0 -16 11 -27.5t29.5 -19.5t42 -14t49.5 -11l30 -6q31 -6 61.5 -16.5t53.5 -27.5t37.5 -43t14.5 -65q0 -47 -21 -79t-54.5 -52.5t-74.5 -29.5t-81 -9q-49 0 -90.5 11.5t-72 34.5t-48 57.5t-18.5 81.5h120z" />
    <glyph glyph-name="t" unicode="t" horiz-adv-x="333" 
d="M5 517h85v153h120v-153h101v-92h-101v-267q0 -17 1.5 -29t6.5 -20.5t15 -12.5t27 -4q12 0 24.5 0.5t26.5 4.5v-96l-36.5 -4t-39.5 -2q-46 0 -74 8.5t-43.5 25.5t-21 42t-6.5 58v296h-85v92z" />
    <glyph glyph-name="u" unicode="u" horiz-adv-x="574" 
d="M512 0h-118l-2 59q-23 -34 -61.5 -53.5t-79.5 -19.5q-103 0 -148.5 50.5t-45.5 153.5v327h120v-316q0 -65 25 -91.5t69 -26.5q34 0 57 10.5t37.5 28.5t20.5 42.5t6 53.5v299h120v-517z" />
    <glyph glyph-name="v" unicode="v" horiz-adv-x="519" 
d="M5 517h131l128 -381l60.5 191l60.5 190h125l-185 -517h-132z" />
    <glyph glyph-name="w" unicode="w" horiz-adv-x="778" 
d="M10 517h128l98 -367l93 367h119l92 -367l99 367h123l-162 -517h-121l-94 363l-45 -181.5l-46 -181.5h-124z" />
    <glyph glyph-name="x" unicode="x" horiz-adv-x="537" 
d="M194 272l-179 245h145l104 -155l54.5 78l54.5 77h139l-176 -239l99 -139.5l99 -138.5h-144l-127 185l-123 -185h-141z" />
    <glyph glyph-name="y" unicode="y" horiz-adv-x="519" 
d="M-1 517h132l132 -370l126 370h126l-200 -542q-14 -37 -29 -69.5t-35.5 -56.5t-49 -37.5t-70.5 -13.5q-43 0 -82 6v102q13 -3 31 -4.5t26 -1.5q18 0 30 5t20.5 14t14 21.5t10.5 27.5l13 38z" />
    <glyph glyph-name="z" unicode="z" horiz-adv-x="500" 
d="M39 517h422v-85l-288 -335h303v-97h-456v85l276 335h-257v97z" />
    <glyph glyph-name="braceleft" unicode="{" horiz-adv-x="296" 
d="M-7 319q10 0 26 3t31 10.5t25.5 21t10.5 34.5v203q0 36 14.5 62.5t34.5 43.5t42.5 25.5t38.5 8.5h94v-97h-58q-17 0 -27.5 -6.5t-15.5 -16t-6.5 -21t-1.5 -21.5v-193q0 -25 -8 -43t-20.5 -30.5t-27.5 -20t-28 -11.5q13 -3 28 -10t27.5 -19.5t20.5 -32.5t8 -49v-187
q0 -10 1.5 -21.5t6.5 -21t15.5 -16t27.5 -6.5h58v-97h-94q-16 0 -38.5 8.5t-42.5 25.5t-34.5 43.5t-14.5 62.5v195q0 23 -10.5 38t-25.5 23.5t-31 12t-26 3.5v96z" />
    <glyph glyph-name="bar" unicode="|" horiz-adv-x="222" 
d="M56 785h109v-997h-109v997z" />
    <glyph glyph-name="braceright" unicode="}" horiz-adv-x="296" 
d="M301 223q-11 0 -26.5 -3t-30.5 -11t-25.5 -21t-10.5 -34v-203q0 -36 -14.5 -62.5t-34.5 -43.5t-42.5 -25.5t-38.5 -8.5h-94v97h58q18 0 28 6.5t15.5 16t7 21t1.5 21.5v193q0 25 8 43t21 30.5t27.5 20t28.5 11.5q-14 3 -28.5 9t-27.5 18.5t-21 32.5t-8 51v187
q0 10 -1.5 21.5t-7 21t-15.5 16t-28 6.5h-58v97h94q16 0 38.5 -8.5t42.5 -25.5t34.5 -43.5t14.5 -62.5v-195q0 -23 10.5 -38t25.5 -23.5t30.5 -12t26.5 -3.5v-96z" />
    <glyph glyph-name="asciitilde" unicode="~" horiz-adv-x="600" 
d="M532 255q-12 -17 -24.5 -32.5t-28 -28.5t-34 -20.5t-42.5 -7.5q-27 0 -52 9.5t-51 24.5q-23 14 -49.5 23.5t-61.5 9.5q-15 0 -28 -6.5t-23 -17t-18.5 -23.5t-14.5 -26l-40 93q8 17 19.5 33t27.5 28.5t36 20t46 7.5q27 0 54.5 -9.5t56.5 -21.5l21 -9l43 -18.5t35 -8.5
q27 0 46.5 20.5t36.5 43.5l6 7z" />
    <glyph glyph-name="uni007F.controlDEL" horiz-adv-x="0" 
 />
    <glyph glyph-name="uni00A0" unicode="&#xa0;" horiz-adv-x="278" 
 />
    <glyph glyph-name="exclamdown" unicode="&#xa1;" horiz-adv-x="278" 
d="M208 402h-140v131h140v-131zM204 -181h-131v206l33 311h66l32 -311v-206z" />
    <glyph glyph-name="cent" unicode="&#xa2;" 
d="M263 -14q-54 1 -96.5 22.5t-72 58.5t-45 85t-15.5 102q0 63 17 114t47 87.5t72 57t93 20.5v89h50v-89q41 0 78 -13.5t65.5 -38.5t46.5 -60.5t21 -80.5h-121q-5 42 -29.5 68t-60.5 28v-352q82 20 94 116h122q-18 -98 -70 -155.5t-146 -58.5v-89h-50v89zM263 435
q-31 -4 -51.5 -21.5t-33 -43t-18 -56t-5.5 -60.5q0 -29 6 -57t18.5 -51t33 -39.5t50.5 -22.5v351z" />
    <glyph glyph-name="sterling" unicode="&#xa3;" 
d="M28 388h58q-20 27 -31 65t-11 70q0 47 20.5 85.5t53.5 65.5t75.5 42t86.5 15q115 0 183 -62.5t69 -189.5h-121q-2 32 -9.5 59.5t-22.5 47.5t-39 31.5t-59 11.5q-44 0 -74.5 -29t-30.5 -83q0 -32 14 -66t30 -63h147v-73h-119q8 -14 10.5 -28.5t2.5 -33.5q0 -49 -23.5 -85
t-55.5 -65q15 7 32 12t36 5q25 0 42.5 -4.5t33.5 -10.5q24 -9 40.5 -14.5t36.5 -5.5q26 0 49.5 10.5t46.5 29.5l55 -83q-40 -34 -76.5 -46.5t-86.5 -12.5q-16 0 -31 2t-31 6l-46 11t-36.5 8.5t-30 5.5t-26.5 2q-26 0 -53.5 -9.5t-47.5 -26.5l-57 87q18 12 37.5 30.5t35 39.5
t25.5 44t10 45q0 47 -20 87h-92v73z" />
    <glyph glyph-name="currency" unicode="&#xa4;" 
d="M277 207q30 0 54.5 11.5t42.5 31t28 46t10 55.5q0 28 -10 54t-28 45.5t-42.5 31t-53.5 11.5q-30 0 -55.5 -11.5t-44 -31t-29 -45.5t-10.5 -56t10.5 -56t29 -45t44 -30t54.5 -11zM15 148l57 61q-23 27 -35.5 63t-12.5 77q0 42 11 79.5t37 62.5l-57 61l63 62l56 -56
q26 20 64.5 32t79.5 12q38 0 75 -12.5t61 -29.5l57 56l67 -66l-56 -58q22 -24 33.5 -62t11.5 -79t-11.5 -78.5t-34.5 -65.5q14 -14 27.5 -29.5t27.5 -29.5l-61 -60l-56 57q-26 -22 -63 -34.5t-79 -12.5q-44 0 -80.5 11.5t-63.5 34.5l-56 -57z" />
    <glyph glyph-name="yen" unicode="&#xa5;" 
d="M216 163h-135v72h135v60h-135v72h94l-185 347h135l151 -311l155 311h132l-186 -347h95v-72h-135v-60h135v-72h-135v-163h-121v163z" />
    <glyph glyph-name="brokenbar" unicode="&#xa6;" horiz-adv-x="222" 
d="M56 662h109v-256h-109v256zM56 167h109v-255h-109v255z" />
    <glyph glyph-name="section" unicode="&#xa7;" 
d="M370 536q-2 42 -25 70t-64 28q-29 0 -53 -19t-24 -51q0 -20 11.5 -36t31 -30.5t44.5 -28l51 -26.5l68 -35.5t62 -42.5t45.5 -55t17.5 -71q0 -23 -8 -45.5t-21.5 -41.5t-32 -34t-39.5 -23q25 -23 37.5 -51t12.5 -74q0 -42 -16.5 -74.5t-44.5 -54.5t-64 -33t-75 -11
q-46 0 -85 14t-68 40.5t-46 66t-18 90.5h115q3 -53 27 -83.5t72 -30.5q37 0 59.5 17t22.5 59q0 23 -11.5 41.5t-31 34.5t-45 30l-52.5 29l-28 14q-33 16 -64.5 34.5t-56 42t-40 52t-15.5 64.5q0 56 27.5 92t75.5 58q-20 22 -29 44t-9 54q0 41 17.5 73t45.5 53.5t63.5 33
t71.5 11.5q43 0 80 -13.5t64.5 -38.5t43 -61.5t15.5 -81.5h-115zM190 401q-24 -8 -40 -28t-16 -48q0 -5 1.5 -13t7 -18t16 -21.5t27.5 -21.5l89 -49.5l88 -50.5q25 11 41 29.5t16 47.5q0 21 -13.5 39t-53.5 41z" />
    <glyph glyph-name="dieresis" unicode="&#xa8;" horiz-adv-x="241" 
d="M-26 595v115h121v-115h-121zM265 710v-115h-121v115h121z" />
    <glyph glyph-name="copyright" unicode="&#xa9;" horiz-adv-x="800" 
d="M591 290q-6 -38 -22.5 -67.5t-40.5 -50t-54 -31.5t-63 -11q-48 0 -87.5 17t-67.5 47.5t-43.5 72t-15.5 90.5q0 45 14.5 85t42 69t66.5 46t89 17q70 0 120 -40t61 -118h-76q-8 38 -36 61.5t-69 23.5q-30 0 -53.5 -11.5t-39 -31t-24 -45.5t-8.5 -56q0 -32 9 -60t25.5 -49
t40 -33.5t52.5 -12.5q42 0 69.5 24.5t32.5 63.5h78zM678 357q0 67 -21.5 122.5t-59.5 95.5t-89 62t-109 22q-60 0 -111 -22t-89 -62t-59.5 -95.5t-21.5 -122.5q0 -62 19.5 -117t56 -96t88.5 -65t117 -24q58 0 109 22t89 62t59.5 95.5t21.5 122.5zM765 357
q0 -84 -29.5 -152.5t-80 -118t-117 -76.5t-139.5 -27q-81 0 -148.5 28.5t-116 78.5t-76 118.5t-27.5 148.5q0 84 29.5 152.5t80 118t117.5 76.5t141 27q73 0 139.5 -27t117 -76.5t80 -118t29.5 -152.5z" />
    <glyph glyph-name="ordfeminine" unicode="&#xaa;" horiz-adv-x="380" 
d="M332 469q0 -9 2.5 -13.5t10.5 -4.5q7 0 10 0.5t10 2.5v-76q-10 -4 -26 -6.5t-24 -2.5q-26 0 -41.5 9t-22.5 34q-9 -9 -23 -17t-29.5 -13.5t-31.5 -9t-29 -3.5q-25 0 -47.5 6t-40 18t-27.5 30t-10 42q0 29 12 47.5t31.5 29.5t44 16.5t48.5 9.5l12 2q32 5 54.5 11.5
t22.5 27.5q0 19 -18 26t-37 7q-28 0 -45.5 -8.5t-19.5 -33.5h-92q3 33 18 55t37.5 35t50 18.5t56.5 5.5q26 0 52 -5.5t46.5 -17t33 -30t12.5 -43.5v-149zM238 526q-8 -4 -20.5 -6t-26.5 -4q-15 -2 -30 -5t-27 -7.5t-19.5 -11.5t-7.5 -19q0 -11 5.5 -17t13 -9.5t16.5 -4.5
t16 -1q11 0 25 2t26 7t20.5 15t8.5 25v36z" />
    <glyph glyph-name="guillemotleft" unicode="&#xab;" horiz-adv-x="463" 
d="M243 216v114l161 129v-113l-92 -73q21 -18 45.5 -37l46.5 -36v-112zM47 216v114l161 129v-113l-92 -73l46 -37l46 -36v-112z" />
    <glyph glyph-name="logicalnot" unicode="&#xac;" horiz-adv-x="600" 
d="M443 300h-398v108h507v-301h-109v193z" />
    <glyph glyph-name="uni00AD" unicode="&#xad;" horiz-adv-x="389" 
d="M46 330h295v-114h-295v114z" />
    <glyph glyph-name="registered" unicode="&#xae;" horiz-adv-x="800" 
d="M678 357q0 67 -21.5 122.5t-59.5 95.5t-89 62t-109 22q-60 0 -111 -22t-89 -62t-59.5 -95.5t-21.5 -122.5q0 -62 19.5 -117t56 -96t88.5 -65t117 -24q58 0 109 22t89 62t59.5 95.5t21.5 122.5zM765 357q0 -84 -29.5 -152.5t-80 -118t-117 -76.5t-139.5 -27
q-81 0 -148.5 28.5t-116 78.5t-76 118.5t-27.5 148.5q0 84 29.5 152.5t80 118t117.5 76.5t141 27q73 0 139.5 -27t117 -76.5t80 -118t29.5 -152.5zM401 382q18 0 34.5 1.5t29 7.5t20 18t7.5 33q0 18 -8 28t-20.5 15t-27.5 6.5t-29 1.5h-77v-111h71zM330 141h-76v418h160
q76 0 114.5 -28.5t38.5 -93.5q0 -55 -30 -81.5t-75 -33.5l116 -181h-85l-106 175h-57v-175z" />
    <glyph glyph-name="macron" unicode="&#xaf;" horiz-adv-x="241" 
d="M-26 617v72h293v-72h-293z" />
    <glyph glyph-name="degree" unicode="&#xb0;" horiz-adv-x="400" 
d="M110 562q0 -38 25.5 -63.5t63.5 -25.5q37 0 63 25.5t26 63.5q0 37 -26 63t-63 26q-38 0 -63.5 -26t-25.5 -63zM47 562q0 31 12 59t32.5 48.5t48 32.5t59.5 12q31 0 59 -12t48.5 -32.5t32.5 -48.5t12 -59q0 -32 -12 -59.5t-32.5 -48.5t-48.5 -33t-59 -12q-32 0 -59.5 12
t-48 33t-32.5 48.5t-12 59.5z" />
    <glyph glyph-name="plusminus" unicode="&#xb1;" horiz-adv-x="600" 
d="M45 109h507v-109h-507v109zM244 508h109v-123h199v-109h-199v-124h-109v124h-199v109h199v123z" />
    <glyph glyph-name="twosuperior" unicode="&#xb2;" horiz-adv-x="360" 
d="M337 270h-319q1 63 28 105t73 71q8 6 17 12l17 11q19 11 36.5 22.5t31.5 25t22.5 29t9.5 34.5q0 29 -20 43t-48 14q-19 0 -31.5 -8t-20 -21t-11.5 -29.5t-5 -33.5h-94q0 79 44.5 124t121.5 45q32 0 60.5 -7.5t50.5 -23.5t34.5 -41.5t12.5 -60.5q0 -24 -9 -44.5t-23.5 -38
t-33 -32.5t-37.5 -27l-33 -22q-28 -16 -51 -33t-31 -37h208v-77z" />
    <glyph glyph-name="threesuperior" unicode="&#xb3;" horiz-adv-x="360" 
d="M141 535q19 -1 37 1.5t32 9t22.5 18t8.5 27.5q0 24 -21 35t-43 11q-32 0 -51 -21.5t-17 -53.5h-87q3 72 44.5 112t111.5 40q28 0 55 -6.5t48 -20.5t34 -36.5t13 -55.5q0 -30 -13 -53t-41 -37q32 -11 52 -38.5t20 -65.5q0 -34 -13 -60t-36 -44t-53.5 -27t-64.5 -9
q-84 0 -124 42.5t-42 118.5h87q-2 -35 19 -59.5t60 -24.5q34 0 57 17.5t23 48.5q0 22 -10 36t-26.5 21t-38 8.5t-43.5 0.5v65z" />
    <glyph glyph-name="acute" unicode="&#xb4;" horiz-adv-x="241" 
d="M132 732h146l-149 -150h-91z" />
    <glyph glyph-name="mu" unicode="&#xb5;" horiz-adv-x="574" 
d="M512 0h-118l-2 61q-12 -15 -28 -29t-33.5 -24t-35.5 -16t-33 -6q-22 0 -44.5 6.5t-40.5 23.5v-204h-120v705h120v-316q0 -65 25 -91.5t69 -26.5q34 0 57 10.5t37.5 28.5t20.5 42.5t6 53.5v299h120v-517z" />
    <glyph glyph-name="paragraph" unicode="&#xb6;" horiz-adv-x="600" 
d="M241 340q-49 0 -88.5 14t-67 39t-42.5 58.5t-15 72.5q0 51 17 87t48 59t74 33.5t96 10.5h260v-872h-87v800h-108v-800h-87v498z" />
    <glyph glyph-name="periodcentered" unicode="&#xb7;" horiz-adv-x="278" 
d="M60 303q0 15 6.5 29t17 24.5t25 17t29.5 6.5q16 0 30 -6.5t24.5 -17t17 -24.5t6.5 -29q0 -16 -6 -30.5t-16.5 -25.5t-25 -17.5t-30.5 -6.5q-32 0 -55 24t-23 56z" />
    <glyph glyph-name="cedilla" unicode="&#xb8;" horiz-adv-x="241" 
d="M25 -148q20 -9 35.5 -13.5t31.5 -4.5q19 0 37.5 6.5t18.5 29.5q0 17 -13 25.5t-29 8.5q-23 0 -39 -11l-26 23l69 92h56l-42 -56q4 1 10.5 1h12.5q15 0 31 -5t28.5 -14.5t20.5 -24.5t8 -35q0 -26 -11 -44t-28.5 -29.5t-40 -16.5t-44.5 -5q-29 0 -56.5 6t-50.5 19z" />
    <glyph glyph-name="onesuperior" unicode="&#xb9;" horiz-adv-x="360" 
d="M32 636q51 0 89.5 16t48.5 53h76v-435h-94v301h-120v65z" />
    <glyph glyph-name="ordmasculine" unicode="&#xba;" horiz-adv-x="380" 
d="M372 541q0 -78 -45 -125t-135 -47t-135 47t-45 125t45 125.5t135 47.5t135 -47.5t45 -125.5zM278 541q0 18 -5.5 36t-16 32.5t-27 23.5t-37.5 9q-22 0 -38 -9t-26.5 -23.5t-16 -32.5t-5.5 -36t5.5 -36t16 -32t26.5 -23t38 -9t38 9t26.5 23t15.5 32t6 36z" />
    <glyph glyph-name="guillemotright" unicode="&#xbb;" horiz-adv-x="463" 
d="M414 330v-114l-162 -129v113l92 73q-21 18 -45.5 37l-46.5 36v112zM218 330v-114l-161 -129v113l92 73l-46.5 37l-45.5 36v112z" />
    <glyph glyph-name="onequarter" unicode="&#xbc;" horiz-adv-x="834" 
d="M554 724h85l-417 -748h-86zM35 636q51 0 89 16t48 53h76v-435h-93v301h-120v65zM621 319l-105 -141h107zM717 0h-94v96h-193v85l185 250h102v-253h47v-82h-47v-96z" />
    <glyph glyph-name="onehalf" unicode="&#xbd;" horiz-adv-x="834" 
d="M786 0h-320q0 41 13 72t33.5 55t45.5 42t49 32q18 10 35 21.5t30 24t21 28t8 35.5q0 29 -19.5 45.5t-48.5 16.5q-20 0 -32.5 -8.5t-20 -22.5t-11 -31t-4.5 -35h-94q0 81 42.5 127.5t123.5 46.5q32 0 61 -8.5t50.5 -25.5t34 -42.5t12.5 -60.5q0 -25 -9 -45.5t-23 -38
t-32.5 -32t-37.5 -27.5q-5 -2 -10.5 -6t-9.5 -6q-32 -19 -59 -37.5t-37 -42.5h209v-77zM34 636q50 0 89 16t48 53h77v-435h-94v301h-120v65zM550 724h85l-417 -748h-86z" />
    <glyph glyph-name="threequarters" unicode="&#xbe;" horiz-adv-x="834" 
d="M143 534q18 -1 36 1.5t32.5 9.5t23 18.5t8.5 27.5q0 24 -21.5 35t-43.5 11q-31 0 -50.5 -21.5t-17.5 -53.5h-87q3 72 44.5 112t111.5 40q28 0 55.5 -6.5t48.5 -20.5t34 -36.5t13 -55.5q0 -30 -13.5 -53t-41.5 -37q33 -11 52.5 -38.5t19.5 -65.5q0 -34 -13 -60t-36 -44
t-53.5 -27t-64.5 -9q-83 0 -123.5 42.5t-42.5 118.5h87q-2 -35 19 -59.5t60 -24.5q34 0 57 17.5t23 48.5q0 22 -10 35.5t-26.5 20.5t-37.5 8.5t-43 0.5v65zM608 724h86l-418 -748h-86zM658 319l-105 -141h107zM754 0h-94v96h-193v85l183 250h104v-253h46v-82h-46v-96z" />
    <glyph glyph-name="questiondown" unicode="&#xbf;" 
d="M346 533v-131h-141v131h141zM507 46q0 -54 -17 -99t-48 -77t-76 -50t-100 -18q-46 0 -86 13.5t-70 39t-47 62.5t-17 84q0 34 8 59.5t20.5 45t28 34.5t31.5 28q18 15 34 30t27.5 33.5t18 43.5t6.5 61h115q0 -44 -5 -75.5t-14.5 -55t-24.5 -41.5t-35 -35l-13 -11h1
q-14 -11 -26 -22t-21 -24t-14 -29.5t-5 -37.5q0 -27 9.5 -46t24 -31.5t30.5 -18t29 -5.5q60 0 87.5 39.5t27.5 102.5h121z" />
    <glyph glyph-name="Agrave" unicode="&#xc0;" horiz-adv-x="667" 
d="M263 714h137l275 -714h-141l-66 187h-276l-67 -187h-136zM228 289h204l-51.5 143.5l-51.5 143.5zM306 926l95 -150h-91l-148 150h144z" />
    <glyph glyph-name="Aacute" unicode="&#xc1;" horiz-adv-x="667" 
d="M263 714h137l275 -714h-141l-66 187h-276l-67 -187h-136zM228 289h204l-51.5 143.5l-51.5 143.5zM361 926h146l-149 -150h-91z" />
    <glyph glyph-name="Acircumflex" unicode="&#xc2;" horiz-adv-x="667" 
d="M263 714h137l275 -714h-141l-66 187h-276l-67 -187h-136zM228 289h204l-51.5 143.5l-51.5 143.5zM263 776h-99l111 150h113l113 -150h-100l-70 87z" />
    <glyph glyph-name="Atilde" unicode="&#xc3;" horiz-adv-x="667" 
d="M263 714h137l275 -714h-141l-66 187h-276l-67 -187h-136zM228 289h204l-51.5 143.5l-51.5 143.5zM513 914q-4 -26 -12 -48.5t-22 -38.5q-13 -16 -32.5 -25.5t-47.5 -9.5q-17 0 -37.5 5.5t-38.5 13.5q-20 8 -35 13t-30 5q-31 0 -39 -41h-65q3 21 11.5 42t22 38.5t32 28.5
t42.5 11q20 0 36 -3.5t46 -16.5q21 -9 34 -13.5t26 -4.5q20 0 30.5 12t15.5 32h63z" />
    <glyph glyph-name="Adieresis" unicode="&#xc4;" horiz-adv-x="667" 
d="M263 714h137l275 -714h-141l-66 187h-276l-67 -187h-136zM228 289h204l-51.5 143.5l-51.5 143.5zM187 789v115h121v-115h-121zM478 904v-115h-121v115h121z" />
    <glyph glyph-name="Aring" unicode="&#xc5;" horiz-adv-x="667" 
d="M263 714h137l275 -714h-141l-66 187h-276l-67 -187h-136zM228 289h204l-51.5 143.5l-51.5 143.5zM276 830q0 -24 16 -40t39 -16q25 0 40.5 16t15.5 40q0 26 -15.5 41.5t-40.5 15.5q-23 0 -39 -15.5t-16 -41.5zM331 725q-44 0 -75 29t-31 76q0 24 8.5 43.5t23.5 33.5
t34 21.5t40 7.5q22 0 41.5 -7.5t34 -21.5t23 -33.5t8.5 -43.5q0 -23 -8.5 -42.5t-23 -33.5t-34 -21.5t-41.5 -7.5z" />
    <glyph glyph-name="AE" unicode="&#xc6;" horiz-adv-x="963" 
d="M344 714h576v-115h-344v-177h323v-109h-323v-198h350v-115h-475v181h-230l-42.5 -90.5l-42.5 -90.5h-147zM271 283h180v316h-29z" />
    <glyph glyph-name="Ccedilla" unicode="&#xc7;" horiz-adv-x="722" 
d="M682 277q-4 -64 -27 -117.5t-62 -92t-91 -60.5t-115 -23q-6 -9 -12 -16.5l-13 -16.5q5 1 10.5 1h13.5q15 0 30.5 -4.5t28.5 -14t21 -24.5t8 -35q0 -26 -11 -44t-29 -29t-40 -15.5t-44 -4.5q-23 0 -53.5 5.5t-53.5 18.5l20 46l15 -5q13 -5 26 -8.5t26 -3.5q20 0 38.5 6.5
t18.5 29.5q0 17 -13 25.5t-29 8.5q-24 0 -39 -11l-26 23l53 70q-71 8 -126 40t-93 82t-58 114t-20 135q0 76 23.5 144t67.5 119t107.5 81t143.5 30q61 0 113.5 -17t93 -49t65.5 -78t31 -105h-130q-16 62 -56.5 101t-116.5 39q-56 0 -96 -22.5t-65.5 -59.5t-37.5 -85t-12 -98
t12 -98t37.5 -85t65.5 -59.5t96 -22.5q40 0 71.5 14.5t53 39.5t34.5 58.5t17 72.5h128z" />
    <glyph glyph-name="Egrave" unicode="&#xc8;" horiz-adv-x="630" 
d="M73 714h516v-115h-384v-177h356v-109h-356v-198h391v-115h-523v714zM324 926l95 -150h-91l-148 150h144z" />
    <glyph glyph-name="Eacute" unicode="&#xc9;" horiz-adv-x="630" 
d="M73 714h516v-115h-384v-177h356v-109h-356v-198h391v-115h-523v714zM364 926h146l-149 -150h-91z" />
    <glyph glyph-name="Ecircumflex" unicode="&#xca;" horiz-adv-x="630" 
d="M73 714h516v-115h-384v-177h356v-109h-356v-198h391v-115h-523v714zM264 776h-99l111 150h113l113 -150h-100l-70 87z" />
    <glyph glyph-name="Edieresis" unicode="&#xcb;" horiz-adv-x="630" 
d="M73 714h516v-115h-384v-177h356v-109h-356v-198h391v-115h-523v714zM190 789v115h121v-115h-121zM481 904v-115h-121v115h121z" />
    <glyph glyph-name="Igrave" unicode="&#xcc;" horiz-adv-x="278" 
d="M72 714h131v-714h-131v714zM111 926l95 -150h-91l-148 150h144z" />
    <glyph glyph-name="Iacute" unicode="&#xcd;" horiz-adv-x="278" 
d="M72 714h131v-714h-131v714zM164 926h146l-149 -150h-91z" />
    <glyph glyph-name="Icircumflex" unicode="&#xce;" horiz-adv-x="278" 
d="M72 714h131v-714h-131v714zM69 776h-99l111 150h113l113 -150h-100l-70 87z" />
    <glyph glyph-name="Idieresis" unicode="&#xcf;" horiz-adv-x="278" 
d="M72 714h131v-714h-131v714zM-7 789v115h121v-115h-121zM284 904v-115h-121v115h121z" />
    <glyph glyph-name="Eth" unicode="&#xd0;" horiz-adv-x="722" 
d="M205 422h192v-109h-192v-204h117q72 0 117 19t70.5 52.5t35 78.5t9.5 98q0 52 -9.5 97.5t-35 79t-70.5 52.5t-117 19h-117v-183zM73 313h-66v109h66v292h297q82 0 142 -28t98 -76.5t56.5 -113.5t18.5 -139t-18.5 -139t-56.5 -113.5t-98 -76.5t-142 -28h-297v313z" />
    <glyph glyph-name="Ntilde" unicode="&#xd1;" horiz-adv-x="722" 
d="M68 714h137l318 -511v511h126v-714h-137l-318 510v-510h-126v714zM540 914q-4 -26 -12 -48.5t-22 -38.5q-13 -16 -32.5 -25.5t-47.5 -9.5q-17 0 -37.5 5.5t-38.5 13.5q-20 8 -35 13t-30 5q-31 0 -39 -41h-65q3 21 11.5 42t22 38.5t32 28.5t42.5 11q20 0 36 -3.5t46 -16.5
q21 -9 34 -13.5t26 -4.5q20 0 30.5 12t15.5 32h63z" />
    <glyph glyph-name="Ograve" unicode="&#xd2;" horiz-adv-x="760" 
d="M378 622q-56 0 -95.5 -22.5t-65.5 -59.5t-38 -85t-12 -98t12 -98t38 -85t65.5 -59.5t95.5 -22.5q55 0 95 22.5t66 59.5t38 85t12 98t-12 98t-38 85t-66 59.5t-95 22.5zM378 731q80 0 143.5 -30t107.5 -81t67.5 -119t23.5 -144q0 -77 -23.5 -145t-67.5 -119t-107.5 -80.5
t-143.5 -29.5t-143.5 29.5t-107.5 80.5t-67.5 119t-23.5 145q0 76 23.5 144t67.5 119t107.5 81t143.5 30zM324 926l95 -150h-91l-148 150h144z" />
    <glyph glyph-name="Oacute" unicode="&#xd3;" horiz-adv-x="760" 
d="M378 622q-56 0 -95.5 -22.5t-65.5 -59.5t-38 -85t-12 -98t12 -98t38 -85t65.5 -59.5t95.5 -22.5q55 0 95 22.5t66 59.5t38 85t12 98t-12 98t-38 85t-66 59.5t-95 22.5zM378 731q80 0 143.5 -30t107.5 -81t67.5 -119t23.5 -144q0 -77 -23.5 -145t-67.5 -119t-107.5 -80.5
t-143.5 -29.5t-143.5 29.5t-107.5 80.5t-67.5 119t-23.5 145q0 76 23.5 144t67.5 119t107.5 81t143.5 30zM420 926h146l-149 -150h-91z" />
    <glyph glyph-name="Ocircumflex" unicode="&#xd4;" horiz-adv-x="760" 
d="M378 622q-56 0 -95.5 -22.5t-65.5 -59.5t-38 -85t-12 -98t12 -98t38 -85t65.5 -59.5t95.5 -22.5q55 0 95 22.5t66 59.5t38 85t12 98t-12 98t-38 85t-66 59.5t-95 22.5zM378 731q80 0 143.5 -30t107.5 -81t67.5 -119t23.5 -144q0 -77 -23.5 -145t-67.5 -119t-107.5 -80.5
t-143.5 -29.5t-143.5 29.5t-107.5 80.5t-67.5 119t-23.5 145q0 76 23.5 144t67.5 119t107.5 81t143.5 30zM313 776h-99l111 150h113l113 -150h-100l-70 87z" />
    <glyph glyph-name="Otilde" unicode="&#xd5;" horiz-adv-x="760" 
d="M378 622q-56 0 -95.5 -22.5t-65.5 -59.5t-38 -85t-12 -98t12 -98t38 -85t65.5 -59.5t95.5 -22.5q55 0 95 22.5t66 59.5t38 85t12 98t-12 98t-38 85t-66 59.5t-95 22.5zM378 731q80 0 143.5 -30t107.5 -81t67.5 -119t23.5 -144q0 -77 -23.5 -145t-67.5 -119t-107.5 -80.5
t-143.5 -29.5t-143.5 29.5t-107.5 80.5t-67.5 119t-23.5 145q0 76 23.5 144t67.5 119t107.5 81t143.5 30zM563 914q-4 -26 -12 -48.5t-22 -38.5q-13 -16 -32.5 -25.5t-47.5 -9.5q-17 0 -37.5 5.5t-38.5 13.5q-20 8 -35 13t-30 5q-31 0 -39 -41h-65q3 21 11.5 42t22 38.5
t32 28.5t42.5 11q20 0 36 -3.5t46 -16.5q21 -9 34 -13.5t26 -4.5q20 0 30.5 12t15.5 32h63z" />
    <glyph glyph-name="Odieresis" unicode="&#xd6;" horiz-adv-x="760" 
d="M378 622q-56 0 -95.5 -22.5t-65.5 -59.5t-38 -85t-12 -98t12 -98t38 -85t65.5 -59.5t95.5 -22.5q55 0 95 22.5t66 59.5t38 85t12 98t-12 98t-38 85t-66 59.5t-95 22.5zM378 731q80 0 143.5 -30t107.5 -81t67.5 -119t23.5 -144q0 -77 -23.5 -145t-67.5 -119t-107.5 -80.5
t-143.5 -29.5t-143.5 29.5t-107.5 80.5t-67.5 119t-23.5 145q0 76 23.5 144t67.5 119t107.5 81t143.5 30zM235 789v115h121v-115h-121zM526 904v-115h-121v115h121z" />
    <glyph glyph-name="multiply" unicode="&#xd7;" horiz-adv-x="600" 
d="M50 426l92 61l155 -157l158 157l92 -61l-174 -172l174 -172l-92 -60l-158 157l-155 -157l-92 60l172 172z" />
    <glyph glyph-name="Oslash" unicode="&#xd8;" horiz-adv-x="760" 
d="M720 694l-79 -89q38 -51 58.5 -113.5t20.5 -134.5q0 -77 -23.5 -145t-67.5 -119t-107.5 -80.5t-143.5 -29.5q-69 0 -123 20.5t-97 58.5l-37.5 -42l-37.5 -42l-47 42l79 90q-38 50 -58.5 113t-20.5 134q0 76 23.5 144t67.5 119t107.5 81t143.5 30q69 0 123 -20t96 -58
q19 20 37.5 41.5t37.5 41.5zM237 150q26 -26 61 -42t80 -16q55 0 95 22.5t66 59.5t38 85t12 98q0 40 -7.5 79.5t-25.5 72.5zM519 564q-23 23 -60 40.5t-81 17.5q-56 0 -95.5 -22.5t-65.5 -59.5t-38 -85t-12 -98q0 -42 8 -80t25 -72z" />
    <glyph glyph-name="Ugrave" unicode="&#xd9;" horiz-adv-x="722" 
d="M65 714h132v-415q0 -35 3.5 -70.5t19 -64.5t48 -47.5t91.5 -18.5q58 0 91 18.5t48.5 47.5t19 64.5t3.5 70.5v415h132v-456q0 -69 -21 -120.5t-60 -86t-93 -51.5t-120 -17t-120 17t-93 51.5t-60 86t-21 120.5v456zM325 926l95 -150h-91l-148 150h144z" />
    <glyph glyph-name="Uacute" unicode="&#xda;" horiz-adv-x="722" 
d="M65 714h132v-415q0 -35 3.5 -70.5t19 -64.5t48 -47.5t91.5 -18.5q58 0 91 18.5t48.5 47.5t19 64.5t3.5 70.5v415h132v-456q0 -69 -21 -120.5t-60 -86t-93 -51.5t-120 -17t-120 17t-93 51.5t-60 86t-21 120.5v456zM395 926h146l-149 -150h-91z" />
    <glyph glyph-name="Ucircumflex" unicode="&#xdb;" horiz-adv-x="722" 
d="M65 714h132v-415q0 -35 3.5 -70.5t19 -64.5t48 -47.5t91.5 -18.5q58 0 91 18.5t48.5 47.5t19 64.5t3.5 70.5v415h132v-456q0 -69 -21 -120.5t-60 -86t-93 -51.5t-120 -17t-120 17t-93 51.5t-60 86t-21 120.5v456zM293 776h-99l111 150h113l113 -150h-100l-70 87z" />
    <glyph glyph-name="Udieresis" unicode="&#xdc;" horiz-adv-x="722" 
d="M65 714h132v-415q0 -35 3.5 -70.5t19 -64.5t48 -47.5t91.5 -18.5q58 0 91 18.5t48.5 47.5t19 64.5t3.5 70.5v415h132v-456q0 -69 -21 -120.5t-60 -86t-93 -51.5t-120 -17t-120 17t-93 51.5t-60 86t-21 120.5v456zM214 789v115h121v-115h-121zM505 904v-115h-121v115h121z
" />
    <glyph glyph-name="Yacute" unicode="&#xdd;" horiz-adv-x="648" 
d="M257 281l-268 433h152l185 -313l91 156l91 157h147l-267 -433v-281h-131v281zM370 926h146l-149 -150h-91z" />
    <glyph glyph-name="Thorn" unicode="&#xde;" horiz-adv-x="667" 
d="M205 273h177q20 0 41 5.5t38.5 18.5t28.5 35t11 54q0 34 -9.5 55.5t-25.5 34t-37 17.5t-45 5h-179v-225zM73 714h132v-107h184q76 0 124 -22t74.5 -55t36 -72t9.5 -73t-9.5 -72.5t-36 -71.5t-74.5 -55t-124 -22h-184v-164h-132v714z" />
    <glyph glyph-name="germandbls" unicode="&#xdf;" horiz-adv-x="574" 
d="M60 519q0 49 16.5 88t46 66t69.5 41t88 14q40 0 78.5 -12t68.5 -35t48.5 -57t18.5 -77q0 -49 -22 -89t-68 -60q28 -7 50 -24t38 -40t24.5 -50.5t8.5 -56.5q0 -52 -16 -96t-45.5 -76.5t-72 -50.5t-95.5 -18q-32 0 -59 3v98q11 -3 19.5 -3.5t22.5 -0.5q42 0 67 14t38 36
t17 48.5t4 50.5q0 36 -14.5 58t-37.5 36q-22 14 -53.5 19t-61.5 5v81q30 0 56.5 5.5t41.5 19.5q17 14 27.5 32.5t10.5 47.5q0 95 -96 95q-16 0 -33.5 -5t-31.5 -18.5t-23.5 -38t-9.5 -62.5v-507h-120v519z" />
    <glyph glyph-name="agrave" unicode="&#xe0;" 
d="M492 117q0 -18 4.5 -26t17.5 -8q9 0 17.5 0.5t14.5 1.5v-85q-14 -5 -37 -9.5t-38 -4.5q-34 0 -57 13t-32 45h-1q-34 -30 -81 -44t-92 -14q-35 0 -67.5 9.5t-57 28.5t-39 47.5t-14.5 67.5q0 49 17.5 79t46 47.5t64 25t71.5 12.5l54 6q20 3 37.5 6t30 9t20 16.5t7.5 28.5
q0 21 -10 34t-25 19.5t-32.5 9t-33.5 2.5q-46 0 -75 -19t-33 -61h-121q3 51 24.5 85t54 54.5t73.5 29t84 8.5q38 0 75 -8.5t66.5 -26.5t48 -47t18.5 -70v-262zM371 252q-19 -10 -43 -14.5t-47 -7.5l-42 -5q-18 -2 -34 -7t-28 -13.5t-19.5 -21.5t-7.5 -31q0 -21 10.5 -34.5
t25.5 -21t32 -10.5t31 -3q18 0 39.5 5t39.5 15.5t30.5 28t12.5 43.5v77zM264 732l95 -150h-91l-148 150h144z" />
    <glyph glyph-name="aacute" unicode="&#xe1;" 
d="M492 117q0 -18 4.5 -26t17.5 -8q9 0 17.5 0.5t14.5 1.5v-85q-14 -5 -37 -9.5t-38 -4.5q-34 0 -57 13t-32 45h-1q-34 -30 -81 -44t-92 -14q-35 0 -67.5 9.5t-57 28.5t-39 47.5t-14.5 67.5q0 49 17.5 79t46 47.5t64 25t71.5 12.5l54 6q20 3 37.5 6t30 9t20 16.5t7.5 28.5
q0 21 -10 34t-25 19.5t-32.5 9t-33.5 2.5q-46 0 -75 -19t-33 -61h-121q3 51 24.5 85t54 54.5t73.5 29t84 8.5q38 0 75 -8.5t66.5 -26.5t48 -47t18.5 -70v-262zM371 252q-19 -10 -43 -14.5t-47 -7.5l-42 -5q-18 -2 -34 -7t-28 -13.5t-19.5 -21.5t-7.5 -31q0 -21 10.5 -34.5
t25.5 -21t32 -10.5t31 -3q18 0 39.5 5t39.5 15.5t30.5 28t12.5 43.5v77zM311 732h146l-149 -150h-91z" />
    <glyph glyph-name="acircumflex" unicode="&#xe2;" 
d="M492 117q0 -18 4.5 -26t17.5 -8q9 0 17.5 0.5t14.5 1.5v-85q-14 -5 -37 -9.5t-38 -4.5q-34 0 -57 13t-32 45h-1q-34 -30 -81 -44t-92 -14q-35 0 -67.5 9.5t-57 28.5t-39 47.5t-14.5 67.5q0 49 17.5 79t46 47.5t64 25t71.5 12.5l54 6q20 3 37.5 6t30 9t20 16.5t7.5 28.5
q0 21 -10 34t-25 19.5t-32.5 9t-33.5 2.5q-46 0 -75 -19t-33 -61h-121q3 51 24.5 85t54 54.5t73.5 29t84 8.5q38 0 75 -8.5t66.5 -26.5t48 -47t18.5 -70v-262zM371 252q-19 -10 -43 -14.5t-47 -7.5l-42 -5q-18 -2 -34 -7t-28 -13.5t-19.5 -21.5t-7.5 -31q0 -21 10.5 -34.5
t25.5 -21t32 -10.5t31 -3q18 0 39.5 5t39.5 15.5t30.5 28t12.5 43.5v77zM215 582h-99l111 150h113l113 -150h-100l-70 87z" />
    <glyph glyph-name="atilde" unicode="&#xe3;" 
d="M492 117q0 -18 4.5 -26t17.5 -8q9 0 17.5 0.5t14.5 1.5v-85q-14 -5 -37 -9.5t-38 -4.5q-34 0 -57 13t-32 45h-1q-34 -30 -81 -44t-92 -14q-35 0 -67.5 9.5t-57 28.5t-39 47.5t-14.5 67.5q0 49 17.5 79t46 47.5t64 25t71.5 12.5l54 6q20 3 37.5 6t30 9t20 16.5t7.5 28.5
q0 21 -10 34t-25 19.5t-32.5 9t-33.5 2.5q-46 0 -75 -19t-33 -61h-121q3 51 24.5 85t54 54.5t73.5 29t84 8.5q38 0 75 -8.5t66.5 -26.5t48 -47t18.5 -70v-262zM371 252q-19 -10 -43 -14.5t-47 -7.5l-42 -5q-18 -2 -34 -7t-28 -13.5t-19.5 -21.5t-7.5 -31q0 -21 10.5 -34.5
t25.5 -21t32 -10.5t31 -3q18 0 39.5 5t39.5 15.5t30.5 28t12.5 43.5v77zM463 720q-4 -26 -12 -48.5t-22 -38.5q-13 -16 -32.5 -25.5t-47.5 -9.5q-17 0 -37.5 5.5t-38.5 13.5q-20 8 -35 13t-30 5q-31 0 -39 -41h-65q3 21 11.5 42t22 38.5t32 28.5t42.5 11q20 0 36 -3.5
t46 -16.5q21 -9 34 -13.5t26 -4.5q20 0 30.5 12t15.5 32h63z" />
    <glyph glyph-name="adieresis" unicode="&#xe4;" 
d="M492 117q0 -18 4.5 -26t17.5 -8q9 0 17.5 0.5t14.5 1.5v-85q-14 -5 -37 -9.5t-38 -4.5q-34 0 -57 13t-32 45h-1q-34 -30 -81 -44t-92 -14q-35 0 -67.5 9.5t-57 28.5t-39 47.5t-14.5 67.5q0 49 17.5 79t46 47.5t64 25t71.5 12.5l54 6q20 3 37.5 6t30 9t20 16.5t7.5 28.5
q0 21 -10 34t-25 19.5t-32.5 9t-33.5 2.5q-46 0 -75 -19t-33 -61h-121q3 51 24.5 85t54 54.5t73.5 29t84 8.5q38 0 75 -8.5t66.5 -26.5t48 -47t18.5 -70v-262zM371 252q-19 -10 -43 -14.5t-47 -7.5l-42 -5q-18 -2 -34 -7t-28 -13.5t-19.5 -21.5t-7.5 -31q0 -21 10.5 -34.5
t25.5 -21t32 -10.5t31 -3q18 0 39.5 5t39.5 15.5t30.5 28t12.5 43.5v77zM136 595v115h121v-115h-121zM427 710v-115h-121v115h121z" />
    <glyph glyph-name="aring" unicode="&#xe5;" 
d="M492 117q0 -18 4.5 -26t17.5 -8q9 0 17.5 0.5t14.5 1.5v-85q-14 -5 -37 -9.5t-38 -4.5q-34 0 -57 13t-32 45h-1q-34 -30 -81 -44t-92 -14q-35 0 -67.5 9.5t-57 28.5t-39 47.5t-14.5 67.5q0 49 17.5 79t46 47.5t64 25t71.5 12.5l54 6q20 3 37.5 6t30 9t20 16.5t7.5 28.5
q0 21 -10 34t-25 19.5t-32.5 9t-33.5 2.5q-46 0 -75 -19t-33 -61h-121q3 51 24.5 85t54 54.5t73.5 29t84 8.5q38 0 75 -8.5t66.5 -26.5t48 -47t18.5 -70v-262zM371 252q-19 -10 -43 -14.5t-47 -7.5l-42 -5q-18 -2 -34 -7t-28 -13.5t-19.5 -21.5t-7.5 -31q0 -21 10.5 -34.5
t25.5 -21t32 -10.5t31 -3q18 0 39.5 5t39.5 15.5t30.5 28t12.5 43.5v77zM226 670q0 -24 16 -40t39 -16q25 0 40.5 16t15.5 40q0 26 -15.5 41.5t-40.5 15.5q-23 0 -39 -15.5t-16 -41.5zM281 565q-44 0 -75 29t-31 76q0 24 8.5 43.5t23.5 33.5t34 21.5t40 7.5q22 0 41.5 -7.5
t34 -21.5t23 -33.5t8.5 -43.5q0 -23 -8.5 -42.5t-23 -33.5t-34 -21.5t-41.5 -7.5z" />
    <glyph glyph-name="ae" unicode="&#xe6;" horiz-adv-x="889" 
d="M853 168q-22 -86 -85 -134t-150 -48q-56 0 -106 21t-81 70q-35 -50 -90.5 -70.5t-121.5 -20.5q-39 0 -73.5 9.5t-60 28.5t-40 47.5t-14.5 67.5q0 49 17.5 79t46 47.5t64.5 24.5t72 11h-1l25 4l26 4q20 3 37 6t29.5 9t19.5 16.5t7 28.5q0 21 -9 34t-23 19.5t-31 9t-33 2.5
q-46 0 -75 -19t-33 -61h-120q3 51 24 85t53.5 54.5t72.5 29t82 8.5q24 0 48 -2.5t46.5 -9.5t42.5 -20t35 -35q30 38 72.5 52.5t89.5 14.5q62 0 107.5 -20t75 -56t44 -85.5t14.5 -107.5v-19t-1 -17h-369q0 -28 8 -53.5t23.5 -45.5t40 -32t57.5 -12q44 0 73.5 22t43.5 63h120z
M373 248q-15 -9 -38.5 -13t-50.5 -6l-21.5 -2l-21.5 -2q-18 -3 -34 -8.5t-28.5 -14.5t-20 -23t-7.5 -35q0 -18 9 -30t23 -18.5t32 -9.5t35 -3q22 0 44.5 6.5t39.5 18.5t28 30.5t11 42.5v67zM736 307q-1 58 -33.5 92.5t-91.5 34.5q-29 0 -51 -10t-37.5 -27.5t-24.5 -40.5
t-11 -49h249z" />
    <glyph glyph-name="ccedilla" unicode="&#xe7;" 
d="M188 -148q38 -17 66 -17q20 0 38 6t18 30q0 17 -12.5 25t-28.5 8q-11 0 -21 -2t-18 -8l-26 22l53 71q-45 3 -82 19q-69 31 -105.5 95t-36.5 152q0 58 16 109t47.5 88.5t79.5 59t112 21.5q45 0 85.5 -11.5t71.5 -35.5t51 -60t25 -85h-120q-7 48 -36.5 71.5t-75.5 23.5
q-21 0 -45 -7t-44 -27t-33.5 -55t-13.5 -92q0 -31 7 -61.5t23 -54.5t40.5 -39t60.5 -15q48 0 78.5 30t38.5 86h121q-8 -48 -29.5 -90.5t-48.5 -69.5q-25 -20 -58.5 -34t-72.5 -18l-26 -35q4 1 10 1h12q15 0 31 -4.5t28.5 -14.5t20.5 -24.5t8 -34.5q0 -26 -11 -44
t-28.5 -29.5t-39.5 -16.5t-44 -5q-29 0 -56.5 6t-50.5 19z" />
    <glyph glyph-name="egrave" unicode="&#xe8;" 
d="M407 307q-2 25 -11.5 48.5t-25 40.5t-37.5 27.5t-50 10.5q-57 0 -91.5 -36.5t-38.5 -90.5h254zM153 226q1 -29 9 -54.5t24.5 -45.5t41.5 -31.5t58 -11.5q48 0 77 21t44 63h114q-9 -44 -31 -77.5t-53.5 -56.5t-70 -35t-80.5 -12q-62 0 -109 20t-79 56t-48.5 86t-16.5 110
q0 55 17.5 104.5t50 87t78.5 59.5t104 22q56 0 101.5 -21.5t77.5 -58t49.5 -84.5t17.5 -100v-21.5t-2 -19.5h-374zM252 732l95 -150h-91l-148 150h144z" />
    <glyph glyph-name="eacute" unicode="&#xe9;" 
d="M407 307q-2 25 -11.5 48.5t-25 40.5t-37.5 27.5t-50 10.5q-57 0 -91.5 -36.5t-38.5 -90.5h254zM153 226q1 -29 9 -54.5t24.5 -45.5t41.5 -31.5t58 -11.5q48 0 77 21t44 63h114q-9 -44 -31 -77.5t-53.5 -56.5t-70 -35t-80.5 -12q-62 0 -109 20t-79 56t-48.5 86t-16.5 110
q0 55 17.5 104.5t50 87t78.5 59.5t104 22q56 0 101.5 -21.5t77.5 -58t49.5 -84.5t17.5 -100v-21.5t-2 -19.5h-374zM326 732h146l-149 -150h-91z" />
    <glyph glyph-name="ecircumflex" unicode="&#xea;" 
d="M407 307q-2 25 -11.5 48.5t-25 40.5t-37.5 27.5t-50 10.5q-57 0 -91.5 -36.5t-38.5 -90.5h254zM153 226q1 -29 9 -54.5t24.5 -45.5t41.5 -31.5t58 -11.5q48 0 77 21t44 63h114q-9 -44 -31 -77.5t-53.5 -56.5t-70 -35t-80.5 -12q-62 0 -109 20t-79 56t-48.5 86t-16.5 110
q0 55 17.5 104.5t50 87t78.5 59.5t104 22q56 0 101.5 -21.5t77.5 -58t49.5 -84.5t17.5 -100v-21.5t-2 -19.5h-374zM217 582h-99l111 150h113l113 -150h-100l-70 87z" />
    <glyph glyph-name="edieresis" unicode="&#xeb;" 
d="M407 307q-2 25 -11.5 48.5t-25 40.5t-37.5 27.5t-50 10.5q-57 0 -91.5 -36.5t-38.5 -90.5h254zM153 226q1 -29 9 -54.5t24.5 -45.5t41.5 -31.5t58 -11.5q48 0 77 21t44 63h114q-9 -44 -31 -77.5t-53.5 -56.5t-70 -35t-80.5 -12q-62 0 -109 20t-79 56t-48.5 86t-16.5 110
q0 55 17.5 104.5t50 87t78.5 59.5t104 22q56 0 101.5 -21.5t77.5 -58t49.5 -84.5t17.5 -100v-21.5t-2 -19.5h-374zM139 595v115h121v-115h-121zM430 710v-115h-121v115h121z" />
    <glyph glyph-name="igrave" unicode="&#xec;" horiz-adv-x="241" 
d="M59 0v517h120v-517h-120zM89 732l95 -150h-91l-148 150h144z" />
    <glyph glyph-name="iacute" unicode="&#xed;" horiz-adv-x="241" 
d="M59 0v517h120v-517h-120zM150 732h146l-149 -150h-91z" />
    <glyph glyph-name="icircumflex" unicode="&#xee;" horiz-adv-x="241" 
d="M59 0v517h120v-517h-120zM51 582h-99l111 150h113l113 -150h-100l-70 87z" />
    <glyph glyph-name="idieresis" unicode="&#xef;" horiz-adv-x="241" 
d="M59 0v517h120v-517h-120zM-25 595v115h121v-115h-121zM266 710v-115h-121v115h121z" />
    <glyph glyph-name="eth" unicode="&#xf0;" horiz-adv-x="593" 
d="M136 587l92 43l-14 6q-16 6 -31.5 13t-35.5 13l83 66q55 -17 102 -49l105 50l54 -54l-92 -45q72 -61 110.5 -143.5t38.5 -178.5q0 -66 -14.5 -124.5t-47 -102.5t-83.5 -69.5t-124 -25.5q-57 0 -101.5 20t-75 55t-46.5 84t-16 107q0 49 15.5 95t44.5 81t70 56.5t93 21.5
q38 0 70 -8.5t64 -28.5q-17 32 -43.5 61t-54.5 53l-107 -51zM297 410q-38 0 -64.5 -13.5t-42.5 -36t-23 -52.5t-7 -63t7.5 -62t22.5 -51.5t39 -35.5t57 -13t59.5 14t44.5 36.5t28 51.5t10 60t-7.5 60.5t-23.5 53t-41 37.5t-59 14z" />
    <glyph glyph-name="ntilde" unicode="&#xf1;" horiz-adv-x="574" 
d="M57 517h115l2 -68q26 38 66 60t88 22q85 0 134.5 -44t49.5 -133v-354h-120v324q-2 58 -24.5 84t-70.5 26q-27 0 -49.5 -10t-38 -27.5t-24 -41.5t-8.5 -51v-304h-120v517zM465 720q-4 -26 -12 -48.5t-22 -38.5q-13 -16 -32.5 -25.5t-47.5 -9.5q-17 0 -37.5 5.5t-38.5 13.5
q-20 8 -35 13t-30 5q-31 0 -39 -41h-65q3 21 11.5 42t22 38.5t32 28.5t42.5 11q20 0 36 -3.5t46 -16.5q21 -9 34 -13.5t26 -4.5q20 0 30.5 12t15.5 32h63z" />
    <glyph glyph-name="ograve" unicode="&#xf2;" horiz-adv-x="593" 
d="M295 -14q-62 0 -110.5 20.5t-82 56.5t-51 86t-17.5 110q0 59 17.5 109t51 86t82 56.5t110.5 20.5t110.5 -20.5t82 -56.5t51 -86t17.5 -109q0 -60 -17.5 -110t-51 -86t-82 -56.5t-110.5 -20.5zM295 83q36 0 63 15.5t44 40t25.5 56t8.5 64.5q0 32 -8.5 63.5t-25.5 56
t-44 40t-63 15.5q-37 0 -63.5 -15.5t-44 -40t-25.5 -56t-8 -63.5q0 -33 8 -64.5t25.5 -56t44 -40t63.5 -15.5zM259 732l95 -150h-91l-148 150h144z" />
    <glyph glyph-name="oacute" unicode="&#xf3;" horiz-adv-x="593" 
d="M295 -14q-62 0 -110.5 20.5t-82 56.5t-51 86t-17.5 110q0 59 17.5 109t51 86t82 56.5t110.5 20.5t110.5 -20.5t82 -56.5t51 -86t17.5 -109q0 -60 -17.5 -110t-51 -86t-82 -56.5t-110.5 -20.5zM295 83q36 0 63 15.5t44 40t25.5 56t8.5 64.5q0 32 -8.5 63.5t-25.5 56
t-44 40t-63 15.5q-37 0 -63.5 -15.5t-44 -40t-25.5 -56t-8 -63.5q0 -33 8 -64.5t25.5 -56t44 -40t63.5 -15.5zM327 732h146l-149 -150h-91z" />
    <glyph glyph-name="ocircumflex" unicode="&#xf4;" horiz-adv-x="593" 
d="M295 -14q-62 0 -110.5 20.5t-82 56.5t-51 86t-17.5 110q0 59 17.5 109t51 86t82 56.5t110.5 20.5t110.5 -20.5t82 -56.5t51 -86t17.5 -109q0 -60 -17.5 -110t-51 -86t-82 -56.5t-110.5 -20.5zM295 83q36 0 63 15.5t44 40t25.5 56t8.5 64.5q0 32 -8.5 63.5t-25.5 56
t-44 40t-63 15.5q-37 0 -63.5 -15.5t-44 -40t-25.5 -56t-8 -63.5q0 -33 8 -64.5t25.5 -56t44 -40t63.5 -15.5zM229 582h-99l111 150h113l113 -150h-100l-70 87z" />
    <glyph glyph-name="otilde" unicode="&#xf5;" horiz-adv-x="593" 
d="M295 -14q-62 0 -110.5 20.5t-82 56.5t-51 86t-17.5 110q0 59 17.5 109t51 86t82 56.5t110.5 20.5t110.5 -20.5t82 -56.5t51 -86t17.5 -109q0 -60 -17.5 -110t-51 -86t-82 -56.5t-110.5 -20.5zM295 83q36 0 63 15.5t44 40t25.5 56t8.5 64.5q0 32 -8.5 63.5t-25.5 56
t-44 40t-63 15.5q-37 0 -63.5 -15.5t-44 -40t-25.5 -56t-8 -63.5q0 -33 8 -64.5t25.5 -56t44 -40t63.5 -15.5zM478 720q-4 -26 -12 -48.5t-22 -38.5q-13 -16 -32.5 -25.5t-47.5 -9.5q-17 0 -37.5 5.5t-38.5 13.5q-20 8 -35 13t-30 5q-31 0 -39 -41h-65q3 21 11.5 42t22 38.5
t32 28.5t42.5 11q20 0 36 -3.5t46 -16.5q21 -9 34 -13.5t26 -4.5q20 0 30.5 12t15.5 32h63z" />
    <glyph glyph-name="odieresis" unicode="&#xf6;" horiz-adv-x="593" 
d="M295 -14q-62 0 -110.5 20.5t-82 56.5t-51 86t-17.5 110q0 59 17.5 109t51 86t82 56.5t110.5 20.5t110.5 -20.5t82 -56.5t51 -86t17.5 -109q0 -60 -17.5 -110t-51 -86t-82 -56.5t-110.5 -20.5zM295 83q36 0 63 15.5t44 40t25.5 56t8.5 64.5q0 32 -8.5 63.5t-25.5 56
t-44 40t-63 15.5q-37 0 -63.5 -15.5t-44 -40t-25.5 -56t-8 -63.5q0 -33 8 -64.5t25.5 -56t44 -40t63.5 -15.5zM153 595v115h121v-115h-121zM444 710v-115h-121v115h121z" />
    <glyph glyph-name="divide" unicode="&#xf7;" horiz-adv-x="600" 
d="M299 -25q-30 0 -53 22.5t-23 52.5q0 32 22.5 54t52.5 22q31 0 53 -22.5t22 -53.5q0 -14 -6 -27.5t-16.5 -24t-23.5 -17t-28 -6.5zM299 383q-30 0 -53 22t-23 53t22.5 53t52.5 22q31 0 53 -22.5t22 -52.5q0 -14 -6 -27.5t-16.5 -24t-23.5 -17t-28 -6.5zM45 200v109h507
v-109h-507z" />
    <glyph glyph-name="oslash" unicode="&#xf8;" horiz-adv-x="593" 
d="M386 397q-17 17 -39.5 27t-51.5 10q-37 0 -63.5 -15.5t-44 -40t-25.5 -56t-8 -63.5q0 -25 4.5 -49t15.5 -47zM28 4l65 71q-31 37 -45 82t-14 102q0 59 17.5 109t51 86t82 56.5t110.5 20.5q51 0 93 -14t74 -38l62 68l38 -34l-65 -70q59 -74 59 -184q0 -60 -17.5 -110
t-51 -86t-82 -56.5t-110.5 -20.5q-49 0 -92 14.5t-75 38.5l-63 -69zM203 120q17 -17 39.5 -27t52.5 -10q36 0 63 15.5t44 40t25.5 56t8.5 64.5q0 24 -4.5 48t-15.5 47z" />
    <glyph glyph-name="ugrave" unicode="&#xf9;" horiz-adv-x="574" 
d="M512 0h-118l-2 59q-23 -34 -61.5 -53.5t-79.5 -19.5q-103 0 -148.5 50.5t-45.5 153.5v327h120v-316q0 -65 25 -91.5t69 -26.5q34 0 57 10.5t37.5 28.5t20.5 42.5t6 53.5v299h120v-517zM248 732l95 -150h-91l-148 150h144z" />
    <glyph glyph-name="uacute" unicode="&#xfa;" horiz-adv-x="574" 
d="M512 0h-118l-2 59q-23 -34 -61.5 -53.5t-79.5 -19.5q-103 0 -148.5 50.5t-45.5 153.5v327h120v-316q0 -65 25 -91.5t69 -26.5q34 0 57 10.5t37.5 28.5t20.5 42.5t6 53.5v299h120v-517zM328 732h146l-149 -150h-91z" />
    <glyph glyph-name="ucircumflex" unicode="&#xfb;" horiz-adv-x="574" 
d="M512 0h-118l-2 59q-23 -34 -61.5 -53.5t-79.5 -19.5q-103 0 -148.5 50.5t-45.5 153.5v327h120v-316q0 -65 25 -91.5t69 -26.5q34 0 57 10.5t37.5 28.5t20.5 42.5t6 53.5v299h120v-517zM218 582h-99l111 150h113l113 -150h-100l-70 87z" />
    <glyph glyph-name="udieresis" unicode="&#xfc;" horiz-adv-x="574" 
d="M512 0h-118l-2 59q-23 -34 -61.5 -53.5t-79.5 -19.5q-103 0 -148.5 50.5t-45.5 153.5v327h120v-316q0 -65 25 -91.5t69 -26.5q34 0 57 10.5t37.5 28.5t20.5 42.5t6 53.5v299h120v-517zM140 595v115h121v-115h-121zM431 710v-115h-121v115h121z" />
    <glyph glyph-name="yacute" unicode="&#xfd;" horiz-adv-x="519" 
d="M-1 517h132l132 -370l126 370h126l-200 -542q-14 -37 -29 -69.5t-35.5 -56.5t-49 -37.5t-70.5 -13.5q-43 0 -82 6v102q13 -3 31 -4.5t26 -1.5q18 0 30 5t20.5 14t14 21.5t10.5 27.5l13 38zM308 732h146l-149 -150h-91z" />
    <glyph glyph-name="thorn" unicode="&#xfe;" horiz-adv-x="611" 
d="M452 258q0 34 -8.5 65.5t-26 56t-43 39.5t-58.5 15q-69 0 -104 -47.5t-35 -128.5q0 -38 9.5 -70t27 -55t43.5 -36.5t59 -13.5q37 0 63 15t42 40t23.5 56t7.5 64zM61 711h120l2 -252q25 34 65 53t82 19q61 0 107 -21.5t76 -59t45 -87.5t15 -107q0 -53 -13.5 -101.5
t-41 -86t-70 -60t-99.5 -22.5q-22 0 -45.5 4.5t-46 13.5t-42 22.5t-34.5 31.5v-246h-120v899z" />
    <glyph glyph-name="ydieresis" unicode="&#xff;" horiz-adv-x="519" 
d="M-1 517h132l132 -370l126 370h126l-200 -542q-14 -37 -29 -69.5t-35.5 -56.5t-49 -37.5t-70.5 -13.5q-43 0 -82 6v102q13 -3 31 -4.5t26 -1.5q18 0 30 5t20.5 14t14 21.5t10.5 27.5l13 38zM119 595v115h121v-115h-121zM410 710v-115h-121v115h121z" />
    <glyph glyph-name="Amacron" unicode="&#x100;" horiz-adv-x="667" 
d="M263 714h137l275 -714h-141l-66 187h-276l-67 -187h-136zM228 289h204l-51.5 143.5l-51.5 143.5zM186 811v72h293v-72h-293z" />
    <glyph glyph-name="amacron" unicode="&#x101;" 
d="M492 117q0 -18 4.5 -26t17.5 -8q9 0 17.5 0.5t14.5 1.5v-85q-14 -5 -37 -9.5t-38 -4.5q-34 0 -57 13t-32 45h-1q-34 -30 -81 -44t-92 -14q-35 0 -67.5 9.5t-57 28.5t-39 47.5t-14.5 67.5q0 49 17.5 79t46 47.5t64 25t71.5 12.5l54 6q20 3 37.5 6t30 9t20 16.5t7.5 28.5
q0 21 -10 34t-25 19.5t-32.5 9t-33.5 2.5q-46 0 -75 -19t-33 -61h-121q3 51 24.5 85t54 54.5t73.5 29t84 8.5q38 0 75 -8.5t66.5 -26.5t48 -47t18.5 -70v-262zM371 252q-19 -10 -43 -14.5t-47 -7.5l-42 -5q-18 -2 -34 -7t-28 -13.5t-19.5 -21.5t-7.5 -31q0 -21 10.5 -34.5
t25.5 -21t32 -10.5t31 -3q18 0 39.5 5t39.5 15.5t30.5 28t12.5 43.5v77zM134 617v72h293v-72h-293z" />
    <glyph glyph-name="Abreve" unicode="&#x102;" horiz-adv-x="667" 
d="M263 714h137l275 -714h-141l-66 187h-276l-67 -187h-136zM228 289h204l-51.5 143.5l-51.5 143.5zM233 925q8 -42 36.5 -58.5t66.5 -16.5q37 0 63 18.5t34 56.5h63q-8 -75 -53 -111.5t-115 -36.5t-111.5 38t-47.5 110h64z" />
    <glyph glyph-name="abreve" unicode="&#x103;" 
d="M492 117q0 -18 4.5 -26t17.5 -8q9 0 17.5 0.5t14.5 1.5v-85q-14 -5 -37 -9.5t-38 -4.5q-34 0 -57 13t-32 45h-1q-34 -30 -81 -44t-92 -14q-35 0 -67.5 9.5t-57 28.5t-39 47.5t-14.5 67.5q0 49 17.5 79t46 47.5t64 25t71.5 12.5l54 6q20 3 37.5 6t30 9t20 16.5t7.5 28.5
q0 21 -10 34t-25 19.5t-32.5 9t-33.5 2.5q-46 0 -75 -19t-33 -61h-121q3 51 24.5 85t54 54.5t73.5 29t84 8.5q38 0 75 -8.5t66.5 -26.5t48 -47t18.5 -70v-262zM371 252q-19 -10 -43 -14.5t-47 -7.5l-42 -5q-18 -2 -34 -7t-28 -13.5t-19.5 -21.5t-7.5 -31q0 -21 10.5 -34.5
t25.5 -21t32 -10.5t31 -3q18 0 39.5 5t39.5 15.5t30.5 28t12.5 43.5v77zM180 731q8 -42 36.5 -58.5t66.5 -16.5q37 0 63 18.5t34 56.5h63q-8 -75 -53 -111.5t-115 -36.5t-111.5 38t-47.5 110h64z" />
    <glyph glyph-name="Aogonek" unicode="&#x104;" horiz-adv-x="667" 
d="M591 0q-51 -40 -70.5 -68.5t-19.5 -55.5q0 -18 10.5 -28.5t24.5 -10.5t25.5 7t24.5 27l47 -10q-6 -24 -18.5 -40t-27.5 -25.5t-31.5 -13t-31.5 -3.5q-8 0 -25 2t-34.5 11.5t-31 28t-13.5 51.5q0 8 2.5 20.5t13 29.5t33 38t63.5 45l-64 182h-276l-67 -187h-136l274 714
h137l275 -714h-84zM228 289h204l-51.5 143.5l-51.5 143.5z" />
    <glyph glyph-name="aogonek" unicode="&#x105;" 
d="M492 117q0 -18 4.5 -26t17.5 -8h12q3 1 7 1h6.5t6.5 1v-85q-14 -5 -36 -9.5t-38 -4.5q-3 -2 -7 -6l-6 -6t-5 -4q-2 -2 -5.5 -3.5t-5.5 -3.5h1q-26 -27 -35.5 -46.5t-9.5 -39.5q0 -19 10.5 -29t24.5 -10t25 6.5t25 27.5l46 -11q-6 -24 -18 -39.5t-27 -25t-31.5 -13
t-31.5 -3.5q-8 0 -25 2t-34.5 11.5t-31 28t-13.5 51.5q0 13 7.5 35t42.5 54q7 7 20 16.5t29 19.5l-4 2t-1 1q-21 13 -30 43q-34 -31 -81.5 -44.5t-92.5 -13.5q-35 0 -67.5 9.5t-57 28.5t-39 47.5t-14.5 67.5q0 49 17.5 79t46 47.5t64.5 24.5t72 11h-1q14 3 27.5 4.5
t26.5 3.5q20 3 37.5 6t30 9t20 16.5t7.5 28.5q0 21 -10 34t-25 19.5t-32.5 9t-33.5 2.5q-46 0 -75 -19t-33 -61h-121q3 51 24.5 85t54 54.5t73.5 29t84 8.5q38 0 75 -8.5t66.5 -26.5t48 -47t18.5 -70v-262zM371 252q-19 -10 -43 -14.5t-47 -7.5q-10 -2 -21.5 -2.5
t-20.5 -2.5q-18 -3 -34 -8t-28 -14.5t-19.5 -23.5t-7.5 -35q0 -18 10.5 -30t25.5 -18.5t32 -9.5t31 -3q18 0 39.5 5t39.5 15.5t30.5 28t12.5 43.5v77z" />
    <glyph glyph-name="Cacute" unicode="&#x106;" horiz-adv-x="722" 
d="M551 482q-16 62 -56.5 101t-116.5 39q-56 0 -96 -22.5t-65.5 -59.5t-37.5 -85t-12 -98t12 -98t37.5 -85t65.5 -59.5t96 -22.5q40 0 71.5 14.5t53 39.5t34.5 58.5t17 72.5h128q-4 -65 -28 -119t-63.5 -93t-93.5 -60.5t-119 -21.5q-80 0 -143.5 29.5t-107.5 80.5t-67.5 119
t-23.5 145q0 76 23.5 144t67.5 119t107.5 81t143.5 30q61 0 113.5 -17t93 -49t65.5 -78t31 -105h-130zM416 926h146l-149 -150h-91z" />
    <glyph glyph-name="cacute" unicode="&#x107;" 
d="M401 339q-7 48 -36.5 71.5t-75.5 23.5q-21 0 -45 -7t-44 -27t-33.5 -55t-13.5 -92q0 -31 7 -61.5t23 -54.5t40.5 -39t60.5 -15q48 0 78.5 30t38.5 86h121q-17 -104 -77.5 -158.5t-160.5 -54.5q-61 0 -108 20.5t-78.5 56t-48 84.5t-16.5 106q0 58 16 109t47.5 88.5
t79.5 59t112 21.5q45 0 85.5 -11.5t71.5 -35.5t51 -60t25 -85h-120zM328 732h146l-149 -150h-91z" />
    <glyph glyph-name="Ccircumflex" unicode="&#x108;" horiz-adv-x="722" 
d="M551 482q-16 62 -56.5 101t-116.5 39q-56 0 -96 -22.5t-65.5 -59.5t-37.5 -85t-12 -98t12 -98t37.5 -85t65.5 -59.5t96 -22.5q40 0 71.5 14.5t53 39.5t34.5 58.5t17 72.5h128q-4 -65 -28 -119t-63.5 -93t-93.5 -60.5t-119 -21.5q-80 0 -143.5 29.5t-107.5 80.5t-67.5 119
t-23.5 145q0 76 23.5 144t67.5 119t107.5 81t143.5 30q61 0 113.5 -17t93 -49t65.5 -78t31 -105h-130zM312 776h-99l111 150h113l113 -150h-100l-70 87z" />
    <glyph glyph-name="ccircumflex" unicode="&#x109;" 
d="M401 339q-7 48 -36.5 71.5t-75.5 23.5q-21 0 -45 -7t-44 -27t-33.5 -55t-13.5 -92q0 -31 7 -61.5t23 -54.5t40.5 -39t60.5 -15q48 0 78.5 30t38.5 86h121q-17 -104 -77.5 -158.5t-160.5 -54.5q-61 0 -108 20.5t-78.5 56t-48 84.5t-16.5 106q0 58 16 109t47.5 88.5
t79.5 59t112 21.5q45 0 85.5 -11.5t71.5 -35.5t51 -60t25 -85h-120zM222 582h-99l111 150h113l113 -150h-100l-70 87z" />
    <glyph glyph-name="Cdotaccent" unicode="&#x10a;" horiz-adv-x="722" 
d="M551 482q-16 62 -56.5 101t-116.5 39q-56 0 -96 -22.5t-65.5 -59.5t-37.5 -85t-12 -98t12 -98t37.5 -85t65.5 -59.5t96 -22.5q40 0 71.5 14.5t53 39.5t34.5 58.5t17 72.5h128q-4 -65 -28 -119t-63.5 -93t-93.5 -60.5t-119 -21.5q-80 0 -143.5 29.5t-107.5 80.5t-67.5 119
t-23.5 145q0 76 23.5 144t67.5 119t107.5 81t143.5 30q61 0 113.5 -17t93 -49t65.5 -78t31 -105h-130zM318 789v115h121v-115h-121z" />
    <glyph glyph-name="cdotaccent" unicode="&#x10b;" 
d="M401 339q-7 48 -36.5 71.5t-75.5 23.5q-21 0 -45 -7t-44 -27t-33.5 -55t-13.5 -92q0 -31 7 -61.5t23 -54.5t40.5 -39t60.5 -15q48 0 78.5 30t38.5 86h121q-17 -104 -77.5 -158.5t-160.5 -54.5q-61 0 -108 20.5t-78.5 56t-48 84.5t-16.5 106q0 58 16 109t47.5 88.5
t79.5 59t112 21.5q45 0 85.5 -11.5t71.5 -35.5t51 -60t25 -85h-120zM227 595v115h121v-115h-121z" />
    <glyph glyph-name="Ccaron" unicode="&#x10c;" horiz-adv-x="722" 
d="M551 482q-16 62 -56.5 101t-116.5 39q-56 0 -96 -22.5t-65.5 -59.5t-37.5 -85t-12 -98t12 -98t37.5 -85t65.5 -59.5t96 -22.5q40 0 71.5 14.5t53 39.5t34.5 58.5t17 72.5h128q-4 -65 -28 -119t-63.5 -93t-93.5 -60.5t-119 -21.5q-80 0 -143.5 29.5t-107.5 80.5t-67.5 119
t-23.5 145q0 76 23.5 144t67.5 119t107.5 81t143.5 30q61 0 113.5 -17t93 -49t65.5 -78t31 -105h-130zM433 776h-113l-111 150h99l68 -86l70 86h100z" />
    <glyph glyph-name="ccaron" unicode="&#x10d;" 
d="M401 339q-7 48 -36.5 71.5t-75.5 23.5q-21 0 -45 -7t-44 -27t-33.5 -55t-13.5 -92q0 -31 7 -61.5t23 -54.5t40.5 -39t60.5 -15q48 0 78.5 30t38.5 86h121q-17 -104 -77.5 -158.5t-160.5 -54.5q-61 0 -108 20.5t-78.5 56t-48 84.5t-16.5 106q0 58 16 109t47.5 88.5
t79.5 59t112 21.5q45 0 85.5 -11.5t71.5 -35.5t51 -60t25 -85h-120zM345 582h-113l-111 150h99l68 -86l70 86h100z" />
    <glyph glyph-name="Dcaron" unicode="&#x10e;" horiz-adv-x="722" 
d="M73 714h297q83 0 142.5 -28t98 -76.5t56.5 -113.5t18 -139t-18 -139t-56.5 -113.5t-98 -76.5t-142.5 -28h-297v714zM205 109h118q71 0 116 19t70.5 52.5t35 78.5t9.5 98q0 52 -9.5 97.5t-35 79t-70.5 52.5t-116 19h-118v-496zM382 776h-113l-111 150h99l68 -86l70 86h100
z" />
    <glyph glyph-name="dcaron" unicode="&#x10f;" horiz-adv-x="687" 
d="M545 0h-114l-2 57q-25 -39 -66.5 -55t-87.5 -16q-61 0 -106.5 21.5t-75.5 58.5t-45 87.5t-15 108.5q0 70 19 121t50.5 84t72 48.5t82.5 15.5q45 0 91.5 -18.5t76.5 -54.5v253h120v-711zM153 253q0 -32 8 -62.5t25 -54.5t42.5 -38.5t61.5 -14.5t62 15.5t43.5 40t25.5 56
t8 64.5q0 83 -37 129t-100 46q-39 0 -65.5 -16t-43 -41.5t-23.5 -58t-7 -65.5zM625 711h132l-84 -149h-82z" />
    <glyph glyph-name="Dcroat" unicode="&#x110;" horiz-adv-x="722" 
d="M205 422h192v-109h-192v-204h117q72 0 117 19t70.5 52.5t35 78.5t9.5 98q0 52 -9.5 97.5t-35 79t-70.5 52.5t-117 19h-117v-183zM73 313h-66v109h66v292h297q82 0 142 -28t98 -76.5t56.5 -113.5t18.5 -139t-18.5 -139t-56.5 -113.5t-98 -76.5t-142 -28h-297v313z" />
    <glyph glyph-name="dcroat" unicode="&#x111;" horiz-adv-x="620" 
d="M545 0h-114l-2 57q-25 -39 -66.5 -55t-87.5 -16q-61 0 -106.5 21.5t-75.5 58.5t-45 87.5t-15 108.5q0 70 19 121t50.5 84t72 48.5t83.5 15.5q44 0 91 -18.5t76 -54.5v117h-151v72h151v64h120v-64h78v-72h-78v-575zM153 253q0 -32 8 -62.5t25 -54.5t43 -38.5t61 -14.5
q36 0 62.5 15.5t43.5 40t25 56t8 64.5q0 83 -36.5 129t-100.5 46q-38 0 -64.5 -16t-43 -41.5t-24 -58t-7.5 -65.5z" />
    <glyph glyph-name="Emacron" unicode="&#x112;" horiz-adv-x="630" 
d="M73 714h516v-115h-384v-177h356v-109h-356v-198h391v-115h-523v714zM187 811v72h293v-72h-293z" />
    <glyph glyph-name="emacron" unicode="&#x113;" 
d="M407 307q-2 25 -11.5 48.5t-25 40.5t-37.5 27.5t-50 10.5q-57 0 -91.5 -36.5t-38.5 -90.5h254zM153 226q1 -29 9 -54.5t24.5 -45.5t41.5 -31.5t58 -11.5q48 0 77 21t44 63h114q-9 -44 -31 -77.5t-53.5 -56.5t-70 -35t-80.5 -12q-62 0 -109 20t-79 56t-48.5 86t-16.5 110
q0 55 17.5 104.5t50 87t78.5 59.5t104 22q56 0 101.5 -21.5t77.5 -58t49.5 -84.5t17.5 -100v-21.5t-2 -19.5h-374zM138 617v72h293v-72h-293z" />
    <glyph glyph-name="Ebreve" unicode="&#x114;" horiz-adv-x="630" 
d="M73 714h516v-115h-384v-177h356v-109h-356v-198h391v-115h-523v714zM230 925q8 -42 36.5 -58.5t66.5 -16.5q37 0 63 18.5t34 56.5h63q-8 -75 -53 -111.5t-115 -36.5t-111.5 38t-47.5 110h64z" />
    <glyph glyph-name="ebreve" unicode="&#x115;" 
d="M407 307q-2 25 -11.5 48.5t-25 40.5t-37.5 27.5t-50 10.5q-57 0 -91.5 -36.5t-38.5 -90.5h254zM153 226q1 -29 9 -54.5t24.5 -45.5t41.5 -31.5t58 -11.5q48 0 77 21t44 63h114q-9 -44 -31 -77.5t-53.5 -56.5t-70 -35t-80.5 -12q-62 0 -109 20t-79 56t-48.5 86t-16.5 110
q0 55 17.5 104.5t50 87t78.5 59.5t104 22q56 0 101.5 -21.5t77.5 -58t49.5 -84.5t17.5 -100v-21.5t-2 -19.5h-374zM183 731q8 -42 36.5 -58.5t66.5 -16.5q37 0 63 18.5t34 56.5h63q-8 -75 -53 -111.5t-115 -36.5t-111.5 38t-47.5 110h64z" />
    <glyph glyph-name="Edotaccent" unicode="&#x116;" horiz-adv-x="630" 
d="M73 714h516v-115h-384v-177h356v-109h-356v-198h391v-115h-523v714zM272 789v115h121v-115h-121z" />
    <glyph glyph-name="edotaccent" unicode="&#x117;" 
d="M407 307q-2 25 -11.5 48.5t-25 40.5t-37.5 27.5t-50 10.5q-57 0 -91.5 -36.5t-38.5 -90.5h254zM153 226q1 -29 9 -54.5t24.5 -45.5t41.5 -31.5t58 -11.5q48 0 77 21t44 63h114q-9 -44 -31 -77.5t-53.5 -56.5t-70 -35t-80.5 -12q-62 0 -109 20t-79 56t-48.5 86t-16.5 110
q0 55 17.5 104.5t50 87t78.5 59.5t104 22q56 0 101.5 -21.5t77.5 -58t49.5 -84.5t17.5 -100v-21.5t-2 -19.5h-374zM226 595v115h121v-115h-121z" />
    <glyph glyph-name="Eogonek" unicode="&#x118;" horiz-adv-x="630" 
d="M556 0q-52 -40 -71 -68.5t-19 -55.5q0 -18 10 -28.5t24 -10.5t25.5 7t25.5 27l46 -10q-6 -24 -18.5 -40t-27.5 -25.5t-31.5 -13t-31.5 -3.5q-7 0 -24 2t-34.5 11.5t-31 28t-13.5 51.5q0 8 1 20t10.5 27.5t30.5 36t61 44.5h-415v714h516v-115h-384v-177h356v-109h-356
v-198h391v-115h-40z" />
    <glyph glyph-name="eogonek" unicode="&#x119;" 
d="M153 226q1 -29 9 -54.5t24.5 -45.5t41.5 -31.5t58 -11.5q48 0 77 21t44 63h114q-14 -66 -56 -109t-99 -60l-16.5 -4l-17.5 -4q-2 -1 -3.5 -2.5l-2.5 -2.5l-14 -12t-11 -10q-27 -27 -36.5 -46.5t-9.5 -39.5q0 -19 10.5 -29t24.5 -10t25 6.5t25 27.5l46 -11
q-6 -24 -18 -39.5t-27 -25t-31.5 -13t-31.5 -3.5q-8 0 -25 2t-34.5 11.5t-31 28t-13.5 51.5q0 6 1 14.5t5.5 19.5t15 24.5t28.5 30.5q5 5 13 11l19 14q-22 2 -41.5 6.5t-37.5 12.5q-70 30 -107 95.5t-37 156.5q0 55 17.5 104.5t50 87t78.5 59.5t104 22q56 0 101.5 -21.5
t77.5 -58t49.5 -84.5t17.5 -100v-21.5t-2 -19.5h-374zM407 307q-2 25 -11.5 48.5t-25 40.5t-37.5 27.5t-50 10.5q-57 0 -91.5 -36.5t-38.5 -90.5h254z" />
    <glyph glyph-name="Ecaron" unicode="&#x11a;" horiz-adv-x="630" 
d="M73 714h516v-115h-384v-177h356v-109h-356v-198h391v-115h-523v714zM387 776h-113l-111 150h99l68 -86l70 86h100z" />
    <glyph glyph-name="ecaron" unicode="&#x11b;" 
d="M407 307q-2 25 -11.5 48.5t-25 40.5t-37.5 27.5t-50 10.5q-57 0 -91.5 -36.5t-38.5 -90.5h254zM153 226q1 -29 9 -54.5t24.5 -45.5t41.5 -31.5t58 -11.5q48 0 77 21t44 63h114q-9 -44 -31 -77.5t-53.5 -56.5t-70 -35t-80.5 -12q-62 0 -109 20t-79 56t-48.5 86t-16.5 110
q0 55 17.5 104.5t50 87t78.5 59.5t104 22q56 0 101.5 -21.5t77.5 -58t49.5 -84.5t17.5 -100v-21.5t-2 -19.5h-374zM338 582h-113l-111 150h99l68 -86l70 86h100z" />
    <glyph glyph-name="Gcircumflex" unicode="&#x11c;" horiz-adv-x="759" 
d="M697 0h-86l-19 77q-47 -49 -97.5 -71.5t-111.5 -22.5q-80 0 -143.5 29.5t-107.5 80.5t-67.5 119t-23.5 145q0 76 23.5 144t67.5 119t107.5 81t143.5 30q58 0 110.5 -16t93.5 -47t68 -78t34 -108h-128q-5 34 -21 60.5t-40 44t-54 26.5t-63 9q-56 0 -96 -22.5t-65.5 -59.5
t-37.5 -85t-12 -98t12 -98t37.5 -85t65.5 -59.5t96 -22.5q93 -2 142 48t52 138h-188v102h308v-380zM319 776h-99l111 150h113l113 -150h-100l-70 87z" />
    <glyph glyph-name="gcircumflex" unicode="&#x11d;" horiz-adv-x="593" 
d="M536 31q0 -118 -65 -175.5t-189 -57.5q-39 0 -79 8.5t-72.5 28t-54.5 51.5t-26 79h120q5 -24 16.5 -38.5t27.5 -23t35 -11t40 -2.5q66 0 96.5 32.5t30.5 93.5l-2 64q-26 -38 -65 -59t-84 -21q-62 0 -105.5 21.5t-72 59t-41.5 86.5t-13 105q0 52 15.5 99t45.5 82.5
t73.5 56.5t99.5 21q45 0 84 -17.5t65 -54.5v58h120v-486zM283 97q36 0 61.5 15t41 39.5t23 55.5t7.5 63t-7.5 61.5t-23.5 52.5t-41.5 36.5t-60.5 13.5q-36 0 -61 -15.5t-40.5 -40t-22 -55.5t-6.5 -62q0 -30 7.5 -59.5t23.5 -53t40.5 -37.5t58.5 -14zM234 582h-99l111 150
h113l113 -150h-100l-70 87z" />
    <glyph glyph-name="Gbreve" unicode="&#x11e;" horiz-adv-x="759" 
d="M697 0h-86l-19 77q-47 -49 -97.5 -71.5t-111.5 -22.5q-80 0 -143.5 29.5t-107.5 80.5t-67.5 119t-23.5 145q0 76 23.5 144t67.5 119t107.5 81t143.5 30q58 0 110.5 -16t93.5 -47t68 -78t34 -108h-128q-5 34 -21 60.5t-40 44t-54 26.5t-63 9q-56 0 -96 -22.5t-65.5 -59.5
t-37.5 -85t-12 -98t12 -98t37.5 -85t65.5 -59.5t96 -22.5q93 -2 142 48t52 138h-188v102h308v-380zM289 925q8 -42 36.5 -58.5t66.5 -16.5q37 0 63 18.5t34 56.5h63q-8 -75 -53 -111.5t-115 -36.5t-111.5 38t-47.5 110h64z" />
    <glyph glyph-name="gbreve" unicode="&#x11f;" horiz-adv-x="593" 
d="M536 31q0 -118 -65 -175.5t-189 -57.5q-39 0 -79 8.5t-72.5 28t-54.5 51.5t-26 79h120q5 -24 16.5 -38.5t27.5 -23t35 -11t40 -2.5q66 0 96.5 32.5t30.5 93.5l-2 64q-26 -38 -65 -59t-84 -21q-62 0 -105.5 21.5t-72 59t-41.5 86.5t-13 105q0 52 15.5 99t45.5 82.5
t73.5 56.5t99.5 21q45 0 84 -17.5t65 -54.5v58h120v-486zM283 97q36 0 61.5 15t41 39.5t23 55.5t7.5 63t-7.5 61.5t-23.5 52.5t-41.5 36.5t-60.5 13.5q-36 0 -61 -15.5t-40.5 -40t-22 -55.5t-6.5 -62q0 -30 7.5 -59.5t23.5 -53t40.5 -37.5t58.5 -14zM193 731
q8 -42 36.5 -58.5t66.5 -16.5q37 0 63 18.5t34 56.5h63q-8 -75 -53 -111.5t-115 -36.5t-111.5 38t-47.5 110h64z" />
    <glyph glyph-name="Gdotaccent" unicode="&#x120;" horiz-adv-x="759" 
d="M697 0h-86l-19 77q-47 -49 -97.5 -71.5t-111.5 -22.5q-80 0 -143.5 29.5t-107.5 80.5t-67.5 119t-23.5 145q0 76 23.5 144t67.5 119t107.5 81t143.5 30q58 0 110.5 -16t93.5 -47t68 -78t34 -108h-128q-5 34 -21 60.5t-40 44t-54 26.5t-63 9q-56 0 -96 -22.5t-65.5 -59.5
t-37.5 -85t-12 -98t12 -98t37.5 -85t65.5 -59.5t96 -22.5q93 -2 142 48t52 138h-188v102h308v-380zM325 789v115h121v-115h-121z" />
    <glyph glyph-name="gdotaccent" unicode="&#x121;" horiz-adv-x="593" 
d="M536 31q0 -118 -65 -175.5t-189 -57.5q-39 0 -79 8.5t-72.5 28t-54.5 51.5t-26 79h120q5 -24 16.5 -38.5t27.5 -23t35 -11t40 -2.5q66 0 96.5 32.5t30.5 93.5l-2 64q-26 -38 -65 -59t-84 -21q-62 0 -105.5 21.5t-72 59t-41.5 86.5t-13 105q0 52 15.5 99t45.5 82.5
t73.5 56.5t99.5 21q45 0 84 -17.5t65 -54.5v58h120v-486zM283 97q36 0 61.5 15t41 39.5t23 55.5t7.5 63t-7.5 61.5t-23.5 52.5t-41.5 36.5t-60.5 13.5q-36 0 -61 -15.5t-40.5 -40t-22 -55.5t-6.5 -62q0 -30 7.5 -59.5t23.5 -53t40.5 -37.5t58.5 -14zM233 595v115h121v-115
h-121z" />
    <glyph glyph-name="Gcommaaccent" unicode="&#x122;" horiz-adv-x="759" 
d="M697 0h-86l-19 77q-47 -49 -97.5 -71.5t-111.5 -22.5q-80 0 -143.5 29.5t-107.5 80.5t-67.5 119t-23.5 145q0 76 23.5 144t67.5 119t107.5 81t143.5 30q58 0 110.5 -16t93.5 -47t68 -78t34 -108h-128q-5 34 -21 60.5t-40 44t-54 26.5t-63 9q-56 0 -96 -22.5t-65.5 -59.5
t-37.5 -85t-12 -98t12 -98t37.5 -85t65.5 -59.5t96 -22.5q93 -2 142 48t52 138h-188v102h308v-380zM316 -41h137v-92q0 -16 -5.5 -31t-19 -27t-37 -20t-60.5 -9v46q35 4 43 27h-58v106z" />
    <glyph glyph-name="gcommaaccent" unicode="&#x123;" horiz-adv-x="593" 
d="M536 31q0 -118 -65 -175.5t-189 -57.5q-39 0 -79 8.5t-72.5 28t-54.5 51.5t-26 79h120q5 -24 16.5 -38.5t27.5 -23t35 -11t40 -2.5q66 0 96.5 32.5t30.5 93.5l-2 64q-26 -38 -65 -59t-84 -21q-62 0 -105.5 21.5t-72 59t-41.5 86.5t-13 105q0 52 15.5 99t45.5 82.5
t73.5 56.5t99.5 21q45 0 84 -17.5t65 -54.5v58h120v-486zM283 97q36 0 61.5 15t41 39.5t23 55.5t7.5 63t-7.5 61.5t-23.5 52.5t-41.5 36.5t-60.5 13.5q-36 0 -61 -15.5t-40.5 -40t-22 -55.5t-6.5 -62q0 -30 7.5 -59.5t23.5 -53t40.5 -37.5t58.5 -14zM363 606h-137v91
q0 16 5.5 31.5t19 27t37 19t60.5 9.5v-45q-35 -4 -43 -28h58v-105z" />
    <glyph glyph-name="Hcircumflex" unicode="&#x124;" horiz-adv-x="722" 
d="M70 714h132v-281h313v281h132v-714h-132v318h-313v-318h-132v714zM293 776h-99l111 150h113l113 -150h-100l-70 87z" />
    <glyph glyph-name="hcircumflex" unicode="&#x125;" horiz-adv-x="574" 
d="M57 711h120l2 -252q23 30 63 51t86 21q85 0 134.5 -44t49.5 -133v-354h-120v324q-2 58 -24.5 84t-70.5 26q-27 0 -49.5 -10t-38 -27.5t-24 -41.5t-8.5 -51v-304h-120v711zM217 776h-99l111 150h113l113 -150h-100l-70 87z" />
    <glyph glyph-name="Hbar" unicode="&#x126;" horiz-adv-x="722" 
d="M70 714h132v-170h313v170h132v-714h-132v294h-313v-294h-132v714zM515 408v64h-313v-64h313z" />
    <glyph glyph-name="hbar" unicode="&#x127;" horiz-adv-x="584" 
d="M67 711h120v-64h124v-72h-124q0 -32 1 -58t1 -58q23 30 63 51t86 21q85 0 134.5 -44t49.5 -133v-354h-120v324q-2 58 -25 84t-71 26q-55 0 -87 -37.5t-32 -92.5v-304h-120v575h-75v72h75v64z" />
    <glyph glyph-name="Itilde" unicode="&#x128;" horiz-adv-x="278" 
d="M72 714h131v-714h-131v714zM318 914q-4 -26 -12 -48.5t-22 -38.5q-13 -16 -32.5 -25.5t-47.5 -9.5q-17 0 -37.5 5.5t-38.5 13.5q-20 8 -35 13t-30 5q-31 0 -39 -41h-65q3 21 11.5 42t22 38.5t32 28.5t42.5 11q20 0 36 -3.5t46 -16.5q21 -9 34 -13.5t26 -4.5q20 0 30.5 12
t15.5 32h63z" />
    <glyph glyph-name="itilde" unicode="&#x129;" horiz-adv-x="241" 
d="M59 0v517h120v-517h-120zM300 720q-4 -26 -12 -48.5t-22 -38.5q-13 -16 -32.5 -25.5t-47.5 -9.5q-17 0 -37.5 5.5t-38.5 13.5q-20 8 -35 13t-30 5q-31 0 -39 -41h-65q3 21 11.5 42t22 38.5t32 28.5t42.5 11q20 0 36 -3.5t46 -16.5q21 -9 34 -13.5t26 -4.5q20 0 30.5 12
t15.5 32h63z" />
    <glyph glyph-name="Imacron" unicode="&#x12a;" horiz-adv-x="278" 
d="M72 714h131v-714h-131v714zM-9 811v72h293v-72h-293z" />
    <glyph glyph-name="imacron" unicode="&#x12b;" horiz-adv-x="241" 
d="M59 0v517h120v-517h-120zM-26 617v72h293v-72h-293z" />
    <glyph glyph-name="Ibreve" unicode="&#x12c;" horiz-adv-x="278" 
d="M72 714h131v-714h-131v714zM38 905q8 -42 36.5 -58.5t66.5 -16.5q37 0 63 18.5t34 56.5h63q-8 -75 -53 -111.5t-115 -36.5t-111.5 38t-47.5 110h64z" />
    <glyph glyph-name="ibreve" unicode="&#x12d;" horiz-adv-x="241" 
d="M59 0v517h120v-517h-120zM20 708q8 -42 36.5 -58.5t66.5 -16.5q37 0 63 18.5t34 56.5h63q-8 -75 -53 -111.5t-115 -36.5t-111.5 38t-47.5 110h64z" />
    <glyph glyph-name="Iogonek" unicode="&#x12e;" horiz-adv-x="278" 
d="M204 2q-25 -22 -41.5 -39t-26 -32t-13 -28t-3.5 -27q0 -18 9 -28.5t22 -10.5q12 0 22.5 7t23.5 27l42 -10q-6 -24 -17.5 -40t-25 -25.5t-28 -13t-28.5 -3.5q-6 0 -21.5 2t-31.5 11.5t-28.5 28t-12.5 51.5q0 7 1.5 19.5t10.5 28.5t27.5 36t53.5 44h-67v714h132v-712z" />
    <glyph glyph-name="iogonek" unicode="&#x12f;" horiz-adv-x="241" 
d="M177 1q-25 -22 -41 -39t-25.5 -31.5t-13 -27.5t-3.5 -26q0 -19 10 -29t21 -10q14 0 23.5 6.5t20.5 27.5l44 -11q-5 -24 -16 -39.5t-24.5 -24.5t-28.5 -13t-29 -4q-7 0 -22.5 2t-31.5 11.5t-28 28t-12 51.5q0 7 1.5 19t10.5 28t27.5 36t52.5 44h-54v517h120v-517zM59 711
h120v-114h-120v114z" />
    <glyph glyph-name="Idotaccent" unicode="&#x130;" horiz-adv-x="278" 
d="M72 714h131v-714h-131v714zM78 789v115h121v-115h-121z" />
    <glyph glyph-name="dotlessi" unicode="&#x131;" horiz-adv-x="241" 
d="M59 0v517h120v-517h-120z" />
    <glyph glyph-name="Jcircumflex" unicode="&#x134;" horiz-adv-x="537" 
d="M461 231q0 -47 -8 -91.5t-33 -79t-71.5 -56t-123.5 -21.5q-57 0 -97.5 17.5t-67 48.5t-38.5 73t-12 92v41h132v-40q0 -59 19.5 -91t73.5 -32q29 0 47.5 8.5t29 25.5t14.5 41.5t4 56.5v490h131v-483zM324 776h-99l111 150h113l113 -150h-100l-70 87z" />
    <glyph glyph-name="jcircumflex" unicode="&#x135;" horiz-adv-x="241" 
d="M59 517h120v-556q0 -79 -34.5 -121t-115.5 -42q-17 0 -28.5 1t-25.5 4v97q14 -3 24 -4t18 -1q28 0 35 17.5t7 53.5v551zM51 582h-99l111 150h113l113 -150h-100l-70 87z" />
    <glyph glyph-name="Kcommaaccent" unicode="&#x136;" horiz-adv-x="685" 
d="M73 714h132v-315l308 315h165l-287 -287l151.5 -213.5l151.5 -213.5h-163l-229 336l-22 -22l-26.5 -26.5l-26.5 -26.5l-22 -22v-239h-132v714zM272 -41h137v-92q0 -16 -5.5 -31t-19 -27t-37 -20t-60.5 -9v46q35 4 43 27h-58v106z" />
    <glyph glyph-name="kcommaaccent" unicode="&#x137;" horiz-adv-x="537" 
d="M60 711h121v-394l197 200h149l-200 -192l216 -325h-146l-153 245l-63 -61v-184h-121v711zM210 -41h137v-92q0 -16 -5.5 -31t-19 -27t-37 -20t-60.5 -9v46q35 4 43 27h-58v106z" />
    <glyph glyph-name="uni0138.kGreenlandic" unicode="&#x138;" horiz-adv-x="537" 
d="M60 517h121v-200l197 200h149l-200 -192l216 -325h-146l-153 245l-63 -61v-184h-121v517z" />
    <glyph glyph-name="Lacute" unicode="&#x139;" horiz-adv-x="574" 
d="M73 714h132v-599h358v-115h-490v714zM183 926h146l-149 -150h-91z" />
    <glyph glyph-name="lacute" unicode="&#x13a;" horiz-adv-x="241" 
d="M59 711h120v-711h-120v711zM150 926h146l-149 -150h-91z" />
    <glyph glyph-name="Lcommaaccent" unicode="&#x13b;" horiz-adv-x="574" 
d="M73 714h132v-599h358v-115h-490v714zM252 -41h137v-92q0 -16 -5.5 -31t-19 -27t-37 -20t-60.5 -9v46q35 4 43 27h-58v106z" />
    <glyph glyph-name="lcommaaccent" unicode="&#x13c;" horiz-adv-x="241" 
d="M59 711h120v-711h-120v711zM52 -41h137v-92q0 -16 -5.5 -31t-19 -27t-37 -20t-60.5 -9v46q35 4 43 27h-58v106z" />
    <glyph glyph-name="Lcaron" unicode="&#x13d;" horiz-adv-x="574" 
d="M73 714h132v-599h358v-115h-490v714zM325 711h132l-84 -149h-82z" />
    <glyph glyph-name="lcaron" unicode="&#x13e;" horiz-adv-x="319" 
d="M235 419h97v292h-97v-292zM61 715h120v-711h-120v711z" />
    <glyph glyph-name="Ldot" unicode="&#x13f;" horiz-adv-x="574" 
d="M73 714h132v-599h358v-115h-490v714zM318 404v115h121v-115h-121z" />
    <glyph glyph-name="ldot" unicode="&#x140;" horiz-adv-x="363" 
d="M59 711h120v-711h-120v711zM227 404v115h121v-115h-121z" />
    <glyph glyph-name="Lslash" unicode="&#x141;" horiz-adv-x="574" 
d="M73 714h131v-299l198 140v-101l-198 -140v-199h359v-115h-490v221l-75 -53v98l75 52v396z" />
    <glyph glyph-name="lslash" unicode="&#x142;" horiz-adv-x="241" 
d="M59 311l-34 -27l-33 -26v79l67 53v321h120v-226l34.5 26.5t32.5 26.5v-82l-67 -53v-403h-120v311z" />
    <glyph glyph-name="Nacute" unicode="&#x143;" horiz-adv-x="722" 
d="M68 714h137l318 -511v511h126v-714h-137l-318 510v-510h-126v714zM396 926h146l-149 -150h-91z" />
    <glyph glyph-name="nacute" unicode="&#x144;" horiz-adv-x="574" 
d="M57 517h115l2 -68q26 38 66 60t88 22q85 0 134.5 -44t49.5 -133v-354h-120v324q-2 58 -24.5 84t-70.5 26q-27 0 -49.5 -10t-38 -27.5t-24 -41.5t-8.5 -51v-304h-120v517zM317 732h146l-149 -150h-91z" />
    <glyph glyph-name="Ncommaaccent" unicode="&#x145;" horiz-adv-x="722" 
d="M68 714h137l318 -511v511h126v-714h-137l-318 510v-510h-126v714zM281 -41h137v-92q0 -16 -5.5 -31t-19 -27t-37 -20t-60.5 -9v46q35 4 43 27h-58v106z" />
    <glyph glyph-name="ncommaaccent" unicode="&#x146;" horiz-adv-x="574" 
d="M57 517h115l2 -68q26 38 66 60t88 22q85 0 134.5 -44t49.5 -133v-354h-120v324q-2 58 -24.5 84t-70.5 26q-27 0 -49.5 -10t-38 -27.5t-24 -41.5t-8.5 -51v-304h-120v517zM216 -41h137v-92q0 -16 -5.5 -31t-19 -27t-37 -20t-60.5 -9v46q35 4 43 27h-58v106z" />
    <glyph glyph-name="Ncaron" unicode="&#x147;" horiz-adv-x="722" 
d="M68 714h137l318 -511v511h126v-714h-137l-318 510v-510h-126v714zM413 776h-113l-111 150h99l68 -86l70 86h100z" />
    <glyph glyph-name="ncaron" unicode="&#x148;" horiz-adv-x="574" 
d="M57 517h115l2 -68q26 38 66 60t88 22q85 0 134.5 -44t49.5 -133v-354h-120v324q-2 58 -24.5 84t-70.5 26q-27 0 -49.5 -10t-38 -27.5t-24 -41.5t-8.5 -51v-304h-120v517zM344 582h-113l-111 150h99l68 -86l70 86h100z" />
    <glyph glyph-name="napostrophe" unicode="&#x149;" horiz-adv-x="574" 
d="M57 517h115l2 -68q26 38 66 60t88 22q85 0 134.5 -44t49.5 -133v-354h-120v324q-2 58 -24.5 84t-70.5 26q-27 0 -49.5 -10t-38 -27.5t-24 -41.5t-8.5 -51v-304h-120v517zM-21 822h137v-92q0 -16 -5.5 -31t-19 -27t-37 -20t-60.5 -9v46q35 4 43 27h-58v106z" />
    <glyph glyph-name="uni014A.Eng" unicode="&#x14a;" horiz-adv-x="722" 
d="M68 714h137l318 -511v511h126v-754q0 -79 -38.5 -121t-120.5 -42q-17 0 -31.5 1t-27.5 4v97q14 -3 26.5 -4t20.5 -1q28 0 36.5 18t8.5 53v21l-329 523v-509h-126v714z" />
    <glyph glyph-name="uni014B.eng" unicode="&#x14b;" horiz-adv-x="574" 
d="M57 517h115l2 -68q26 38 66 60t88 22q85 0 134.5 -44t49.5 -133v-393q0 -79 -34 -121t-115 -42q-17 0 -29 1t-26 4v97q13 -3 23.5 -4t19.5 -1q27 0 34 17.5t7 53.5v358q0 58 -23.5 84t-71.5 26q-27 0 -49.5 -10t-38 -27.5t-24 -41.5t-8.5 -51v-304h-120v517z" />
    <glyph glyph-name="Omacron" unicode="&#x14c;" horiz-adv-x="760" 
d="M378 622q-56 0 -95.5 -22.5t-65.5 -59.5t-38 -85t-12 -98t12 -98t38 -85t65.5 -59.5t95.5 -22.5q55 0 95 22.5t66 59.5t38 85t12 98t-12 98t-38 85t-66 59.5t-95 22.5zM378 731q80 0 143.5 -30t107.5 -81t67.5 -119t23.5 -144q0 -77 -23.5 -145t-67.5 -119t-107.5 -80.5
t-143.5 -29.5t-143.5 29.5t-107.5 80.5t-67.5 119t-23.5 145q0 76 23.5 144t67.5 119t107.5 81t143.5 30zM236 811v72h293v-72h-293z" />
    <glyph glyph-name="omacron" unicode="&#x14d;" horiz-adv-x="593" 
d="M295 -14q-62 0 -110.5 20.5t-82 56.5t-51 86t-17.5 110q0 59 17.5 109t51 86t82 56.5t110.5 20.5t110.5 -20.5t82 -56.5t51 -86t17.5 -109q0 -60 -17.5 -110t-51 -86t-82 -56.5t-110.5 -20.5zM295 83q36 0 63 15.5t44 40t25.5 56t8.5 64.5q0 32 -8.5 63.5t-25.5 56
t-44 40t-63 15.5q-37 0 -63.5 -15.5t-44 -40t-25.5 -56t-8 -63.5q0 -33 8 -64.5t25.5 -56t44 -40t63.5 -15.5zM153 617v72h293v-72h-293z" />
    <glyph glyph-name="Obreve" unicode="&#x14e;" horiz-adv-x="760" 
d="M378 622q-56 0 -95.5 -22.5t-65.5 -59.5t-38 -85t-12 -98t12 -98t38 -85t65.5 -59.5t95.5 -22.5q55 0 95 22.5t66 59.5t38 85t12 98t-12 98t-38 85t-66 59.5t-95 22.5zM378 731q80 0 143.5 -30t107.5 -81t67.5 -119t23.5 -144q0 -77 -23.5 -145t-67.5 -119t-107.5 -80.5
t-143.5 -29.5t-143.5 29.5t-107.5 80.5t-67.5 119t-23.5 145q0 76 23.5 144t67.5 119t107.5 81t143.5 30zM278 925q8 -42 36.5 -58.5t66.5 -16.5q37 0 63 18.5t34 56.5h63q-8 -75 -53 -111.5t-115 -36.5t-111.5 38t-47.5 110h64z" />
    <glyph glyph-name="obreve" unicode="&#x14f;" horiz-adv-x="593" 
d="M295 -14q-62 0 -110.5 20.5t-82 56.5t-51 86t-17.5 110q0 59 17.5 109t51 86t82 56.5t110.5 20.5t110.5 -20.5t82 -56.5t51 -86t17.5 -109q0 -60 -17.5 -110t-51 -86t-82 -56.5t-110.5 -20.5zM295 83q36 0 63 15.5t44 40t25.5 56t8.5 64.5q0 32 -8.5 63.5t-25.5 56
t-44 40t-63 15.5q-37 0 -63.5 -15.5t-44 -40t-25.5 -56t-8 -63.5q0 -33 8 -64.5t25.5 -56t44 -40t63.5 -15.5zM198 731q8 -42 36.5 -58.5t66.5 -16.5q37 0 63 18.5t34 56.5h63q-8 -75 -53 -111.5t-115 -36.5t-111.5 38t-47.5 110h64z" />
    <glyph glyph-name="Ohungarumlaut" unicode="&#x150;" horiz-adv-x="760" 
d="M378 622q-56 0 -95.5 -22.5t-65.5 -59.5t-38 -85t-12 -98t12 -98t38 -85t65.5 -59.5t95.5 -22.5q55 0 95 22.5t66 59.5t38 85t12 98t-12 98t-38 85t-66 59.5t-95 22.5zM378 731q80 0 143.5 -30t107.5 -81t67.5 -119t23.5 -144q0 -77 -23.5 -145t-67.5 -119t-107.5 -80.5
t-143.5 -29.5t-143.5 29.5t-107.5 80.5t-67.5 119t-23.5 145q0 76 23.5 144t67.5 119t107.5 81t143.5 30zM521 926h147l-151 -150h-90zM324 926h147l-151 -150h-90z" />
    <glyph glyph-name="ohungarumlaut" unicode="&#x151;" horiz-adv-x="593" 
d="M295 -14q-62 0 -110.5 20.5t-82 56.5t-51 86t-17.5 110q0 59 17.5 109t51 86t82 56.5t110.5 20.5t110.5 -20.5t82 -56.5t51 -86t17.5 -109q0 -60 -17.5 -110t-51 -86t-82 -56.5t-110.5 -20.5zM295 83q36 0 63 15.5t44 40t25.5 56t8.5 64.5q0 32 -8.5 63.5t-25.5 56
t-44 40t-63 15.5q-37 0 -63.5 -15.5t-44 -40t-25.5 -56t-8 -63.5q0 -33 8 -64.5t25.5 -56t44 -40t63.5 -15.5zM434 732h147l-151 -150h-90zM237 732h147l-151 -150h-90z" />
    <glyph glyph-name="OE" unicode="&#x152;" horiz-adv-x="1093" 
d="M671 422h339v-109h-339v-198h376v-115h-497v56q-36 -34 -84.5 -53.5t-97.5 -19.5q-80 0 -141 30t-102.5 81t-63 118.5t-21.5 141.5q0 75 22.5 143.5t65.5 120.5t105.5 82.5t142.5 30.5q51 0 94.5 -14.5t79.5 -51.5v49h490v-115h-369v-177zM545 484q0 27 -10 52t-30.5 44
t-51.5 30.5t-73 11.5q-55 0 -94.5 -23.5t-65 -61t-37.5 -85t-12 -96.5t12 -96t37.5 -84.5t65 -60.5t94.5 -23q39 0 70 12t52 30.5t32 41.5t11 45v263z" />
    <glyph glyph-name="oe" unicode="&#x153;" horiz-adv-x="907" 
d="M280 434q-35 0 -59 -15.5t-39 -40.5t-21.5 -55.5t-6.5 -60.5q0 -33 6 -65t20 -57.5t38.5 -41t61.5 -15.5t61.5 15.5t39 41t20 57.5t5.5 65q0 30 -6.5 60.5t-21.5 55.5t-39 40.5t-59 15.5zM629 434q-27 0 -49.5 -10t-38.5 -27.5t-25.5 -40.5t-10.5 -49h252q-5 59 -35.5 93
t-92.5 34zM505 226q1 -30 9 -56t24 -45.5t40 -30.5t56 -11q20 0 39.5 5.5t35.5 16t27.5 26.5t15.5 38h120q-22 -91 -84 -137t-152 -46q-57 0 -105.5 18.5t-76.5 69.5q-30 -51 -77 -69.5t-105 -18.5q-60 0 -104.5 22t-74.5 59.5t-44.5 87t-14.5 105.5q0 55 16.5 104.5
t48 86.5t77.5 58.5t105 21.5q52 0 100.5 -19t77.5 -64q31 42 79.5 62.5t99.5 20.5q67 0 113 -25t74 -67t40 -97t12 -116h-372z" />
    <glyph glyph-name="Racute" unicode="&#x154;" horiz-adv-x="704" 
d="M73 714h341q120 0 179 -51t59 -144q0 -44 -11.5 -74.5t-28 -51.5t-35 -33.5t-31.5 -18.5q16 -4 33 -14t30.5 -28t22 -45t8.5 -64q0 -62 10.5 -113.5t33.5 -76.5h-144q-16 26 -18.5 54t-2.5 54q0 47 -5.5 81.5t-20.5 57t-41.5 33.5t-68.5 11h-178v-291h-132v714zM205 393
h199q116 0 116 108q0 33 -9.5 53.5t-26 31.5t-38 15t-44.5 4h-197v-212zM373 926h146l-149 -150h-91z" />
    <glyph glyph-name="racute" unicode="&#x155;" horiz-adv-x="352" 
d="M57 517h113l2 -81q8 19 23 36t34 30t41.5 21t46.5 8q14 0 22 -0.5t13 -1.5q2 0 5.5 -0.5t5.5 -0.5v-117q-29 6 -52 6q-28 0 -52.5 -11.5t-42.5 -33t-28.5 -53.5t-10.5 -73v-246h-120v517zM169 732h146l-149 -150h-91z" />
    <glyph glyph-name="Rcommaaccent" unicode="&#x156;" horiz-adv-x="704" 
d="M73 714h341q120 0 179 -51t59 -144q0 -44 -11.5 -74.5t-28 -51.5t-35 -33.5t-31.5 -18.5q16 -4 33 -14t30.5 -28t22 -45t8.5 -64q0 -62 10.5 -113.5t33.5 -76.5h-144q-16 26 -18.5 54t-2.5 54q0 47 -5.5 81.5t-20.5 57t-41.5 33.5t-68.5 11h-178v-291h-132v714zM205 393
h199q116 0 116 108q0 33 -9.5 53.5t-26 31.5t-38 15t-44.5 4h-197v-212zM285 -41h137v-92q0 -16 -5.5 -31t-19 -27t-37 -20t-60.5 -9v46q35 4 43 27h-58v106z" />
    <glyph glyph-name="rcommaaccent" unicode="&#x157;" horiz-adv-x="352" 
d="M57 517h113l2 -81q8 19 23 36t34 30t41.5 21t46.5 8q14 0 22 -0.5t13 -1.5q2 0 5.5 -0.5t5.5 -0.5v-117q-29 6 -52 6q-28 0 -52.5 -11.5t-42.5 -33t-28.5 -53.5t-10.5 -73v-246h-120v517zM49 -41h137v-92q0 -16 -5.5 -31t-19 -27t-37 -20t-60.5 -9v46q35 4 43 27h-58v106
z" />
    <glyph glyph-name="Rcaron" unicode="&#x158;" horiz-adv-x="704" 
d="M73 714h341q120 0 179 -51t59 -144q0 -44 -11.5 -74.5t-28 -51.5t-35 -33.5t-31.5 -18.5q16 -4 33 -14t30.5 -28t22 -45t8.5 -64q0 -62 10.5 -113.5t33.5 -76.5h-144q-16 26 -18.5 54t-2.5 54q0 47 -5.5 81.5t-20.5 57t-41.5 33.5t-68.5 11h-178v-291h-132v714zM205 393
h199q116 0 116 108q0 33 -9.5 53.5t-26 31.5t-38 15t-44.5 4h-197v-212zM391 776h-113l-111 150h99l68 -86l70 86h100z" />
    <glyph glyph-name="rcaron" unicode="&#x159;" horiz-adv-x="352" 
d="M57 517h113l2 -81q8 19 23 36t34 30t41.5 21t46.5 8q14 0 22 -0.5t13 -1.5q2 0 5.5 -0.5t5.5 -0.5v-117q-29 6 -52 6q-28 0 -52.5 -11.5t-42.5 -33t-28.5 -53.5t-10.5 -73v-246h-120v517zM266 582h-113l-111 150h99l68 -86l70 86h100z" />
    <glyph glyph-name="Sacute" unicode="&#x15a;" horiz-adv-x="648" 
d="M162 243q0 -41 13.5 -69.5t37.5 -46.5t56 -26.5t68 -8.5q40 0 67.5 9t44.5 23.5t25 33t8 37.5q0 18 -5.5 33t-19 27t-37.5 22.5t-60 20.5l-115 30q-62 16 -99.5 37.5t-57 46.5t-25.5 52.5t-6 54.5q0 55 23 95t60 66t84 38.5t95 12.5q56 0 106 -15t87.5 -44.5t59.5 -73.5
t22 -101h-131q-5 68 -45.5 96.5t-103.5 28.5q-21 0 -43 -4t-40 -14.5t-30 -27.5t-12 -42q0 -35 26.5 -57t73.5 -33l124 -33q60 -15 99 -34t61.5 -43t31.5 -55t9 -70q0 -61 -24.5 -104t-64.5 -70t-91.5 -39.5t-104.5 -12.5q-61 0 -115 15t-94.5 47t-64.5 81t-25 117h132z
M363 926h146l-149 -150h-91z" />
    <glyph glyph-name="sacute" unicode="&#x15b;" horiz-adv-x="519" 
d="M150 171q3 -25 12.5 -41.5t24 -27t33.5 -15t41 -4.5q16 0 35 2t35.5 9t27.5 19t11 33q0 32 -31 46t-97 27l-35 7q-31 6 -61 16.5t-53.5 28t-38 44t-14.5 66.5q0 43 20.5 71.5t52.5 46t70.5 25t73.5 7.5q40 0 77 -9t66 -28.5t49 -51t25 -76.5h-124q-8 40 -36.5 54
t-64.5 14q-12 0 -27 -1.5t-28.5 -7t-23 -15t-9.5 -24.5q0 -16 11 -27.5t29.5 -19.5t42 -14t49.5 -11l30 -6q31 -6 61.5 -16.5t53.5 -27.5t37.5 -43t14.5 -65q0 -47 -21 -79t-54.5 -52.5t-74.5 -29.5t-81 -9q-49 0 -90.5 11.5t-72 34.5t-48 57.5t-18.5 81.5h120zM279 732h146
l-149 -150h-91z" />
    <glyph glyph-name="Scircumflex" unicode="&#x15c;" horiz-adv-x="648" 
d="M162 243q0 -41 13.5 -69.5t37.5 -46.5t56 -26.5t68 -8.5q40 0 67.5 9t44.5 23.5t25 33t8 37.5q0 18 -5.5 33t-19 27t-37.5 22.5t-60 20.5l-115 30q-62 16 -99.5 37.5t-57 46.5t-25.5 52.5t-6 54.5q0 55 23 95t60 66t84 38.5t95 12.5q56 0 106 -15t87.5 -44.5t59.5 -73.5
t22 -101h-131q-5 68 -45.5 96.5t-103.5 28.5q-21 0 -43 -4t-40 -14.5t-30 -27.5t-12 -42q0 -35 26.5 -57t73.5 -33l124 -33q60 -15 99 -34t61.5 -43t31.5 -55t9 -70q0 -61 -24.5 -104t-64.5 -70t-91.5 -39.5t-104.5 -12.5q-61 0 -115 15t-94.5 47t-64.5 81t-25 117h132z
M261 776h-99l111 150h113l113 -150h-100l-70 87z" />
    <glyph glyph-name="scircumflex" unicode="&#x15d;" horiz-adv-x="519" 
d="M150 171q3 -25 12.5 -41.5t24 -27t33.5 -15t41 -4.5q16 0 35 2t35.5 9t27.5 19t11 33q0 32 -31 46t-97 27l-35 7q-31 6 -61 16.5t-53.5 28t-38 44t-14.5 66.5q0 43 20.5 71.5t52.5 46t70.5 25t73.5 7.5q40 0 77 -9t66 -28.5t49 -51t25 -76.5h-124q-8 40 -36.5 54
t-64.5 14q-12 0 -27 -1.5t-28.5 -7t-23 -15t-9.5 -24.5q0 -16 11 -27.5t29.5 -19.5t42 -14t49.5 -11l30 -6q31 -6 61.5 -16.5t53.5 -27.5t37.5 -43t14.5 -65q0 -47 -21 -79t-54.5 -52.5t-74.5 -29.5t-81 -9q-49 0 -90.5 11.5t-72 34.5t-48 57.5t-18.5 81.5h120zM197 582h-99
l111 150h113l113 -150h-100l-70 87z" />
    <glyph glyph-name="Scedilla" unicode="&#x15e;" horiz-adv-x="648" 
d="M215 -148q20 -9 35.5 -13.5t31.5 -4.5q19 0 37.5 6.5t18.5 29.5q0 17 -13 25.5t-29 8.5q-23 0 -39 -11l-26 23l51 69q-19 2 -35.5 5t-32.5 8q-39 11 -72.5 32t-58 52t-38.5 71t-15 90h132q0 -41 13.5 -69.5t37.5 -46.5t56 -26.5t68 -8.5q40 0 67.5 9t44.5 23.5t25 33
t8 37.5q0 37 -17.5 56t-37.5 27q-25 9 -54.5 17t-66.5 17l-90 24q-44 13 -74 33t-49 44t-27.5 51.5t-8.5 54.5q0 55 23 95t60 66t84 38.5t95 12.5q56 0 106 -15t87.5 -44.5t59.5 -73.5t22 -101h-131q-5 68 -45.5 96.5t-103.5 28.5q-21 0 -43 -4t-40 -14.5t-30 -27.5t-12 -42
q0 -35 22.5 -55.5t58.5 -31.5l27 -7l177 -47q35 -11 61 -30t43.5 -44t26.5 -53t9 -57q0 -44 -14.5 -79.5t-39 -62t-57.5 -44.5t-70 -27q-46 -12 -96 -13l-11.5 -16t-12.5 -15q4 1 11 1h13q15 0 31 -5t28.5 -14.5t20.5 -24.5t8 -35q0 -26 -11 -44t-28.5 -29.5t-40 -16.5
t-44.5 -5q-29 0 -56.5 6t-50.5 19z" />
    <glyph glyph-name="scedilla" unicode="&#x15f;" horiz-adv-x="519" 
d="M154 -148q37 -17 66 -17q9 0 19 1t18.5 5t13.5 11t5 19q0 17 -13 25t-29 8q-11 0 -20.5 -2t-18.5 -8l-26 22l54 71l-29 4t-26 6q-62 17 -99 60t-39 114h120q3 -25 12.5 -41.5t24 -27t33.5 -15t41 -4.5q16 0 35.5 2t36 9t27.5 19t10 33q-1 16 -13 27.5t-30 20t-40.5 14.5
t-44.5 11q-9 2 -17.5 3.5t-17.5 3.5q-31 7 -61 17t-53.5 27.5t-38 44t-14.5 66.5q0 43 20.5 71.5t52.5 46t70.5 25t73.5 7.5q40 0 77 -9t66 -28.5t49 -51t25 -76.5h-124q-8 40 -36.5 54t-64.5 14q-12 0 -27 -1.5t-28.5 -7t-23 -15t-9.5 -24.5q0 -16 11 -27t29.5 -19.5
t42 -14l49.5 -11.5l30 -6q31 -7 61.5 -17t53.5 -27t37.5 -43t14.5 -65q0 -35 -12 -61.5t-33 -46.5t-48 -33t-57 -20q-15 -4 -32 -5.5t-31 -2.5q-7 -9 -12 -17t-13 -18q4 1 10.5 1h12.5q15 0 30.5 -4.5t28 -14.5t20.5 -24.5t8 -34.5q0 -26 -11 -44t-28.5 -29.5t-39.5 -16.5
t-44 -5q-29 0 -56.5 6t-50.5 19z" />
    <glyph glyph-name="Scaron" unicode="&#x160;" horiz-adv-x="648" 
d="M162 243q0 -41 13.5 -69.5t37.5 -46.5t56 -26.5t68 -8.5q40 0 67.5 9t44.5 23.5t25 33t8 37.5q0 18 -5.5 33t-19 27t-37.5 22.5t-60 20.5l-115 30q-62 16 -99.5 37.5t-57 46.5t-25.5 52.5t-6 54.5q0 55 23 95t60 66t84 38.5t95 12.5q56 0 106 -15t87.5 -44.5t59.5 -73.5
t22 -101h-131q-5 68 -45.5 96.5t-103.5 28.5q-21 0 -43 -4t-40 -14.5t-30 -27.5t-12 -42q0 -35 26.5 -57t73.5 -33l124 -33q60 -15 99 -34t61.5 -43t31.5 -55t9 -70q0 -61 -24.5 -104t-64.5 -70t-91.5 -39.5t-104.5 -12.5q-61 0 -115 15t-94.5 47t-64.5 81t-25 117h132z
M383 776h-113l-111 150h99l68 -86l70 86h100z" />
    <glyph glyph-name="scaron" unicode="&#x161;" horiz-adv-x="519" 
d="M150 171q3 -25 12.5 -41.5t24 -27t33.5 -15t41 -4.5q16 0 35 2t35.5 9t27.5 19t11 33q0 32 -31 46t-97 27l-35 7q-31 6 -61 16.5t-53.5 28t-38 44t-14.5 66.5q0 43 20.5 71.5t52.5 46t70.5 25t73.5 7.5q40 0 77 -9t66 -28.5t49 -51t25 -76.5h-124q-8 40 -36.5 54
t-64.5 14q-12 0 -27 -1.5t-28.5 -7t-23 -15t-9.5 -24.5q0 -16 11 -27.5t29.5 -19.5t42 -14t49.5 -11l30 -6q31 -6 61.5 -16.5t53.5 -27.5t37.5 -43t14.5 -65q0 -47 -21 -79t-54.5 -52.5t-74.5 -29.5t-81 -9q-49 0 -90.5 11.5t-72 34.5t-48 57.5t-18.5 81.5h120zM319 582
h-113l-111 150h99l68 -86l70 86h100z" />
    <glyph glyph-name="Tcommaaccent" unicode="&#x162;" horiz-adv-x="593" 
d="M6 714h579v-115h-224v-599h-132v599h-223v115zM226 -41h137v-92q0 -16 -5.5 -31t-19 -27t-37 -20t-60.5 -9v46q35 4 43 27h-58v106z" />
    <glyph glyph-name="tcommaaccent" unicode="&#x163;" horiz-adv-x="333" 
d="M99 -148q37 -17 66 -17q9 0 19 1t18.5 5t13.5 11t5 19q0 17 -13 25t-29 8q-11 0 -20.5 -2t-18.5 -8l-26 22l69 92h56l-42 -56q4 1 10.5 1h12.5q15 0 30.5 -4.5t28 -14.5t20.5 -24.5t8 -34.5q0 -26 -11 -44t-28.5 -29.5t-39.5 -16.5t-44 -5q-29 0 -56.5 6t-50.5 19zM6 521
h85v153h120v-153h101v-92h-101v-267q0 -17 1.5 -29t6.5 -20.5t15 -12.5t27 -4q12 0 24.5 0.5t26.5 4.5v-96l-36.5 -4t-39.5 -2q-46 0 -74 8.5t-43.5 25.5t-21 42t-6.5 58v296h-85v92z" />
    <glyph glyph-name="Tcaron" unicode="&#x164;" horiz-adv-x="593" 
d="M6 714h579v-115h-224v-599h-132v599h-223v115zM353 776h-113l-111 150h99l68 -86l70 86h100z" />
    <glyph glyph-name="tcaron" unicode="&#x165;" horiz-adv-x="391" 
d="M329 711h132l-84 -149h-82zM5 517h85v153h120v-153h101v-92h-101v-267q0 -17 1.5 -29t6.5 -20.5t15 -12.5t27 -4q12 0 24.5 0.5t26.5 4.5v-96l-36.5 -4t-39.5 -2q-46 0 -74 8.5t-43.5 25.5t-21 42t-6.5 58v296h-85v92z" />
    <glyph glyph-name="Tbar" unicode="&#x166;" horiz-adv-x="593" 
d="M6 714h579v-115h-224v-128h162v-72h-162v-399h-132v399h-157v72h157v128h-223v115z" />
    <glyph glyph-name="tbar" unicode="&#x167;" horiz-adv-x="333" 
d="M5 517h85v153h120v-153h101v-92h-101v-76h110v-72h-110v-119q0 -17 1.5 -29t6.5 -20.5t15 -12.5t27 -4q12 0 24.5 0.5t26.5 4.5v-96l-36.5 -4t-39.5 -2q-46 0 -74 8.5t-43.5 25.5t-21 42t-6.5 58v148h-93v72h93v76h-85v92z" />
    <glyph glyph-name="Utilde" unicode="&#x168;" horiz-adv-x="722" 
d="M65 714h132v-415q0 -35 3.5 -70.5t19 -64.5t48 -47.5t91.5 -18.5q58 0 91 18.5t48.5 47.5t19 64.5t3.5 70.5v415h132v-456q0 -69 -21 -120.5t-60 -86t-93 -51.5t-120 -17t-120 17t-93 51.5t-60 86t-21 120.5v456zM542 914q-4 -26 -12 -48.5t-22 -38.5
q-13 -16 -32.5 -25.5t-47.5 -9.5q-17 0 -37.5 5.5t-38.5 13.5q-20 8 -35 13t-30 5q-31 0 -39 -41h-65q3 21 11.5 42t22 38.5t32 28.5t42.5 11q20 0 36 -3.5t46 -16.5q21 -9 34 -13.5t26 -4.5q20 0 30.5 12t15.5 32h63z" />
    <glyph glyph-name="utilde" unicode="&#x169;" horiz-adv-x="574" 
d="M512 0h-118l-2 59q-23 -34 -61.5 -53.5t-79.5 -19.5q-103 0 -148.5 50.5t-45.5 153.5v327h120v-316q0 -65 25 -91.5t69 -26.5q34 0 57 10.5t37.5 28.5t20.5 42.5t6 53.5v299h120v-517zM467 720q-4 -26 -12 -48.5t-22 -38.5q-13 -16 -32.5 -25.5t-47.5 -9.5
q-17 0 -37.5 5.5t-38.5 13.5q-20 8 -35 13t-30 5q-31 0 -39 -41h-65q3 21 11.5 42t22 38.5t32 28.5t42.5 11q20 0 36 -3.5t46 -16.5q21 -9 34 -13.5t26 -4.5q20 0 30.5 12t15.5 32h63z" />
    <glyph glyph-name="Umacron" unicode="&#x16a;" horiz-adv-x="722" 
d="M65 714h132v-415q0 -35 3.5 -70.5t19 -64.5t48 -47.5t91.5 -18.5q58 0 91 18.5t48.5 47.5t19 64.5t3.5 70.5v415h132v-456q0 -69 -21 -120.5t-60 -86t-93 -51.5t-120 -17t-120 17t-93 51.5t-60 86t-21 120.5v456zM215 811v72h293v-72h-293z" />
    <glyph glyph-name="umacron" unicode="&#x16b;" horiz-adv-x="574" 
d="M512 0h-118l-2 59q-23 -34 -61.5 -53.5t-79.5 -19.5q-103 0 -148.5 50.5t-45.5 153.5v327h120v-316q0 -65 25 -91.5t69 -26.5q34 0 57 10.5t37.5 28.5t20.5 42.5t6 53.5v299h120v-517zM145 617v72h293v-72h-293z" />
    <glyph glyph-name="Ubreve" unicode="&#x16c;" horiz-adv-x="722" 
d="M65 714h132v-415q0 -35 3.5 -70.5t19 -64.5t48 -47.5t91.5 -18.5q58 0 91 18.5t48.5 47.5t19 64.5t3.5 70.5v415h132v-456q0 -69 -21 -120.5t-60 -86t-93 -51.5t-120 -17t-120 17t-93 51.5t-60 86t-21 120.5v456zM262 925q8 -42 36.5 -58.5t66.5 -16.5q37 0 63 18.5
t34 56.5h63q-8 -75 -53 -111.5t-115 -36.5t-111.5 38t-47.5 110h64z" />
    <glyph glyph-name="ubreve" unicode="&#x16d;" horiz-adv-x="574" 
d="M512 0h-118l-2 59q-23 -34 -61.5 -53.5t-79.5 -19.5q-103 0 -148.5 50.5t-45.5 153.5v327h120v-316q0 -65 25 -91.5t69 -26.5q34 0 57 10.5t37.5 28.5t20.5 42.5t6 53.5v299h120v-517zM192 731q8 -42 36.5 -58.5t66.5 -16.5q37 0 63 18.5t34 56.5h63q-8 -75 -53 -111.5
t-115 -36.5t-111.5 38t-47.5 110h64z" />
    <glyph glyph-name="Uring" unicode="&#x16e;" horiz-adv-x="722" 
d="M65 714h132v-415q0 -35 3.5 -70.5t19 -64.5t48 -47.5t91.5 -18.5q58 0 91 18.5t48.5 47.5t19 64.5t3.5 70.5v415h132v-456q0 -69 -21 -120.5t-60 -86t-93 -51.5t-120 -17t-120 17t-93 51.5t-60 86t-21 120.5v456zM307 820q0 -24 16 -40t39 -16q25 0 40.5 16t15.5 40
q0 26 -15.5 41.5t-40.5 15.5q-23 0 -39 -15.5t-16 -41.5zM362 715q-44 0 -75 29t-31 76q0 24 8.5 43.5t23.5 33.5t34 21.5t40 7.5q22 0 41.5 -7.5t34 -21.5t23 -33.5t8.5 -43.5q0 -23 -8.5 -42.5t-23 -33.5t-34 -21.5t-41.5 -7.5z" />
    <glyph glyph-name="uring" unicode="&#x16f;" horiz-adv-x="574" 
d="M512 0h-118l-2 59q-23 -34 -61.5 -53.5t-79.5 -19.5q-103 0 -148.5 50.5t-45.5 153.5v327h120v-316q0 -65 25 -91.5t69 -26.5q34 0 57 10.5t37.5 28.5t20.5 42.5t6 53.5v299h120v-517zM236 670q0 -24 16 -40t39 -16q25 0 40.5 16t15.5 40q0 26 -15.5 41.5t-40.5 15.5
q-23 0 -39 -15.5t-16 -41.5zM291 565q-44 0 -75 29t-31 76q0 24 8.5 43.5t23.5 33.5t34 21.5t40 7.5q22 0 41.5 -7.5t34 -21.5t23 -33.5t8.5 -43.5q0 -23 -8.5 -42.5t-23 -33.5t-34 -21.5t-41.5 -7.5z" />
    <glyph glyph-name="Uhungarumlaut" unicode="&#x170;" horiz-adv-x="722" 
d="M65 714h132v-415q0 -35 3.5 -70.5t19 -64.5t48 -47.5t91.5 -18.5q58 0 91 18.5t48.5 47.5t19 64.5t3.5 70.5v415h132v-456q0 -69 -21 -120.5t-60 -86t-93 -51.5t-120 -17t-120 17t-93 51.5t-60 86t-21 120.5v456zM505 926h147l-151 -150h-90zM308 926h147l-151 -150h-90z
" />
    <glyph glyph-name="uhungarumlaut" unicode="&#x171;" horiz-adv-x="574" 
d="M512 0h-118l-2 59q-23 -34 -61.5 -53.5t-79.5 -19.5q-103 0 -148.5 50.5t-45.5 153.5v327h120v-316q0 -65 25 -91.5t69 -26.5q34 0 57 10.5t37.5 28.5t20.5 42.5t6 53.5v299h120v-517zM430 732h147l-151 -150h-90zM233 732h147l-151 -150h-90z" />
    <glyph glyph-name="Uogonek" unicode="&#x172;" horiz-adv-x="722" 
d="M65 714h132v-415q0 -35 3.5 -70.5t19 -64.5t48 -47.5t91.5 -18.5q58 0 91 18.5t48.5 47.5t19 64.5t3.5 70.5v415h132v-456q0 -50 -13 -91t-36 -73.5t-55 -56t-70 -37.5q-17 -6 -38 -9.5t-42 -5.5l-25 -23q-27 -26 -36.5 -46t-9.5 -40q0 -18 10.5 -28.5t24.5 -10.5t25.5 7
t24.5 27l47 -10q-6 -24 -18.5 -40t-27.5 -25.5t-31.5 -13t-31.5 -3.5q-8 0 -25 2t-34.5 11.5t-31 28t-13.5 51.5q0 13 7.5 35t42.5 54l28 23q-21 2 -44 6t-42 10q-81 26 -127.5 90.5t-46.5 167.5v456z" />
    <glyph glyph-name="uogonek" unicode="&#x173;" horiz-adv-x="574" 
d="M450 0q-25 -21 -41.5 -38t-26 -31t-13.5 -27t-4 -27q0 -19 9.5 -29t22.5 -10q14 0 24.5 6.5t22.5 27.5l45 -11q-5 -24 -16.5 -39.5t-26 -24.5t-30.5 -13t-30 -4q-7 0 -23 2t-32.5 11.5t-29.5 28t-13 51.5q0 8 1.5 20.5t11.5 29t31.5 37.5t61.5 46q0 17 -1 26t-1 27
q-23 -34 -61.5 -53.5t-79.5 -19.5q-103 0 -148.5 50.5t-45.5 153.5v327h120v-316q0 -65 25 -91.5t69 -26.5q34 0 57 10.5t37.5 28.5t20.5 42.5t6 53.5v299h120v-517h-62z" />
    <glyph glyph-name="Wcircumflex" unicode="&#x174;" horiz-adv-x="944" 
d="M4 714h133l127 -526l139 526h133l137 -526l129 526h133l-197 -714h-131l-141 528l-70.5 -264l-70.5 -264h-134zM403 776h-99l111 150h113l113 -150h-100l-70 87z" />
    <glyph glyph-name="wcircumflex" unicode="&#x175;" horiz-adv-x="778" 
d="M10 517h128l98 -367l93 367h119l92 -367l99 367h123l-162 -517h-121l-94 363l-45 -181.5l-46 -181.5h-124zM325 582h-99l111 150h113l113 -150h-100l-70 87z" />
    <glyph glyph-name="Ycircumflex" unicode="&#x176;" horiz-adv-x="648" 
d="M257 281l-268 433h152l185 -313l91 156l91 157h147l-267 -433v-281h-131v281zM261 776h-99l111 150h113l113 -150h-100l-70 87z" />
    <glyph glyph-name="ycircumflex" unicode="&#x177;" horiz-adv-x="519" 
d="M-1 517h132l132 -370l126 370h126l-200 -542q-14 -37 -29 -69.5t-35.5 -56.5t-49 -37.5t-70.5 -13.5q-43 0 -82 6v102q13 -3 31 -4.5t26 -1.5q18 0 30 5t20.5 14t14 21.5t10.5 27.5l13 38zM194 582h-99l111 150h113l113 -150h-100l-70 87z" />
    <glyph glyph-name="Ydieresis" unicode="&#x178;" horiz-adv-x="648" 
d="M257 281l-268 433h152l185 -313l91 156l91 157h147l-267 -433v-281h-131v281zM183 789v115h121v-115h-121zM474 904v-115h-121v115h121z" />
    <glyph glyph-name="Zacute" unicode="&#x179;" horiz-adv-x="630" 
d="M52 714h545v-100l-407 -499h417v-115h-586v107l407 492h-376v115zM357 926h146l-149 -150h-91z" />
    <glyph glyph-name="zacute" unicode="&#x17a;" horiz-adv-x="500" 
d="M39 517h422v-85l-288 -335h303v-97h-456v85l276 335h-257v97zM292 732h146l-149 -150h-91z" />
    <glyph glyph-name="Zdotaccent" unicode="&#x17b;" horiz-adv-x="630" 
d="M52 714h545v-100l-407 -499h417v-115h-586v107l407 492h-376v115zM262 789v115h121v-115h-121z" />
    <glyph glyph-name="zdotaccent" unicode="&#x17c;" horiz-adv-x="500" 
d="M39 517h422v-85l-288 -335h303v-97h-456v85l276 335h-257v97zM191 595v115h121v-115h-121z" />
    <glyph glyph-name="Zcaron" unicode="&#x17d;" horiz-adv-x="630" 
d="M52 714h545v-100l-407 -499h417v-115h-586v107l407 492h-376v115zM378 776h-113l-111 150h99l68 -86l70 86h100z" />
    <glyph glyph-name="zcaron" unicode="&#x17e;" horiz-adv-x="500" 
d="M39 517h422v-85l-288 -335h303v-97h-456v85l276 335h-257v97zM308 582h-113l-111 150h99l68 -86l70 86h100z" />
    <glyph glyph-name="uni017F.longs" unicode="&#x17f;" horiz-adv-x="315" 
d="M6 517h84v38q0 50 12 80.5t32.5 47.5t46.5 22.5t54 5.5q27 0 47.5 -1.5t34.5 -6.5v-95q-12 4 -25 5t-31 1q-21 0 -36 -9.5t-15 -39.5v-565h-120v425h-84v92z" />
    <glyph glyph-name="uni018F.Schwa" unicode="&#x18f;" horiz-adv-x="760" 
d="M378 731q80 0 143.5 -30t107.5 -81t67.5 -119t23.5 -144q0 -77 -23.5 -145t-67.5 -119t-107.5 -80.5t-143.5 -29.5t-143.5 29.5t-107.5 80.5t-67.5 119t-23.5 145q0 12 0.5 25.5t1.5 24.5h548q-5 43 -20 82t-40.5 68.5t-62 47t-85.5 17.5q-72 0 -117.5 -36.5t-68.5 -93.5
h-136q17 52 46.5 96t70.5 75.5t92.5 49.5t112.5 18zM378 92q46 0 81.5 16t60.5 44t40.5 64t22.5 77h-411q7 -41 22.5 -77t40.5 -64t60.5 -44t82.5 -16z" />
    <glyph glyph-name="florin" unicode="&#x192;" 
d="M128 439h90q7 41 15 81.5l16 81.5q18 67 64 96.5t113 29.5q35 0 77 -6l-19 -97q-26 6 -43 6q-38 0 -54 -16t-24 -53l-23 -123h100l-17 -91h-100l-71 -373q-6 -29 -22 -54.5t-38.5 -45t-51 -31t-60.5 -11.5q-18 0 -38.5 1.5t-44.5 3.5l17 97q27 -6 50 -6q25 0 41 10t23 42
l73 367h-90z" />
    <glyph glyph-name="uni01A0.OHorn" unicode="&#x1a0;" horiz-adv-x="854" 
d="M702 486q9 -35 14 -61.5t5 -67.5q0 -77 -23.5 -145t-68 -119t-108 -80.5t-143.5 -29.5t-143 29.5t-107.5 80.5t-68 119t-23.5 145q0 76 23.5 144t68 119t107.5 81t143 30q47 0 82 -8t63 -22t50.5 -32.5l45.5 -38.5l22.5 -21.5t21 -19t22.5 -13.5t27 -5q17 0 28.5 7
t18.5 18t10 24.5t3 27.5q0 29 -10.5 55t-26.5 49l1 2h97q14 -17 24.5 -43.5t10.5 -64.5q0 -36 -10.5 -64t-28 -47.5t-39 -30t-43.5 -10.5q-24 0 -35 4.5t-16 9.5l-3 -1l3 -6q2 -3 3 -7t3 -8zM378 622q-56 0 -95.5 -22.5t-65 -59.5t-37.5 -85t-12 -98t12 -98t37.5 -85
t65 -59.5t95.5 -22.5t96 22.5t65.5 59.5t37.5 85t12 98t-12 98t-37.5 85t-65.5 59.5t-96 22.5z" />
    <glyph glyph-name="uni01A1.oHorn" unicode="&#x1a1;" horiz-adv-x="685" 
d="M542 357q5 -17 9.5 -44.5t4.5 -53.5q0 -60 -17.5 -110t-51 -86t-82 -56.5t-110.5 -20.5t-110.5 20.5t-82 56.5t-51 86t-17.5 110q0 59 17.5 109t51 86t82 56.5t110.5 20.5q56 0 101 -16.5t78 -47.5q22 -19 39.5 -36t44.5 -17q29 0 40.5 21.5t11.5 45.5q0 25 -9 48t-23 43
l1 2h85q11 -15 20.5 -38.5t9.5 -56.5q0 -31 -9.5 -55.5t-24.5 -42t-34 -26.5t-38 -9q-21 0 -30.5 3.5t-13.5 8.5zM295 83q37 0 63.5 15.5t43.5 40t25.5 56t8.5 64.5q0 32 -8.5 63.5t-25.5 56t-43.5 40t-63.5 15.5q-36 0 -62.5 -15.5t-44 -40t-25.5 -56t-8 -63.5
q0 -33 8 -64.5t25.5 -56t44 -40t62.5 -15.5z" />
    <glyph glyph-name="uni01A2.OI" unicode="&#x1a2;" horiz-adv-x="855" 
d="M781 -189h-132v794h-87v-605h-211q-83 0 -142.5 28t-97.5 76.5t-56.5 113.5t-18.5 139t18.5 139t56.5 113.5t97.5 76.5t142.5 28h430v-903zM430 605h-31q-72 0 -117 -19t-70.5 -52.5t-35 -79t-9.5 -97.5q0 -53 9.5 -98t35 -78.5t70.5 -52.5t117 -19h31v496z" />
    <glyph glyph-name="uni01A3.oi" unicode="&#x1a3;" horiz-adv-x="701" 
d="M287 0q-66 0 -114 20.5t-78.5 55.5t-45.5 82t-15 100q0 54 15 101t45.5 82t78.5 55.5t114 20.5h347v-705h-120v624h-62v-436h-165zM155 258q0 -38 7 -70t26 -56t52.5 -37.5t86.5 -13.5h4v355h-4q-53 0 -86.5 -13.5t-52.5 -37.5t-26 -56.5t-7 -70.5z" />
    <glyph glyph-name="uni01AF.UHorn" unicode="&#x1af;" horiz-adv-x="826" 
d="M731 494q-31 0 -51.5 10.5t-27.5 23.5h-1l2 -20v-250q0 -69 -21 -120.5t-59.5 -86t-92.5 -51.5t-120 -17t-120 17t-93 51.5t-60 86t-21 120.5v456h131v-415q0 -35 3.5 -70.5t19 -64.5t48.5 -47.5t92 -18.5q58 0 91 18.5t48.5 47.5t19 64.5t3.5 70.5v415h131v-70
q0 -31 13 -52t45 -21q17 0 29 7t19 18t10 24.5t3 27.5q0 29 -10.5 55t-26.5 49l1 2h97q14 -17 24.5 -43t10.5 -58q0 -38 -12 -68t-31.5 -50t-44 -30.5t-49.5 -10.5z" />
    <glyph glyph-name="uni01B0.uHorn" unicode="&#x1b0;" horiz-adv-x="678" 
d="M513 330v-330h-118l-2 59q-23 -34 -61.5 -53.5t-79.5 -19.5q-103 0 -148.5 50.5t-45.5 153.5v327h120v-316q0 -65 25 -91.5t69 -26.5q34 0 57 10.5t37 28.5t20.5 42.5t6.5 53.5v299h120v-68q0 -27 11 -45.5t40 -18.5q30 0 41.5 21.5t11.5 45.5q0 25 -9 48t-23 43l1 2h85
q12 -15 21.5 -37.5t9.5 -51.5q0 -33 -10.5 -59t-28 -44t-39 -27t-43.5 -9q-27 0 -44.5 10t-24.5 23h-1z" />
    <glyph glyph-name="uni01B5.ZStroke" unicode="&#x1b5;" horiz-adv-x="630" 
d="M62 413h212l76.5 93l76.5 93h-375v115h545v-100l-163 -201h111v-114h-205l-149 -184h416v-115h-586v107l158 192h-117v114z" />
    <glyph glyph-name="uni01B6.zStroke" unicode="&#x1b6;" horiz-adv-x="500" 
d="M48 313h160l89 107h-258v97h422v-85l-103 -119h86v-98h-169l-50 -59.5l-51 -58.5h302v-97h-456v85l106 130h-78v98z" />
    <glyph glyph-name="clickdental" unicode="&#x1c0;" horiz-adv-x="222" 
d="M56 785h109v-997h-109v997z" />
    <glyph glyph-name="clicklateral" unicode="&#x1c1;" horiz-adv-x="444" 
d="M56 785h109v-997h-109v997zM278 785h109v-997h-109v997z" />
    <glyph glyph-name="clickretroflex" unicode="&#x1c3;" horiz-adv-x="278" 
d="M68 132h140v-132h-140v132zM73 714h131v-208l-32 -309h-66l-33 309v208z" />
    <glyph glyph-name="DZcaron" unicode="&#x1c4;" horiz-adv-x="1352" 
d="M73 714h297q83 0 142.5 -28t98 -76.5t56.5 -113.5t18 -139t-18 -139t-56.5 -113.5t-98 -76.5t-142.5 -28h-297v714zM205 109h118q71 0 116 19t70.5 52.5t35 78.5t9.5 98q0 52 -9.5 97.5t-35 79t-70.5 52.5t-116 19h-118v-496zM774 714h545v-100l-407 -499h417v-115h-586
v107l407 492h-376v115zM1092 757h-113l-111 150h99l68 -86l70 86h100z" />
    <glyph glyph-name="Dzcaron" unicode="&#x1c5;" horiz-adv-x="1222" 
d="M73 714h297q83 0 142.5 -28t98 -76.5t56.5 -113.5t18 -139t-18 -139t-56.5 -113.5t-98 -76.5t-142.5 -28h-297v714zM205 109h118q71 0 116 19t70.5 52.5t35 78.5t9.5 98q0 52 -9.5 97.5t-35 79t-70.5 52.5t-116 19h-118v-496zM761 517h422v-85l-288 -335h303v-97h-456v85
l276 335h-257v97zM1026 560h-113l-111 150h99l68 -86l70 86h100z" />
    <glyph glyph-name="dzcaron" unicode="&#x1c6;" horiz-adv-x="1111" 
d="M545 0h-114l-2 57q-25 -39 -66.5 -55t-87.5 -16q-61 0 -106.5 21.5t-75.5 58.5t-45 87.5t-15 108.5q0 70 19 121t50.5 84t72 48.5t82.5 15.5q45 0 91.5 -18.5t76.5 -54.5v253h120v-711zM153 253q0 -32 8 -62.5t25 -54.5t42.5 -38.5t61.5 -14.5t62 15.5t43.5 40t25.5 56
t8 64.5q0 83 -37 129t-100 46q-39 0 -65.5 -16t-43 -41.5t-23.5 -58t-7 -65.5zM650 517h422v-85l-288 -335h303v-97h-456v85l276 335h-257v97zM915 560h-113l-111 150h99l68 -86l70 86h100z" />
    <glyph glyph-name="LJ" unicode="&#x1c7;" horiz-adv-x="1111" 
d="M73 714h132v-599h358v-115h-490v714zM1035 231q0 -47 -8 -91.5t-33 -79t-71.5 -56t-123.5 -21.5q-57 0 -97.5 17.5t-67 48.5t-38.5 73t-12 92v41h132v-40q0 -59 19.5 -91t73.5 -32q29 0 47.5 8.5t29 25.5t14.5 41.5t4 56.5v490h131v-483z" />
    <glyph glyph-name="Lj" unicode="&#x1c8;" horiz-adv-x="815" 
d="M73 714h132v-599h358v-115h-490v714zM633 711h120v-114h-120v114zM633 517h120v-556q0 -79 -34.5 -121t-115.5 -42q-17 0 -28.5 1t-25.5 4v97q14 -3 24 -4t18 -1q28 0 35 17.5t7 53.5v551z" />
    <glyph glyph-name="lj" unicode="&#x1c9;" horiz-adv-x="482" 
d="M59 711h120v-711h-120v711zM300 711h120v-114h-120v114zM300 517h120v-556q0 -79 -34.5 -121t-115.5 -42q-17 0 -28.5 1t-25.5 4v97q14 -3 24 -4t18 -1q28 0 35 17.5t7 53.5v551z" />
    <glyph glyph-name="NJ" unicode="&#x1ca;" horiz-adv-x="1259" 
d="M68 714h137l318 -511v511h126v-714h-137l-318 510v-510h-126v714zM1183 231q0 -47 -8 -91.5t-33 -79t-71.5 -56t-123.5 -21.5q-57 0 -97.5 17.5t-67 48.5t-38.5 73t-12 92v41h132v-40q0 -59 19.5 -91t73.5 -32q29 0 47.5 8.5t29 25.5t14.5 41.5t4 56.5v490h131v-483z" />
    <glyph glyph-name="Nj" unicode="&#x1cb;" horiz-adv-x="963" 
d="M68 714h137l318 -511v511h126v-714h-137l-318 510v-510h-126v714zM781 711h120v-114h-120v114zM781 517h120v-556q0 -79 -34.5 -121t-115.5 -42q-17 0 -28.5 1t-25.5 4v97q14 -3 24 -4t18 -1q28 0 35 17.5t7 53.5v551z" />
    <glyph glyph-name="nj" unicode="&#x1cc;" horiz-adv-x="815" 
d="M57 517h115l2 -68q26 38 66 60t88 22q85 0 134.5 -44t49.5 -133v-354h-120v324q-2 58 -24.5 84t-70.5 26q-27 0 -49.5 -10t-38 -27.5t-24 -41.5t-8.5 -51v-304h-120v517zM633 711h120v-114h-120v114zM633 517h120v-556q0 -79 -34.5 -121t-115.5 -42q-17 0 -28.5 1
t-25.5 4v97q14 -3 24 -4t18 -1q28 0 35 17.5t7 53.5v551z" />
    <glyph glyph-name="Acaron" unicode="&#x1cd;" horiz-adv-x="667" 
d="M263 714h137l275 -714h-141l-66 187h-276l-67 -187h-136zM228 289h204l-51.5 143.5l-51.5 143.5zM389 757h-113l-111 150h99l68 -86l70 86h100z" />
    <glyph glyph-name="acaron" unicode="&#x1ce;" 
d="M492 117q0 -18 4.5 -26t17.5 -8q9 0 17.5 0.5t14.5 1.5v-85q-14 -5 -37 -9.5t-38 -4.5q-34 0 -57 13t-32 45h-1q-34 -30 -81 -44t-92 -14q-35 0 -67.5 9.5t-57 28.5t-39 47.5t-14.5 67.5q0 49 17.5 79t46 47.5t64 25t71.5 12.5l54 6q20 3 37.5 6t30 9t20 16.5t7.5 28.5
q0 21 -10 34t-25 19.5t-32.5 9t-33.5 2.5q-46 0 -75 -19t-33 -61h-121q3 51 24.5 85t54 54.5t73.5 29t84 8.5q38 0 75 -8.5t66.5 -26.5t48 -47t18.5 -70v-262zM371 252q-19 -10 -43 -14.5t-47 -7.5l-42 -5q-18 -2 -34 -7t-28 -13.5t-19.5 -21.5t-7.5 -31q0 -21 10.5 -34.5
t25.5 -21t32 -10.5t31 -3q18 0 39.5 5t39.5 15.5t30.5 28t12.5 43.5v77zM345 574h-113l-111 150h99l68 -86l70 86h100z" />
    <glyph glyph-name="Icaron" unicode="&#x1cf;" horiz-adv-x="278" 
d="M72 714h131v-714h-131v714zM193 757h-113l-111 150h99l68 -86l70 86h100z" />
    <glyph glyph-name="icaron" unicode="&#x1d0;" horiz-adv-x="241" 
d="M59 0v517h120v-517h-120zM175 560h-113l-111 150h99l68 -86l70 86h100z" />
    <glyph glyph-name="Ocaron" unicode="&#x1d1;" horiz-adv-x="760" 
d="M378 622q-56 0 -95.5 -22.5t-65.5 -59.5t-38 -85t-12 -98t12 -98t38 -85t65.5 -59.5t95.5 -22.5q55 0 95 22.5t66 59.5t38 85t12 98t-12 98t-38 85t-66 59.5t-95 22.5zM378 731q80 0 143.5 -30t107.5 -81t67.5 -119t23.5 -144q0 -77 -23.5 -145t-67.5 -119t-107.5 -80.5
t-143.5 -29.5t-143.5 29.5t-107.5 80.5t-67.5 119t-23.5 145q0 76 23.5 144t67.5 119t107.5 81t143.5 30zM435 774h-113l-111 150h99l68 -86l70 86h100z" />
    <glyph glyph-name="ocaron" unicode="&#x1d2;" horiz-adv-x="593" 
d="M295 -14q-62 0 -110.5 20.5t-82 56.5t-51 86t-17.5 110q0 59 17.5 109t51 86t82 56.5t110.5 20.5t110.5 -20.5t82 -56.5t51 -86t17.5 -109q0 -60 -17.5 -110t-51 -86t-82 -56.5t-110.5 -20.5zM295 83q36 0 63 15.5t44 40t25.5 56t8.5 64.5q0 32 -8.5 63.5t-25.5 56
t-44 40t-63 15.5q-37 0 -63.5 -15.5t-44 -40t-25.5 -56t-8 -63.5q0 -33 8 -64.5t25.5 -56t44 -40t63.5 -15.5zM352 574h-113l-111 150h99l68 -86l70 86h100z" />
    <glyph glyph-name="Ucaron" unicode="&#x1d3;" horiz-adv-x="722" 
d="M65 714h132v-415q0 -35 3.5 -70.5t19 -64.5t48 -47.5t91.5 -18.5q58 0 91 18.5t48.5 47.5t19 64.5t3.5 70.5v415h132v-456q0 -69 -21 -120.5t-60 -86t-93 -51.5t-120 -17t-120 17t-93 51.5t-60 86t-21 120.5v456zM416 757h-113l-111 150h99l68 -86l70 86h100z" />
    <glyph glyph-name="ucaron" unicode="&#x1d4;" horiz-adv-x="574" 
d="M512 0h-118l-2 59q-23 -34 -61.5 -53.5t-79.5 -19.5q-103 0 -148.5 50.5t-45.5 153.5v327h120v-316q0 -65 25 -91.5t69 -26.5q34 0 57 10.5t37.5 28.5t20.5 42.5t6 53.5v299h120v-517zM342 560h-113l-111 150h99l68 -86l70 86h100z" />
    <glyph glyph-name="Udieresismacron" unicode="&#x1d5;" horiz-adv-x="722" 
d="M65 714h132v-415q0 -35 3.5 -70.5t19 -64.5t48 -47.5t91.5 -18.5q58 0 91 18.5t48.5 47.5t19 64.5t3.5 70.5v415h132v-456q0 -69 -21 -120.5t-60 -86t-93 -51.5t-120 -17t-120 17t-93 51.5t-60 86t-21 120.5v456zM215 757v115h121v-115h-121zM506 872v-115h-121v115h121z
M214 915v72h293v-72h-293z" />
    <glyph glyph-name="udieresismacron" unicode="&#x1d6;" horiz-adv-x="574" 
d="M512 0h-118l-2 59q-23 -34 -61.5 -53.5t-79.5 -19.5q-103 0 -148.5 50.5t-45.5 153.5v327h120v-316q0 -65 25 -91.5t69 -26.5q34 0 57 10.5t37.5 28.5t20.5 42.5t6 53.5v299h120v-517zM141 560v115h121v-115h-121zM432 675v-115h-121v115h121zM140 718v72h293v-72h-293z
" />
    <glyph glyph-name="Udieresisacute" unicode="&#x1d7;" horiz-adv-x="722" 
d="M65 714h132v-415q0 -35 3.5 -70.5t19 -64.5t48 -47.5t91.5 -18.5q58 0 91 18.5t48.5 47.5t19 64.5t3.5 70.5v415h132v-456q0 -69 -21 -120.5t-60 -86t-93 -51.5t-120 -17t-120 17t-93 51.5t-60 86t-21 120.5v456zM215 757v115h121v-115h-121zM506 872v-115h-121v115h121z
M398 1065h146l-149 -150h-91z" />
    <glyph glyph-name="udieresisacute" unicode="&#x1d8;" horiz-adv-x="574" 
d="M512 0h-118l-2 59q-23 -34 -61.5 -53.5t-79.5 -19.5q-103 0 -148.5 50.5t-45.5 153.5v327h120v-316q0 -65 25 -91.5t69 -26.5q34 0 57 10.5t37.5 28.5t20.5 42.5t6 53.5v299h120v-517zM141 560v115h121v-115h-121zM432 675v-115h-121v115h121zM322 871h146l-149 -150h-91
z" />
    <glyph glyph-name="Udieresiscaron" unicode="&#x1d9;" horiz-adv-x="722" 
d="M65 714h132v-415q0 -35 3.5 -70.5t19 -64.5t48 -47.5t91.5 -18.5q58 0 91 18.5t48.5 47.5t19 64.5t3.5 70.5v415h132v-456q0 -69 -21 -120.5t-60 -86t-93 -51.5t-120 -17t-120 17t-93 51.5t-60 86t-21 120.5v456zM215 757v115h121v-115h-121zM506 872v-115h-121v115h121z
M416 915h-113l-111 150h99l68 -86l70 86h100z" />
    <glyph glyph-name="udieresiscaron" unicode="&#x1da;" horiz-adv-x="574" 
d="M512 0h-118l-2 59q-23 -34 -61.5 -53.5t-79.5 -19.5q-103 0 -148.5 50.5t-45.5 153.5v327h120v-316q0 -65 25 -91.5t69 -26.5q34 0 57 10.5t37.5 28.5t20.5 42.5t6 53.5v299h120v-517zM141 560v115h121v-115h-121zM432 675v-115h-121v115h121zM342 718h-113l-111 150h99
l68 -86l70 86h100z" />
    <glyph glyph-name="Udieresisgrave" unicode="&#x1db;" horiz-adv-x="722" 
d="M65 714h132v-415q0 -35 3.5 -70.5t19 -64.5t48 -47.5t91.5 -18.5q58 0 91 18.5t48.5 47.5t19 64.5t3.5 70.5v415h132v-456q0 -69 -21 -120.5t-60 -86t-93 -51.5t-120 -17t-120 17t-93 51.5t-60 86t-21 120.5v456zM215 757v115h121v-115h-121zM506 872v-115h-121v115h121z
M324 1065l95 -150h-91l-148 150h144z" />
    <glyph glyph-name="udieresisgrave" unicode="&#x1dc;" horiz-adv-x="574" 
d="M512 0h-118l-2 59q-23 -34 -61.5 -53.5t-79.5 -19.5q-103 0 -148.5 50.5t-45.5 153.5v327h120v-316q0 -65 25 -91.5t69 -26.5q34 0 57 10.5t37.5 28.5t20.5 42.5t6 53.5v299h120v-517zM141 560v115h121v-115h-121zM432 675v-115h-121v115h121zM262 868l95 -150h-91
l-148 150h144z" />
    <glyph glyph-name="Adieresismacron" unicode="&#x1de;" horiz-adv-x="667" 
d="M263 714h137l275 -714h-141l-66 187h-276l-67 -187h-136zM228 289h204l-51.5 143.5l-51.5 143.5zM188 757v115h121v-115h-121zM479 872v-115h-121v115h121zM187 915v72h293v-72h-293z" />
    <glyph glyph-name="adieresismacron" unicode="&#x1df;" 
d="M492 117q0 -18 4.5 -26t17.5 -8q9 0 17.5 0.5t14.5 1.5v-85q-14 -5 -37 -9.5t-38 -4.5q-34 0 -57 13t-32 45h-1q-34 -30 -81 -44t-92 -14q-35 0 -67.5 9.5t-57 28.5t-39 47.5t-14.5 67.5q0 49 17.5 79t46 47.5t64 25t71.5 12.5l54 6q20 3 37.5 6t30 9t20 16.5t7.5 28.5
q0 21 -10 34t-25 19.5t-32.5 9t-33.5 2.5q-46 0 -75 -19t-33 -61h-121q3 51 24.5 85t54 54.5t73.5 29t84 8.5q38 0 75 -8.5t66.5 -26.5t48 -47t18.5 -70v-262zM371 252q-19 -10 -43 -14.5t-47 -7.5l-42 -5q-18 -2 -34 -7t-28 -13.5t-19.5 -21.5t-7.5 -31q0 -21 10.5 -34.5
t25.5 -21t32 -10.5t31 -3q18 0 39.5 5t39.5 15.5t30.5 28t12.5 43.5v77zM144 574v115h121v-115h-121zM435 689v-115h-121v115h121zM143 732v72h293v-72h-293z" />
    <glyph glyph-name="Adotmacron" unicode="&#x1e0;" horiz-adv-x="667" 
d="M263 714h137l275 -714h-141l-66 187h-276l-67 -187h-136zM228 289h204l-51.5 143.5l-51.5 143.5zM273 757v115h121v-115h-121zM187 915v72h293v-72h-293z" />
    <glyph glyph-name="adotmacron" unicode="&#x1e1;" 
d="M492 117q0 -18 4.5 -26t17.5 -8q9 0 17.5 0.5t14.5 1.5v-85q-14 -5 -37 -9.5t-38 -4.5q-34 0 -57 13t-32 45h-1q-34 -30 -81 -44t-92 -14q-35 0 -67.5 9.5t-57 28.5t-39 47.5t-14.5 67.5q0 49 17.5 79t46 47.5t64 25t71.5 12.5l54 6q20 3 37.5 6t30 9t20 16.5t7.5 28.5
q0 21 -10 34t-25 19.5t-32.5 9t-33.5 2.5q-46 0 -75 -19t-33 -61h-121q3 51 24.5 85t54 54.5t73.5 29t84 8.5q38 0 75 -8.5t66.5 -26.5t48 -47t18.5 -70v-262zM371 252q-19 -10 -43 -14.5t-47 -7.5l-42 -5q-18 -2 -34 -7t-28 -13.5t-19.5 -21.5t-7.5 -31q0 -21 10.5 -34.5
t25.5 -21t32 -10.5t31 -3q18 0 39.5 5t39.5 15.5t30.5 28t12.5 43.5v77zM229 574v115h121v-115h-121zM143 732v72h293v-72h-293z" />
    <glyph glyph-name="AEmacron" unicode="&#x1e2;" horiz-adv-x="963" 
d="M344 714h576v-115h-344v-177h323v-109h-323v-198h350v-115h-475v181h-230l-42.5 -90.5l-42.5 -90.5h-147zM271 283h180v316h-29zM474 769v72h293v-72h-293z" />
    <glyph glyph-name="aemacron" unicode="&#x1e3;" horiz-adv-x="889" 
d="M853 168q-22 -86 -85 -134t-150 -48q-56 0 -106 21t-81 70q-35 -50 -90.5 -70.5t-121.5 -20.5q-39 0 -73.5 9.5t-60 28.5t-40 47.5t-14.5 67.5q0 49 17.5 79t46 47.5t64.5 24.5t72 11h-1l25 4l26 4q20 3 37 6t29.5 9t19.5 16.5t7 28.5q0 21 -9 34t-23 19.5t-31 9t-33 2.5
q-46 0 -75 -19t-33 -61h-120q3 51 24 85t53.5 54.5t72.5 29t82 8.5q24 0 48 -2.5t46.5 -9.5t42.5 -20t35 -35q30 38 72.5 52.5t89.5 14.5q62 0 107.5 -20t75 -56t44 -85.5t14.5 -107.5v-19t-1 -17h-369q0 -28 8 -53.5t23.5 -45.5t40 -32t57.5 -12q44 0 73.5 22t43.5 63h120z
M373 248q-15 -9 -38.5 -13t-50.5 -6l-21.5 -2l-21.5 -2q-18 -3 -34 -8.5t-28.5 -14.5t-20 -23t-7.5 -35q0 -18 9 -30t23 -18.5t32 -9.5t35 -3q22 0 44.5 6.5t39.5 18.5t28 30.5t11 42.5v67zM736 307q-1 58 -33.5 92.5t-91.5 34.5q-29 0 -51 -10t-37.5 -27.5t-24.5 -40.5
t-11 -49h249zM302 574v72h293v-72h-293z" />
    <glyph glyph-name="Gcaron" unicode="&#x1e6;" horiz-adv-x="759" 
d="M697 0h-86l-19 77q-47 -49 -97.5 -71.5t-111.5 -22.5q-80 0 -143.5 29.5t-107.5 80.5t-67.5 119t-23.5 145q0 76 23.5 144t67.5 119t107.5 81t143.5 30q58 0 110.5 -16t93.5 -47t68 -78t34 -108h-128q-5 34 -21 60.5t-40 44t-54 26.5t-63 9q-56 0 -96 -22.5t-65.5 -59.5
t-37.5 -85t-12 -98t12 -98t37.5 -85t65.5 -59.5t96 -22.5q93 -2 142 48t52 138h-188v102h308v-380zM426 774h-113l-111 150h99l68 -86l70 86h100z" />
    <glyph glyph-name="gcaron" unicode="&#x1e7;" horiz-adv-x="593" 
d="M536 31q0 -118 -65 -175.5t-189 -57.5q-39 0 -79 8.5t-72.5 28t-54.5 51.5t-26 79h120q5 -24 16.5 -38.5t27.5 -23t35 -11t40 -2.5q66 0 96.5 32.5t30.5 93.5l-2 64q-26 -38 -65 -59t-84 -21q-62 0 -105.5 21.5t-72 59t-41.5 86.5t-13 105q0 52 15.5 99t45.5 82.5
t73.5 56.5t99.5 21q45 0 84 -17.5t65 -54.5v58h120v-486zM283 97q36 0 61.5 15t41 39.5t23 55.5t7.5 63t-7.5 61.5t-23.5 52.5t-41.5 36.5t-60.5 13.5q-36 0 -61 -15.5t-40.5 -40t-22 -55.5t-6.5 -62q0 -30 7.5 -59.5t23.5 -53t40.5 -37.5t58.5 -14zM341 574h-113l-111 150
h99l68 -86l70 86h100z" />
    <glyph glyph-name="Kcaron" unicode="&#x1e8;" horiz-adv-x="685" 
d="M73 714h132v-315l308 315h165l-287 -287l151.5 -213.5l151.5 -213.5h-163l-229 336l-22 -22l-26.5 -26.5l-26.5 -26.5l-22 -22v-239h-132v714zM439 757h-113l-111 150h99l68 -86l70 86h100z" />
    <glyph glyph-name="kcaron" unicode="&#x1e9;" horiz-adv-x="537" 
d="M60 711h121v-394l197 200h149l-200 -192l216 -325h-146l-153 245l-63 -61v-184h-121v711zM357 757h-113l-111 150h99l68 -86l70 86h100z" />
    <glyph glyph-name="Oogonek" unicode="&#x1ea;" horiz-adv-x="760" 
d="M378 622q-56 0 -95.5 -22.5t-65.5 -59.5t-38 -85t-12 -98t12 -98t38 -85t65.5 -59.5t95.5 -22.5q55 0 95 22.5t66 59.5t38 85t12 98t-12 98t-38 85t-66 59.5t-95 22.5zM378 731q80 0 143.5 -30t107.5 -81t67.5 -119t23.5 -144q0 -77 -23.5 -145t-67.5 -119t-107.5 -80.5
t-143.5 -29.5t-143.5 29.5t-107.5 80.5t-67.5 119t-23.5 145q0 76 23.5 144t67.5 119t107.5 81t143.5 30zM454 -9q-30 -23 -49.5 -41.5t-30.5 -34t-15.5 -29t-4.5 -27.5q0 -18 10.5 -28.5t24.5 -10.5t25.5 7t24.5 27l47 -10q-6 -24 -18.5 -40t-27.5 -25.5t-31.5 -13
t-31.5 -3.5q-8 0 -25 2t-34.5 11.5t-31 28t-13.5 51.5q0 7 2 19.5t13.5 30t35 39t66.5 47.5h64z" />
    <glyph glyph-name="oogonek" unicode="&#x1eb;" horiz-adv-x="593" 
d="M295 -14q-62 0 -110.5 20.5t-82 56.5t-51 86t-17.5 110q0 59 17.5 109t51 86t82 56.5t110.5 20.5t110.5 -20.5t82 -56.5t51 -86t17.5 -109q0 -60 -17.5 -110t-51 -86t-82 -56.5t-110.5 -20.5zM295 83q36 0 63 15.5t44 40t25.5 56t8.5 64.5q0 32 -8.5 63.5t-25.5 56
t-44 40t-63 15.5q-37 0 -63.5 -15.5t-44 -40t-25.5 -56t-8 -63.5q0 -33 8 -64.5t25.5 -56t44 -40t63.5 -15.5zM371 -6q-30 -23 -49.5 -41.5t-30.5 -34t-15.5 -29t-4.5 -27.5q0 -18 10.5 -28.5t24.5 -10.5t25.5 7t24.5 27l47 -10q-6 -24 -18.5 -40t-27.5 -25.5t-31.5 -13
t-31.5 -3.5q-8 0 -25 2t-34.5 11.5t-31 28t-13.5 51.5q0 7 2 19.5t13.5 30t35 39t66.5 47.5h64z" />
    <glyph glyph-name="Oogonekmacron" unicode="&#x1ec;" horiz-adv-x="760" 
d="M378 622q-56 0 -95.5 -22.5t-65.5 -59.5t-38 -85t-12 -98t12 -98t38 -85t65.5 -59.5t95.5 -22.5q55 0 95 22.5t66 59.5t38 85t12 98t-12 98t-38 85t-66 59.5t-95 22.5zM378 731q80 0 143.5 -30t107.5 -81t67.5 -119t23.5 -144q0 -77 -23.5 -145t-67.5 -119t-107.5 -80.5
t-143.5 -29.5t-143.5 29.5t-107.5 80.5t-67.5 119t-23.5 145q0 76 23.5 144t67.5 119t107.5 81t143.5 30zM454 -9q-30 -23 -49.5 -41.5t-30.5 -34t-15.5 -29t-4.5 -27.5q0 -18 10.5 -28.5t24.5 -10.5t25.5 7t24.5 27l47 -10q-6 -24 -18.5 -40t-27.5 -25.5t-31.5 -13
t-31.5 -3.5q-8 0 -25 2t-34.5 11.5t-31 28t-13.5 51.5q0 7 2 19.5t13.5 30t35 39t66.5 47.5h64zM233 774v72h293v-72h-293z" />
    <glyph glyph-name="oogonekmacron" unicode="&#x1ed;" horiz-adv-x="593" 
d="M295 -14q-62 0 -110.5 20.5t-82 56.5t-51 86t-17.5 110q0 59 17.5 109t51 86t82 56.5t110.5 20.5t110.5 -20.5t82 -56.5t51 -86t17.5 -109q0 -60 -17.5 -110t-51 -86t-82 -56.5t-110.5 -20.5zM295 83q36 0 63 15.5t44 40t25.5 56t8.5 64.5q0 32 -8.5 63.5t-25.5 56
t-44 40t-63 15.5q-37 0 -63.5 -15.5t-44 -40t-25.5 -56t-8 -63.5q0 -33 8 -64.5t25.5 -56t44 -40t63.5 -15.5zM371 -6q-30 -23 -49.5 -41.5t-30.5 -34t-15.5 -29t-4.5 -27.5q0 -18 10.5 -28.5t24.5 -10.5t25.5 7t24.5 27l47 -10q-6 -24 -18.5 -40t-27.5 -25.5t-31.5 -13
t-31.5 -3.5q-8 0 -25 2t-34.5 11.5t-31 28t-13.5 51.5q0 7 2 19.5t13.5 30t35 39t66.5 47.5h64zM150 574v72h293v-72h-293z" />
    <glyph glyph-name="DZ" unicode="&#x1f1;" horiz-adv-x="1352" 
d="M73 714h297q83 0 142.5 -28t98 -76.5t56.5 -113.5t18 -139t-18 -139t-56.5 -113.5t-98 -76.5t-142.5 -28h-297v714zM205 109h118q71 0 116 19t70.5 52.5t35 78.5t9.5 98q0 52 -9.5 97.5t-35 79t-70.5 52.5t-116 19h-118v-496zM774 714h545v-100l-407 -499h417v-115h-586
v107l407 492h-376v115z" />
    <glyph glyph-name="Dz" unicode="&#x1f2;" horiz-adv-x="1222" 
d="M73 714h297q83 0 142.5 -28t98 -76.5t56.5 -113.5t18 -139t-18 -139t-56.5 -113.5t-98 -76.5t-142.5 -28h-297v714zM205 109h118q71 0 116 19t70.5 52.5t35 78.5t9.5 98q0 52 -9.5 97.5t-35 79t-70.5 52.5t-116 19h-118v-496zM761 517h422v-85l-288 -335h303v-97h-456v85
l276 335h-257v97z" />
    <glyph glyph-name="dz" unicode="&#x1f3;" horiz-adv-x="1111" 
d="M545 0h-114l-2 57q-25 -39 -66.5 -55t-87.5 -16q-61 0 -106.5 21.5t-75.5 58.5t-45 87.5t-15 108.5q0 70 19 121t50.5 84t72 48.5t82.5 15.5q45 0 91.5 -18.5t76.5 -54.5v253h120v-711zM153 253q0 -32 8 -62.5t25 -54.5t42.5 -38.5t61.5 -14.5t62 15.5t43.5 40t25.5 56
t8 64.5q0 83 -37 129t-100 46q-39 0 -65.5 -16t-43 -41.5t-23.5 -58t-7 -65.5zM650 517h422v-85l-288 -335h303v-97h-456v85l276 335h-257v97z" />
    <glyph glyph-name="Gacute" unicode="&#x1f4;" horiz-adv-x="759" 
d="M697 0h-86l-19 77q-47 -49 -97.5 -71.5t-111.5 -22.5q-80 0 -143.5 29.5t-107.5 80.5t-67.5 119t-23.5 145q0 76 23.5 144t67.5 119t107.5 81t143.5 30q58 0 110.5 -16t93.5 -47t68 -78t34 -108h-128q-5 34 -21 60.5t-40 44t-54 26.5t-63 9q-56 0 -96 -22.5t-65.5 -59.5
t-37.5 -85t-12 -98t12 -98t37.5 -85t65.5 -59.5t96 -22.5q93 -2 142 48t52 138h-188v102h308v-380zM423 924h146l-149 -150h-91z" />
    <glyph glyph-name="gacute" unicode="&#x1f5;" horiz-adv-x="593" 
d="M536 31q0 -118 -65 -175.5t-189 -57.5q-39 0 -79 8.5t-72.5 28t-54.5 51.5t-26 79h120q5 -24 16.5 -38.5t27.5 -23t35 -11t40 -2.5q66 0 96.5 32.5t30.5 93.5l-2 64q-26 -38 -65 -59t-84 -21q-62 0 -105.5 21.5t-72 59t-41.5 86.5t-13 105q0 52 15.5 99t45.5 82.5
t73.5 56.5t99.5 21q45 0 84 -17.5t65 -54.5v58h120v-486zM283 97q36 0 61.5 15t41 39.5t23 55.5t7.5 63t-7.5 61.5t-23.5 52.5t-41.5 36.5t-60.5 13.5q-36 0 -61 -15.5t-40.5 -40t-22 -55.5t-6.5 -62q0 -30 7.5 -59.5t23.5 -53t40.5 -37.5t58.5 -14zM301 729h146l-149 -150
h-91z" />
    <glyph glyph-name="Ngrave" unicode="&#x1f8;" horiz-adv-x="722" 
d="M68 714h137l318 -511v511h126v-714h-137l-318 510v-510h-126v714zM349 904l95 -150h-91l-148 150h144z" />
    <glyph glyph-name="ngrave" unicode="&#x1f9;" horiz-adv-x="574" 
d="M57 517h115l2 -68q26 38 66 60t88 22q85 0 134.5 -44t49.5 -133v-354h-120v324q-2 58 -24.5 84t-70.5 26q-27 0 -49.5 -10t-38 -27.5t-24 -41.5t-8.5 -51v-304h-120v517zM284 724l95 -150h-91l-148 150h144z" />
    <glyph glyph-name="Aringacute" unicode="&#x1fa;" horiz-adv-x="667" 
d="M263 714h137l275 -714h-141l-66 187h-276l-67 -187h-136zM228 289h204l-51.5 143.5l-51.5 143.5zM278 863q0 -24 16 -40t39 -16q25 0 40.5 16t15.5 40q0 26 -15.5 41.5t-40.5 15.5q-23 0 -39 -15.5t-16 -41.5zM333 758q-44 0 -75 29t-31 76q0 24 8.5 43.5t23.5 33.5
t34 21.5t40 7.5q22 0 41.5 -7.5t34 -21.5t23 -33.5t8.5 -43.5q0 -23 -8.5 -42.5t-23 -33.5t-34 -21.5t-41.5 -7.5zM352 1160h146l-149 -150h-91z" />
    <glyph glyph-name="aringacute" unicode="&#x1fb;" 
d="M492 117q0 -18 4.5 -26t17.5 -8q9 0 17.5 0.5t14.5 1.5v-85q-14 -5 -37 -9.5t-38 -4.5q-34 0 -57 13t-32 45h-1q-34 -30 -81 -44t-92 -14q-35 0 -67.5 9.5t-57 28.5t-39 47.5t-14.5 67.5q0 49 17.5 79t46 47.5t64 25t71.5 12.5l54 6q20 3 37.5 6t30 9t20 16.5t7.5 28.5
q0 21 -10 34t-25 19.5t-32.5 9t-33.5 2.5q-46 0 -75 -19t-33 -61h-121q3 51 24.5 85t54 54.5t73.5 29t84 8.5q38 0 75 -8.5t66.5 -26.5t48 -47t18.5 -70v-262zM371 252q-19 -10 -43 -14.5t-47 -7.5l-42 -5q-18 -2 -34 -7t-28 -13.5t-19.5 -21.5t-7.5 -31q0 -21 10.5 -34.5
t25.5 -21t32 -10.5t31 -3q18 0 39.5 5t39.5 15.5t30.5 28t12.5 43.5v77zM234 680q0 -24 16 -40t39 -16q25 0 40.5 16t15.5 40q0 26 -15.5 41.5t-40.5 15.5q-23 0 -39 -15.5t-16 -41.5zM289 575q-44 0 -75 29t-31 76q0 24 8.5 43.5t23.5 33.5t34 21.5t40 7.5q22 0 41.5 -7.5
t34 -21.5t23 -33.5t8.5 -43.5q0 -23 -8.5 -42.5t-23 -33.5t-34 -21.5t-41.5 -7.5zM322 983h146l-149 -150h-91z" />
    <glyph glyph-name="AEacute" unicode="&#x1fc;" horiz-adv-x="963" 
d="M344 714h576v-115h-344v-177h323v-109h-323v-198h350v-115h-475v181h-230l-42.5 -90.5l-42.5 -90.5h-147zM271 283h180v316h-29zM630 919h146l-149 -150h-91z" />
    <glyph glyph-name="aeacute" unicode="&#x1fd;" horiz-adv-x="889" 
d="M853 168q-22 -86 -85 -134t-150 -48q-56 0 -106 21t-81 70q-35 -50 -90.5 -70.5t-121.5 -20.5q-39 0 -73.5 9.5t-60 28.5t-40 47.5t-14.5 67.5q0 49 17.5 79t46 47.5t64.5 24.5t72 11h-1l25 4l26 4q20 3 37 6t29.5 9t19.5 16.5t7 28.5q0 21 -9 34t-23 19.5t-31 9t-33 2.5
q-46 0 -75 -19t-33 -61h-120q3 51 24 85t53.5 54.5t72.5 29t82 8.5q24 0 48 -2.5t46.5 -9.5t42.5 -20t35 -35q30 38 72.5 52.5t89.5 14.5q62 0 107.5 -20t75 -56t44 -85.5t14.5 -107.5v-19t-1 -17h-369q0 -28 8 -53.5t23.5 -45.5t40 -32t57.5 -12q44 0 73.5 22t43.5 63h120z
M373 248q-15 -9 -38.5 -13t-50.5 -6l-21.5 -2l-21.5 -2q-18 -3 -34 -8.5t-28.5 -14.5t-20 -23t-7.5 -35q0 -18 9 -30t23 -18.5t32 -9.5t35 -3q22 0 44.5 6.5t39.5 18.5t28 30.5t11 42.5v67zM736 307q-1 58 -33.5 92.5t-91.5 34.5q-29 0 -51 -10t-37.5 -27.5t-24.5 -40.5
t-11 -49h249zM486 729h146l-149 -150h-91z" />
    <glyph glyph-name="Oslashacute" unicode="&#x1fe;" horiz-adv-x="760" 
d="M720 694l-79 -89q38 -51 58.5 -113.5t20.5 -134.5q0 -77 -23.5 -145t-67.5 -119t-107.5 -80.5t-143.5 -29.5q-69 0 -123 20.5t-97 58.5l-37.5 -42l-37.5 -42l-47 42l79 90q-38 50 -58.5 113t-20.5 134q0 76 23.5 144t67.5 119t107.5 81t143.5 30q69 0 123 -20t96 -58
q19 20 37.5 41.5t37.5 41.5zM237 150q26 -26 61 -42t80 -16q55 0 95 22.5t66 59.5t38 85t12 98q0 40 -7.5 79.5t-25.5 72.5zM519 564q-23 23 -60 40.5t-81 17.5q-56 0 -95.5 -22.5t-65.5 -59.5t-38 -85t-12 -98q0 -42 8 -80t25 -72zM438 930h146l-149 -150h-91z" />
    <glyph glyph-name="oslashacute" unicode="&#x1ff;" horiz-adv-x="593" 
d="M386 397q-17 17 -39.5 27t-51.5 10q-37 0 -63.5 -15.5t-44 -40t-25.5 -56t-8 -63.5q0 -25 4.5 -49t15.5 -47zM28 4l65 71q-31 37 -45 82t-14 102q0 59 17.5 109t51 86t82 56.5t110.5 20.5q51 0 93 -14t74 -38l62 68l38 -34l-65 -70q59 -74 59 -184q0 -60 -17.5 -110
t-51 -86t-82 -56.5t-110.5 -20.5q-49 0 -92 14.5t-75 38.5l-63 -69zM203 120q17 -17 39.5 -27t52.5 -10q36 0 63 15.5t44 40t25.5 56t8.5 64.5q0 24 -4.5 48t-15.5 47zM318 741h146l-149 -150h-91z" />
    <glyph glyph-name="uni0200.ADoubleGrave" unicode="&#x200;" horiz-adv-x="667" 
d="M263 714h137l275 -714h-141l-66 187h-276l-67 -187h-136zM228 289h204l-51.5 144l-51.5 144zM495 777h-90l-150 150h146zM299 777h-90l-151 150h147z" />
    <glyph glyph-name="uni0201.aDoubleGrave" unicode="&#x201;" 
d="M492 117q0 -18 4 -26t18 -8h12q3 1 7 1h6.5t6.5 1v-85q-14 -5 -37 -9.5t-38 -4.5q-34 0 -57 13t-32 45q-34 -31 -81.5 -44.5t-92.5 -13.5q-35 0 -67.5 9.5t-57 28.5t-39 47.5t-14.5 67.5q0 49 17.5 79t46 47.5t64.5 24.5t72 11h-1q14 3 27.5 4.5t26.5 3.5q20 3 37.5 6
t30 9t20 16.5t7.5 28.5q0 21 -10 34t-25 19.5t-32.5 9t-33.5 2.5q-46 0 -75.5 -19t-32.5 -61h-121q3 51 24.5 85t54 54.5t73.5 29t84 8.5q38 0 75 -8.5t66.5 -26.5t48 -47t18.5 -70v-262zM371 252q-19 -10 -43 -14.5t-47 -7.5q-10 -2 -21.5 -2.5t-21.5 -2.5q-17 -3 -33 -8
t-28 -14.5t-19.5 -23.5t-7.5 -35q0 -18 10.5 -30t25.5 -18.5t32 -9.5t31 -3q18 0 39.5 5t39.5 15.5t30.5 28t12.5 43.5v77zM445 580h-89l-150 149h146zM249 580h-89l-150 149h146z" />
    <glyph glyph-name="uni0202.AinvertedBreve" unicode="&#x202;" horiz-adv-x="667" 
d="M263 714h137l275 -714h-141l-66 187h-276l-67 -187h-136zM228 289h204l-51.5 144l-51.5 144zM431 778q-8 42 -36.5 58.5t-66.5 16.5q-36 0 -62.5 -18.5t-34.5 -56.5h-63q9 75 53.5 111.5t114.5 36.5t111.5 -38t47.5 -110h-64z" />
    <glyph glyph-name="uni0203.ainvertedBreve" unicode="&#x203;" 
d="M492 117q0 -18 4.5 -26t17.5 -8h12q3 1 7 1h6.5t6.5 1v-85q-14 -5 -37 -9.5t-38 -4.5q-34 0 -57 13t-32 45q-34 -31 -81.5 -44.5t-92.5 -13.5q-35 0 -67.5 9.5t-57 28.5t-39 47.5t-14.5 67.5q0 49 17.5 79t46 47.5t64.5 24.5t72 11h-1q14 3 27.5 4.5t26.5 3.5
q20 3 37.5 6t30 9t20 16.5t7.5 28.5q0 21 -10 34t-25 19.5t-32.5 9t-33.5 2.5q-46 0 -75 -19t-33 -61h-121q3 51 24.5 85t54 54.5t73.5 29t84 8.5q38 0 75 -8.5t66.5 -26.5t48 -47t18.5 -70v-262zM371 252q-19 -10 -43 -14.5t-47 -7.5q-10 -2 -21.5 -2.5t-20.5 -2.5
q-18 -3 -34 -8t-28 -14.5t-19.5 -23.5t-7.5 -35q0 -18 10.5 -30t25.5 -18.5t32 -9.5t31 -3q18 0 39.5 5t39.5 15.5t30.5 28t12.5 43.5v77zM378 581q-8 42 -36 58.5t-66 16.5q-36 0 -62.5 -18.5t-34.5 -56.5h-63q9 75 53.5 111t114.5 36q69 0 111 -37.5t47 -109.5h-64z" />
    <glyph glyph-name="uni0204.EDoubleGrave" unicode="&#x204;" horiz-adv-x="630" 
d="M73 714h516v-115h-384v-177h356v-109h-356v-198h391v-115h-523v714zM500 777h-90l-150 150h146zM303 777h-90l-150 150h147z" />
    <glyph glyph-name="uni0205.eDoubleGrave" unicode="&#x205;" 
d="M407 307q-2 25 -11.5 48.5t-25 40.5t-37.5 27.5t-50 10.5q-57 0 -91.5 -36.5t-38.5 -90.5h254zM153 226q1 -29 9 -54.5t24.5 -45.5t41.5 -31.5t58 -11.5q48 0 77 21t44 63h114q-9 -44 -31.5 -77.5t-53.5 -56.5t-69.5 -35t-80.5 -12q-62 0 -109 20t-79 56t-48.5 86
t-16.5 110q0 55 17.5 104.5t50 87t78.5 59.5t104 22q56 0 101.5 -21.5t77.5 -58t49.5 -84.5t17.5 -100v-21.5t-2 -19.5h-374zM462 580h-90l-149 149h145zM266 580h-90l-149 149h145z" />
    <glyph glyph-name="uni0206.EinvertedBreve" unicode="&#x206;" horiz-adv-x="630" 
d="M73 714h516v-115h-384v-177h356v-109h-356v-198h391v-115h-523v714zM442 778q-8 42 -36.5 58.5t-66.5 16.5q-36 0 -62.5 -18.5t-34.5 -56.5h-63q9 75 53.5 111.5t114.5 36.5t111.5 -38t47.5 -110h-64z" />
    <glyph glyph-name="uni0207.einvertedBreve" unicode="&#x207;" 
d="M407 307q-2 25 -11.5 48.5t-25 40.5t-37.5 27.5t-50 10.5q-57 0 -91.5 -36.5t-38.5 -90.5h254zM153 226q1 -29 9 -54.5t24.5 -45.5t41.5 -31.5t58 -11.5q48 0 77 21t44 63h114q-9 -44 -31 -77.5t-53.5 -56.5t-70 -35t-80.5 -12q-62 0 -109 20t-79 56t-48.5 86t-16.5 110
q0 55 17.5 104.5t50 87t78.5 59.5t104 22q56 0 101.5 -21.5t77.5 -58t49.5 -84.5t17.5 -100v-21.5t-2 -19.5h-374zM374 581q-8 42 -36 58.5t-66 16.5q-36 0 -62.5 -18.5t-34.5 -56.5h-63q9 75 53.5 111t114.5 36q69 0 111 -37.5t47 -109.5h-64z" />
    <glyph glyph-name="uni0208.IDoubleGrave" unicode="&#x208;" horiz-adv-x="278" 
d="M72 714h131v-714h-131v714zM295 777h-90l-150 150h146zM98 777h-90l-150 150h146z" />
    <glyph glyph-name="uni0209.iDoubleGrave" unicode="&#x209;" horiz-adv-x="274" 
d="M91 0v517h121v-517h-121zM319 580h-90l-149 149h145zM123 580h-90l-149 149h145z" />
    <glyph glyph-name="uni020A.IinvertedBreve" unicode="&#x20a;" horiz-adv-x="278" 
d="M72 714h131v-714h-131v714zM237 778q-8 42 -36.5 58.5t-66.5 16.5q-36 0 -62.5 -18.5t-34.5 -56.5h-63q9 75 53.5 111.5t114.5 36.5t111.5 -38t47.5 -110h-64z" />
    <glyph glyph-name="uni020B.iinvertedBreve" unicode="&#x20b;" horiz-adv-x="281" 
d="M79 0v517h120v-517h-120zM238 581q-8 42 -36 58.5t-66 16.5q-36 0 -62.5 -18.5t-34.5 -56.5h-63q9 75 53.5 111t114.5 36q69 0 111 -37.5t47 -109.5h-64z" />
    <glyph glyph-name="uni020C.ODoubleGrave" unicode="&#x20c;" horiz-adv-x="760" 
d="M378 622q-56 0 -95.5 -22.5t-65.5 -59.5t-38 -85t-12 -98t12 -98t38 -85t65.5 -59.5t95.5 -22.5q55 0 95 22.5t66 59.5t38 85t12 98t-12 98t-38 85t-66 59.5t-95 22.5zM378 731q80 0 143.5 -30t107.5 -81t67.5 -119t23.5 -144q0 -77 -23.5 -145t-67.5 -119t-107.5 -80.5
t-143.5 -29.5t-143.5 29.5t-107.5 80.5t-67.5 119t-23.5 145q0 76 23.5 144t67.5 119t107.5 81t143.5 30zM545 777h-90l-150 150h146zM348 777h-90l-150 150h146z" />
    <glyph glyph-name="uni020D.oDoubleGrave" unicode="&#x20d;" horiz-adv-x="593" 
d="M295 -14q-62 0 -110.5 20.5t-82 56.5t-51 86t-17.5 110q0 59 17.5 109t51 86t82 56.5t110.5 20.5t110.5 -20.5t82 -56.5t51 -86t17.5 -109q0 -60 -17.5 -110t-51 -86t-82 -56.5t-110.5 -20.5zM295 83q36 0 63 15.5t44 40t25.5 56t8.5 64.5q0 32 -8.5 63.5t-25.5 56
t-44 40t-63 15.5q-37 0 -63.5 -15.5t-44 -40t-25.5 -56t-8 -63.5q0 -33 8 -64.5t25.5 -56t44 -40t63.5 -15.5zM471 580h-90l-149 149h145zM275 580h-90l-149 149h145z" />
    <glyph glyph-name="uni020E.OinvertedBreve" unicode="&#x20e;" horiz-adv-x="760" 
d="M378 622q-56 0 -95.5 -22.5t-65.5 -59.5t-38 -85t-12 -98t12 -98t38 -85t65.5 -59.5t95.5 -22.5q55 0 95 22.5t66 59.5t38 85t12 98t-12 98t-38 85t-66 59.5t-95 22.5zM378 731q80 0 143.5 -30t107.5 -81t67.5 -119t23.5 -144q0 -77 -23.5 -145t-67.5 -119t-107.5 -80.5
t-143.5 -29.5t-143.5 29.5t-107.5 80.5t-67.5 119t-23.5 145q0 76 23.5 144t67.5 119t107.5 81t143.5 30zM477 778q-8 42 -36.5 58.5t-66.5 16.5q-37 0 -63 -18.5t-34 -56.5h-63q9 75 53.5 111.5t114.5 36.5t111.5 -38t47.5 -110h-64z" />
    <glyph glyph-name="uni020F.oinvertedBreve" unicode="&#x20f;" horiz-adv-x="593" 
d="M295 -14q-62 0 -110.5 20.5t-82 56.5t-51 86t-17.5 110q0 59 17.5 109t51 86t82 56.5t110.5 20.5t110.5 -20.5t82 -56.5t51 -86t17.5 -109q0 -60 -17.5 -110t-51 -86t-82 -56.5t-110.5 -20.5zM295 83q36 0 63 15.5t44 40t25.5 56t8.5 64.5q0 32 -8.5 63.5t-25.5 56
t-44 40t-63 15.5q-37 0 -63.5 -15.5t-44 -40t-25.5 -56t-8 -63.5q0 -33 8 -64.5t25.5 -56t44 -40t63.5 -15.5zM393 581q-8 41 -36.5 58t-65.5 17q-36 0 -62.5 -18.5t-34.5 -56.5h-63q9 75 53.5 111t114.5 36q69 0 110.5 -37.5t47.5 -109.5h-64z" />
    <glyph glyph-name="uni0210.RDoubleGrave" unicode="&#x210;" horiz-adv-x="704" 
d="M73 714h341q120 0 179 -51t59 -144q0 -44 -11.5 -74.5t-28 -51.5t-35 -33.5t-31.5 -18.5q16 -4 33 -14t30.5 -28t22 -45t8.5 -64q0 -62 10.5 -113.5t33.5 -76.5h-144q-16 26 -18.5 54t-2.5 54q0 47 -5.5 81.5t-20.5 57t-41.5 33.5t-68.5 11h-178v-291h-132v714zM205 393
h199q116 0 116 108q0 33 -9.5 53.5t-26 31.5t-38 15t-44.5 4h-197v-212zM527 777h-90l-150 150h146zM330 777h-90l-150 150h146z" />
    <glyph glyph-name="uni0211.rDoubleGrave" unicode="&#x211;" horiz-adv-x="352" 
d="M56 517h114l2 -81q8 19 22.5 36t33.5 30t41.5 21t46.5 8q14 0 22.5 -0.5t13.5 -1.5q2 0 5.5 -0.5t5.5 -0.5v-117q-29 6 -53 6q-27 0 -51.5 -11.5t-42.5 -33t-28.5 -53.5t-10.5 -73v-246h-121v517zM380 580h-89l-150 149h146zM184 580h-89l-150 149h146z" />
    <glyph glyph-name="uni0212.RinvertedBreve" unicode="&#x212;" horiz-adv-x="704" 
d="M73 714h341q120 0 179 -51t59 -144q0 -44 -11.5 -74.5t-28 -51.5t-35 -33.5t-31.5 -18.5q16 -4 33 -14t30.5 -28t22 -45t8.5 -64q0 -62 10.5 -113.5t33.5 -76.5h-144q-16 26 -18.5 54t-2.5 54q0 47 -5.5 81.5t-20.5 57t-41.5 33.5t-68.5 11h-178v-291h-132v714zM205 393
h199q116 0 116 108q0 33 -9.5 53.5t-26 31.5t-38 15t-44.5 4h-197v-212zM439 778q-8 42 -36.5 58.5t-66.5 16.5q-36 0 -62.5 -18.5t-34.5 -56.5h-63q9 75 53.5 111.5t114.5 36.5t112 -38t47 -110h-64z" />
    <glyph glyph-name="uni0213.rinvertedBreve" unicode="&#x213;" horiz-adv-x="352" 
d="M57 517h113l2 -81q8 19 23 36t34 30t41.5 21t46.5 8q14 0 22 -0.5t13 -1.5q2 0 5.5 -0.5t5.5 -0.5v-117q-29 6 -52 6q-28 0 -52.5 -11.5t-42.5 -33t-28.5 -53.5t-10.5 -73v-246h-120v517zM305 581q-8 42 -36.5 58.5t-66.5 16.5q-36 0 -62 -18.5t-34 -56.5h-63
q9 75 53.5 111t113.5 36q70 0 111.5 -37.5t47.5 -109.5h-64z" />
    <glyph glyph-name="uni0214.UDoubleGrave" unicode="&#x214;" horiz-adv-x="722" 
d="M65 714h132v-415q0 -35 3.5 -70.5t19 -64.5t48 -47.5t91.5 -18.5q58 0 91 18.5t48.5 47.5t19 64.5t3.5 70.5v415h132v-456q0 -69 -21 -120.5t-60 -86t-93 -51.5t-120 -17t-120 17t-93 51.5t-60 86t-21 120.5v456zM514 777h-90l-150 150h146zM317 777h-90l-150 150h147z
" />
    <glyph glyph-name="uni0215.uDoubleGrave" unicode="&#x215;" horiz-adv-x="574" 
d="M512 0h-118l-2 59q-23 -34 -61.5 -53.5t-79.5 -19.5q-103 0 -148.5 50.5t-45.5 153.5v327h120v-316q0 -65 25 -91.5t69 -26.5q34 0 57 10.5t37 28.5t20.5 42.5t6.5 53.5v299h120v-517zM451 580h-90l-149 149h146zM255 580h-90l-149 149h146z" />
    <glyph glyph-name="uni0216.UinvertedBreve" unicode="&#x216;" horiz-adv-x="722" 
d="M65 714h132v-415q0 -35 3.5 -70.5t19 -64.5t48 -47.5t91.5 -18.5q58 0 91 18.5t48.5 47.5t19 64.5t3.5 70.5v415h132v-456q0 -69 -21 -120.5t-60 -86t-93 -51.5t-120 -17t-120 17t-93 51.5t-60 86t-21 120.5v456zM458 778q-8 42 -36.5 58.5t-66.5 16.5q-36 0 -62.5 -18.5
t-34.5 -56.5h-63q9 75 53.5 111.5t114.5 36.5t111.5 -38t47.5 -110h-64z" />
    <glyph glyph-name="uni0217.uinvertedBreve" unicode="&#x217;" horiz-adv-x="574" 
d="M512 0h-118l-2 59q-23 -34 -61.5 -53.5t-79.5 -19.5q-103 0 -148.5 50.5t-45.5 153.5v327h120v-316q0 -65 25 -91.5t69 -26.5q34 0 57 10.5t37.5 28.5t20.5 42.5t6 53.5v299h120v-517zM383 581q-8 41 -36.5 58t-65.5 17q-36 0 -62.5 -18.5t-34.5 -56.5h-63q9 75 53.5 111
t114.5 36q69 0 110.5 -37.5t47.5 -109.5h-64z" />
    <glyph glyph-name="Scommaaccent" unicode="&#x218;" horiz-adv-x="648" 
d="M162 243q0 -41 13.5 -69.5t37.5 -46.5t56 -26.5t68 -8.5q40 0 67.5 9t44.5 23.5t25 33t8 37.5q0 18 -5.5 33t-19 27t-37.5 22.5t-60 20.5l-115 30q-62 16 -99.5 37.5t-57 46.5t-25.5 52.5t-6 54.5q0 55 23 95t60 66t84 38.5t95 12.5q56 0 106 -15t87.5 -44.5t59.5 -73.5
t22 -101h-131q-5 68 -45.5 96.5t-103.5 28.5q-21 0 -43 -4t-40 -14.5t-30 -27.5t-12 -42q0 -35 26.5 -57t73.5 -33l124 -33q60 -15 99 -34t61.5 -43t31.5 -55t9 -70q0 -61 -24.5 -104t-64.5 -70t-91.5 -39.5t-104.5 -12.5q-61 0 -115 15t-94.5 47t-64.5 81t-25 117h132z
M254 -41h137v-92q0 -16 -5.5 -31t-19 -27t-37 -20t-60.5 -9v46q35 4 43 27h-58v106z" />
    <glyph glyph-name="scommaaccent" unicode="&#x219;" horiz-adv-x="519" 
d="M150 171q3 -25 12.5 -41.5t24 -27t33.5 -15t41 -4.5q16 0 35 2t35.5 9t27.5 19t11 33q0 32 -31 46t-97 27l-35 7q-31 6 -61 16.5t-53.5 28t-38 44t-14.5 66.5q0 43 20.5 71.5t52.5 46t70.5 25t73.5 7.5q40 0 77 -9t66 -28.5t49 -51t25 -76.5h-124q-8 40 -36.5 54
t-64.5 14q-12 0 -27 -1.5t-28.5 -7t-23 -15t-9.5 -24.5q0 -16 11 -27.5t29.5 -19.5t42 -14t49.5 -11l30 -6q31 -6 61.5 -16.5t53.5 -27.5t37.5 -43t14.5 -65q0 -47 -21 -79t-54.5 -52.5t-74.5 -29.5t-81 -9q-49 0 -90.5 11.5t-72 34.5t-48 57.5t-18.5 81.5h120zM187 -41h137
v-92q0 -16 -5.5 -31t-19 -27t-37 -20t-60.5 -9v46q35 4 43 27h-58v106z" />
    <glyph glyph-name="uni021A" unicode="&#x21a;" horiz-adv-x="593" 
d="M6 714h579v-115h-224v-599h-132v599h-223v115zM226 -41h137v-92q0 -16 -5.5 -31t-19 -27t-37 -20t-60.5 -9v46q35 4 43 27h-58v106z" />
    <glyph glyph-name="uni021B" unicode="&#x21b;" horiz-adv-x="333" 
d="M5 517h85v153h120v-153h101v-92h-101v-267q0 -17 1.5 -29t6.5 -20.5t15 -12.5t27 -4q12 0 24.5 0.5t26.5 4.5v-96l-36.5 -4t-39.5 -2q-46 0 -74 8.5t-43.5 25.5t-21 42t-6.5 58v296h-85v92zM135 -41h137v-92q0 -16 -5.5 -31t-19 -27t-37 -20t-60.5 -9v46q35 4 43 27h-58
v106z" />
    <glyph glyph-name="Hcaron" unicode="&#x21e;" horiz-adv-x="722" 
d="M70 714h132v-281h313v281h132v-714h-132v318h-313v-318h-132v714zM415 757h-113l-111 150h99l68 -86l70 86h100z" />
    <glyph glyph-name="hcaron" unicode="&#x21f;" horiz-adv-x="574" 
d="M57 711h120l2 -252q23 30 63 51t86 21q85 0 134.5 -44t49.5 -133v-354h-120v324q-2 58 -24.5 84t-70.5 26q-27 0 -49.5 -10t-38 -27.5t-24 -41.5t-8.5 -51v-304h-120v711zM342 757h-113l-111 150h99l68 -86l70 86h100z" />
    <glyph glyph-name="Adotaccent" unicode="&#x226;" horiz-adv-x="667" 
d="M263 714h137l275 -714h-141l-66 187h-276l-67 -187h-136zM228 289h204l-51.5 143.5l-51.5 143.5zM273 757v115h121v-115h-121z" />
    <glyph glyph-name="adotaccent" unicode="&#x227;" 
d="M492 117q0 -18 4.5 -26t17.5 -8q9 0 17.5 0.5t14.5 1.5v-85q-14 -5 -37 -9.5t-38 -4.5q-34 0 -57 13t-32 45h-1q-34 -30 -81 -44t-92 -14q-35 0 -67.5 9.5t-57 28.5t-39 47.5t-14.5 67.5q0 49 17.5 79t46 47.5t64 25t71.5 12.5l54 6q20 3 37.5 6t30 9t20 16.5t7.5 28.5
q0 21 -10 34t-25 19.5t-32.5 9t-33.5 2.5q-46 0 -75 -19t-33 -61h-121q3 51 24.5 85t54 54.5t73.5 29t84 8.5q38 0 75 -8.5t66.5 -26.5t48 -47t18.5 -70v-262zM371 252q-19 -10 -43 -14.5t-47 -7.5l-42 -5q-18 -2 -34 -7t-28 -13.5t-19.5 -21.5t-7.5 -31q0 -21 10.5 -34.5
t25.5 -21t32 -10.5t31 -3q18 0 39.5 5t39.5 15.5t30.5 28t12.5 43.5v77zM229 574v115h121v-115h-121z" />
    <glyph glyph-name="Ecedilla" unicode="&#x228;" horiz-adv-x="630" 
d="M73 714h516v-115h-384v-177h356v-109h-356v-198h391v-115h-523v714zM240 -148q20 -9 35.5 -13.5t31.5 -4.5q19 0 37.5 6.5t18.5 29.5q0 17 -13 25.5t-29 8.5q-23 0 -39 -11l-26 23l69 92h56l-42 -56q4 1 10.5 1h12.5q15 0 31 -5t28.5 -14.5t20.5 -24.5t8 -35
q0 -26 -11 -44t-28.5 -29.5t-40 -16.5t-44.5 -5q-29 0 -56.5 6t-50.5 19z" />
    <glyph glyph-name="ecedilla" unicode="&#x229;" 
d="M407 307q-2 25 -11.5 48.5t-25 40.5t-37.5 27.5t-50 10.5q-57 0 -91.5 -36.5t-38.5 -90.5h254zM153 226q1 -29 9 -54.5t24.5 -45.5t41.5 -31.5t58 -11.5q48 0 77 21t44 63h114q-9 -44 -31 -77.5t-53.5 -56.5t-70 -35t-80.5 -12q-62 0 -109 20t-79 56t-48.5 86t-16.5 110
q0 55 17.5 104.5t50 87t78.5 59.5t104 22q56 0 101.5 -21.5t77.5 -58t49.5 -84.5t17.5 -100v-21.5t-2 -19.5h-374zM189 -162q20 -9 35.5 -13.5t31.5 -4.5q19 0 37.5 6.5t18.5 29.5q0 17 -13 25.5t-29 8.5q-23 0 -39 -11l-26 23l69 92h56l-42 -56q4 1 10.5 1h12.5q15 0 31 -5
t28.5 -14.5t20.5 -24.5t8 -35q0 -26 -11 -44t-28.5 -29.5t-40 -16.5t-44.5 -5q-29 0 -56.5 6t-50.5 19z" />
    <glyph glyph-name="Odieresismacron" unicode="&#x22a;" horiz-adv-x="760" 
d="M378 622q-56 0 -95.5 -22.5t-65.5 -59.5t-38 -85t-12 -98t12 -98t38 -85t65.5 -59.5t95.5 -22.5q55 0 95 22.5t66 59.5t38 85t12 98t-12 98t-38 85t-66 59.5t-95 22.5zM378 731q80 0 143.5 -30t107.5 -81t67.5 -119t23.5 -144q0 -77 -23.5 -145t-67.5 -119t-107.5 -80.5
t-143.5 -29.5t-143.5 29.5t-107.5 80.5t-67.5 119t-23.5 145q0 76 23.5 144t67.5 119t107.5 81t143.5 30zM234 774v115h121v-115h-121zM525 889v-115h-121v115h121zM233 932v72h293v-72h-293z" />
    <glyph glyph-name="odieresismacron" unicode="&#x22b;" horiz-adv-x="593" 
d="M295 -14q-62 0 -110.5 20.5t-82 56.5t-51 86t-17.5 110q0 59 17.5 109t51 86t82 56.5t110.5 20.5t110.5 -20.5t82 -56.5t51 -86t17.5 -109q0 -60 -17.5 -110t-51 -86t-82 -56.5t-110.5 -20.5zM295 83q36 0 63 15.5t44 40t25.5 56t8.5 64.5q0 32 -8.5 63.5t-25.5 56
t-44 40t-63 15.5q-37 0 -63.5 -15.5t-44 -40t-25.5 -56t-8 -63.5q0 -33 8 -64.5t25.5 -56t44 -40t63.5 -15.5zM151 574v115h121v-115h-121zM442 689v-115h-121v115h121zM150 732v72h293v-72h-293z" />
    <glyph glyph-name="Otildemacron" unicode="&#x22c;" horiz-adv-x="760" 
d="M378 622q-56 0 -95.5 -22.5t-65.5 -59.5t-38 -85t-12 -98t12 -98t38 -85t65.5 -59.5t95.5 -22.5q55 0 95 22.5t66 59.5t38 85t12 98t-12 98t-38 85t-66 59.5t-95 22.5zM378 731q80 0 143.5 -30t107.5 -81t67.5 -119t23.5 -144q0 -77 -23.5 -145t-67.5 -119t-107.5 -80.5
t-143.5 -29.5t-143.5 29.5t-107.5 80.5t-67.5 119t-23.5 145q0 76 23.5 144t67.5 119t107.5 81t143.5 30zM559 900q-4 -26 -12 -48.5t-22 -38.5q-13 -16 -32.5 -25.5t-47.5 -9.5q-17 0 -37.5 5.5t-38.5 13.5q-20 8 -35 13t-30 5q-31 0 -39 -41h-65q3 21 11.5 42t22 38.5
t32 28.5t42.5 11q20 0 36 -3.5t46 -16.5q21 -9 34 -13.5t26 -4.5q20 0 30.5 12t15.5 32h63zM233 943v72h293v-72h-293z" />
    <glyph glyph-name="otildemacron" unicode="&#x22d;" horiz-adv-x="593" 
d="M295 -14q-62 0 -110.5 20.5t-82 56.5t-51 86t-17.5 110q0 59 17.5 109t51 86t82 56.5t110.5 20.5t110.5 -20.5t82 -56.5t51 -86t17.5 -109q0 -60 -17.5 -110t-51 -86t-82 -56.5t-110.5 -20.5zM295 83q36 0 63 15.5t44 40t25.5 56t8.5 64.5q0 32 -8.5 63.5t-25.5 56
t-44 40t-63 15.5q-37 0 -63.5 -15.5t-44 -40t-25.5 -56t-8 -63.5q0 -33 8 -64.5t25.5 -56t44 -40t63.5 -15.5zM476 700q-4 -26 -12 -48.5t-22 -38.5q-13 -16 -32.5 -25.5t-47.5 -9.5q-17 0 -37.5 5.5t-38.5 13.5q-20 8 -35 13t-30 5q-31 0 -39 -41h-65q3 21 11.5 42t22 38.5
t32 28.5t42.5 11q20 0 36 -3.5t46 -16.5q21 -9 34 -13.5t26 -4.5q20 0 30.5 12t15.5 32h63zM150 743v72h293v-72h-293z" />
    <glyph glyph-name="Odotaccent" unicode="&#x22e;" horiz-adv-x="760" 
d="M378 622q-56 0 -95.5 -22.5t-65.5 -59.5t-38 -85t-12 -98t12 -98t38 -85t65.5 -59.5t95.5 -22.5q55 0 95 22.5t66 59.5t38 85t12 98t-12 98t-38 85t-66 59.5t-95 22.5zM378 731q80 0 143.5 -30t107.5 -81t67.5 -119t23.5 -144q0 -77 -23.5 -145t-67.5 -119t-107.5 -80.5
t-143.5 -29.5t-143.5 29.5t-107.5 80.5t-67.5 119t-23.5 145q0 76 23.5 144t67.5 119t107.5 81t143.5 30zM319 774v115h121v-115h-121z" />
    <glyph glyph-name="odotaccent" unicode="&#x22f;" horiz-adv-x="593" 
d="M295 -14q-62 0 -110.5 20.5t-82 56.5t-51 86t-17.5 110q0 59 17.5 109t51 86t82 56.5t110.5 20.5t110.5 -20.5t82 -56.5t51 -86t17.5 -109q0 -60 -17.5 -110t-51 -86t-82 -56.5t-110.5 -20.5zM295 83q36 0 63 15.5t44 40t25.5 56t8.5 64.5q0 32 -8.5 63.5t-25.5 56
t-44 40t-63 15.5q-37 0 -63.5 -15.5t-44 -40t-25.5 -56t-8 -63.5q0 -33 8 -64.5t25.5 -56t44 -40t63.5 -15.5zM236 574v115h121v-115h-121z" />
    <glyph glyph-name="Odotaccentmacron" unicode="&#x230;" horiz-adv-x="760" 
d="M378 622q-56 0 -95.5 -22.5t-65.5 -59.5t-38 -85t-12 -98t12 -98t38 -85t65.5 -59.5t95.5 -22.5q55 0 95 22.5t66 59.5t38 85t12 98t-12 98t-38 85t-66 59.5t-95 22.5zM378 731q80 0 143.5 -30t107.5 -81t67.5 -119t23.5 -144q0 -77 -23.5 -145t-67.5 -119t-107.5 -80.5
t-143.5 -29.5t-143.5 29.5t-107.5 80.5t-67.5 119t-23.5 145q0 76 23.5 144t67.5 119t107.5 81t143.5 30zM319 774v115h121v-115h-121zM233 932v72h293v-72h-293z" />
    <glyph glyph-name="odotaccentmacron" unicode="&#x231;" horiz-adv-x="593" 
d="M295 -14q-62 0 -110.5 20.5t-82 56.5t-51 86t-17.5 110q0 59 17.5 109t51 86t82 56.5t110.5 20.5t110.5 -20.5t82 -56.5t51 -86t17.5 -109q0 -60 -17.5 -110t-51 -86t-82 -56.5t-110.5 -20.5zM295 83q36 0 63 15.5t44 40t25.5 56t8.5 64.5q0 32 -8.5 63.5t-25.5 56
t-44 40t-63 15.5q-37 0 -63.5 -15.5t-44 -40t-25.5 -56t-8 -63.5q0 -33 8 -64.5t25.5 -56t44 -40t63.5 -15.5zM236 574v115h121v-115h-121zM150 732v72h293v-72h-293z" />
    <glyph glyph-name="Ymacron" unicode="&#x232;" horiz-adv-x="648" 
d="M257 281l-268 433h152l185 -313l91 156l91 157h147l-267 -433v-281h-131v281zM177 757v72h293v-72h-293z" />
    <glyph glyph-name="ymacron" unicode="&#x233;" horiz-adv-x="519" 
d="M-1 517h132l132 -370l126 370h126l-200 -542q-14 -37 -29 -69.5t-35.5 -56.5t-49 -37.5t-70.5 -13.5q-43 0 -82 6v102q13 -3 31 -4.5t26 -1.5q18 0 30 5t20.5 14t14 21.5t10.5 27.5l13 38zM112 560v72h293v-72h-293z" />
    <glyph glyph-name="uni0237.dotlessj" unicode="&#x237;" horiz-adv-x="241" 
d="M59 517h120v-556q0 -79 -34.5 -121t-115.5 -42q-17 0 -28.5 1t-25.5 4v97q14 -3 24 -4t18 -1q28 0 35 17.5t7 53.5v551z" />
    <glyph glyph-name="uni0259.schwa" unicode="&#x259;" 
d="M145 210q2 -26 11.5 -49t25 -40t37.5 -27.5t50 -10.5q57 0 91.5 36.5t38.5 90.5h-254zM399 291q-1 28 -9 54t-24.5 46t-41.5 31.5t-58 11.5q-49 0 -77.5 -21t-43.5 -63h-114q9 43 31 77t53.5 57t70 35t80.5 12q61 0 108 -20t79.5 -56t49 -86t16.5 -110
q0 -55 -17.5 -104.5t-50 -87t-78.5 -59.5t-104 -22q-57 0 -102.5 21.5t-77.5 58t-49 84t-17 100.5v21.5t2 19.5h374z" />
    <glyph glyph-name="commaturnedmod" unicode="&#x2bb;" horiz-adv-x="278" 
d="M204 650q-58 -23 -60 -81h60v-142h-131v138q0 29 10.5 53.5t28.5 43t41.5 32.5t50.5 22v-66z" />
    <glyph glyph-name="afii57929" unicode="&#x2bc;" horiz-adv-x="278" 
d="M73 492q34 5 46.5 28t13.5 53h-60v141h131v-137q0 -60 -35 -101t-96 -50v66z" />
    <glyph glyph-name="circumflex" unicode="&#x2c6;" horiz-adv-x="241" 
d="M51 582h-99l111 150h113l113 -150h-100l-70 87z" />
    <glyph glyph-name="caron" unicode="&#x2c7;" horiz-adv-x="241" 
d="M175 582h-113l-111 150h99l68 -86l70 86h100z" />
    <glyph glyph-name="uni02C9" unicode="&#x2c9;" horiz-adv-x="241" 
d="M-26 617v72h293v-72h-293z" />
    <glyph glyph-name="breve" unicode="&#x2d8;" horiz-adv-x="241" 
d="M20 731q8 -42 36.5 -58.5t66.5 -16.5q37 0 63 18.5t34 56.5h63q-8 -75 -53 -111.5t-115 -36.5t-111.5 38t-47.5 110h64z" />
    <glyph glyph-name="dotaccent" unicode="&#x2d9;" horiz-adv-x="241" 
d="M60 595v115h121v-115h-121z" />
    <glyph glyph-name="ring" unicode="&#x2da;" horiz-adv-x="241" 
d="M65 670q0 -24 16 -40t39 -16q25 0 40.5 16t15.5 40q0 26 -15.5 41.5t-40.5 15.5q-23 0 -39 -15.5t-16 -41.5zM120 565q-44 0 -75 29t-31 76q0 24 8.5 43.5t23.5 33.5t34 21.5t40 7.5q22 0 41.5 -7.5t34 -21.5t23 -33.5t8.5 -43.5q0 -23 -8.5 -42.5t-23 -33.5t-34 -21.5
t-41.5 -7.5z" />
    <glyph glyph-name="ogonek" unicode="&#x2db;" horiz-adv-x="241" 
d="M225 8q-30 -23 -49.5 -41.5t-30.5 -34t-15.5 -29t-4.5 -27.5q0 -18 10.5 -28.5t24.5 -10.5t25.5 7t24.5 27l47 -10q-6 -24 -18.5 -40t-27.5 -25.5t-31.5 -13t-31.5 -3.5q-8 0 -25 2t-34.5 11.5t-31 28t-13.5 51.5q0 7 2 19.5t13.5 30t35 39t66.5 47.5h64z" />
    <glyph glyph-name="tilde" unicode="&#x2dc;" horiz-adv-x="241" 
d="M299 720q-4 -26 -12 -48.5t-22 -38.5q-13 -16 -32.5 -25.5t-47.5 -9.5q-17 0 -37.5 5.5t-38.5 13.5q-20 8 -35 13t-30 5q-31 0 -39 -41h-65q3 21 11.5 42t22 38.5t32 28.5t42.5 11q20 0 36 -3.5t46 -16.5q21 -9 34 -13.5t26 -4.5q20 0 30.5 12t15.5 32h63z" />
    <glyph glyph-name="hungarumlaut" unicode="&#x2dd;" horiz-adv-x="241" 
d="M250 732h147l-151 -150h-90zM53 732h147l-151 -150h-90z" />
    <glyph glyph-name="uni02EE" unicode="&#x2ee;" horiz-adv-x="444" 
d="M253 491q60 22 61 82h-61v141h132v-137q0 -29 -10.5 -53.5t-28.5 -44t-42 -33t-51 -20.5v65zM57 491q59 23 60 82h-60v141h131v-137q0 -29 -10.5 -53.5t-28.5 -44t-41.5 -33t-50.5 -20.5v65z" />
    <glyph glyph-name="gravecmb" unicode="&#x300;" horiz-adv-x="241" 
d="M106 732l95 -150h-91l-148 150h144z" />
    <glyph glyph-name="acutecmb" unicode="&#x301;" horiz-adv-x="241" 
d="M132 732h146l-149 -150h-91z" />
    <glyph glyph-name="circumflexcmb" unicode="&#x302;" horiz-adv-x="241" 
d="M51 582h-99l111 150h113l113 -150h-100l-70 87z" />
    <glyph glyph-name="tildecmb" unicode="&#x303;" horiz-adv-x="241" 
d="M299 720q-4 -26 -12 -48.5t-22 -38.5q-13 -16 -32.5 -25.5t-47.5 -9.5q-17 0 -37.5 5.5t-38.5 13.5q-20 8 -35 13t-30 5q-31 0 -39 -41h-65q3 21 11.5 42t22 38.5t32 28.5t42.5 11q20 0 36 -3.5t46 -16.5q21 -9 34 -13.5t26 -4.5q20 0 30.5 12t15.5 32h63z" />
    <glyph glyph-name="macroncmb" unicode="&#x304;" horiz-adv-x="241" 
d="M-26 617v72h293v-72h-293z" />
    <glyph glyph-name="brevecmb" unicode="&#x306;" horiz-adv-x="241" 
d="M20 731q8 -42 36.5 -58.5t66.5 -16.5q37 0 63 18.5t34 56.5h63q-8 -75 -53 -111.5t-115 -36.5t-111.5 38t-47.5 110h64z" />
    <glyph glyph-name="dotaccentcmb" unicode="&#x307;" horiz-adv-x="241" 
d="M60 595v115h121v-115h-121z" />
    <glyph glyph-name="dieresiscmb" unicode="&#x308;" horiz-adv-x="241" 
d="M-26 595v115h121v-115h-121zM265 710v-115h-121v115h121z" />
    <glyph glyph-name="uni0309.hookAboveComb" unicode="&#x309;" horiz-adv-x="1" 
d="M-352 784q27 3 50 3q16 0 34.5 -4t34.5 -14t27 -26.5t11 -41.5q0 -23 -14 -42.5t-55 -29.5q0 -5 -1 -11.5t-1 -11.5h-62v51q38 3 50 14.5t12 22.5q0 21 -10 29.5t-35 8.5q-11 0 -20 -1t-19 -4z" />
    <glyph glyph-name="ringcmb" unicode="&#x30a;" horiz-adv-x="241" 
d="M65 670q0 -24 16 -40t39 -16q25 0 40.5 16t15.5 40q0 26 -15.5 41.5t-40.5 15.5q-23 0 -39 -15.5t-16 -41.5zM120 565q-44 0 -75 29t-31 76q0 24 8.5 43.5t23.5 33.5t34 21.5t40 7.5q22 0 41.5 -7.5t34 -21.5t23 -33.5t8.5 -43.5q0 -23 -8.5 -42.5t-23 -33.5t-34 -21.5
t-41.5 -7.5z" />
    <glyph glyph-name="hungarumlautcmb" unicode="&#x30b;" horiz-adv-x="241" 
d="M250 732h147l-151 -150h-90zM53 732h147l-151 -150h-90z" />
    <glyph glyph-name="caroncmb" unicode="&#x30c;" horiz-adv-x="241" 
d="M175 582h-113l-111 150h99l68 -86l70 86h100z" />
    <glyph glyph-name="uni030F.doubleGraveComb" unicode="&#x30f;" horiz-adv-x="0" 
d="M-144 582h-90l-151 150h147zM-341 582h-90l-151 150h147z" />
    <glyph glyph-name="uni0311.breveInvertedComb" unicode="&#x311;" horiz-adv-x="0" 
d="M-176 583q-8 42 -36 59t-66 17q-37 0 -63 -19t-34 -57h-64q9 75 54 111.5t114 36.5q70 0 112 -38t48 -110h-65z" />
    <glyph glyph-name="uni031B.hornComb" unicode="&#x31b;" horiz-adv-x="0" 
d="M-126 469h14q14 -22 46 -22q17 0 29 7t19 18t10 24.5t3 27.5q0 29 -10.5 55t-26.5 49l1 2h97q14 -17 24.5 -43t10.5 -58q0 -38 -12 -68t-31.5 -50t-44 -30.5t-49.5 -10.5q-31 0 -51.5 10.5t-27.5 23.5z" />
    <glyph glyph-name="uni0323.dotBelowComb" unicode="&#x323;" horiz-adv-x="0" 
d="M-340 -196v115h121v-115h-121z" />
    <glyph glyph-name="uni0324.diaeresisBelowComb" unicode="&#x324;" horiz-adv-x="0" 
d="M-437 -196v115h121v-115h-121zM-146 -81v-115h-121v115h121z" />
    <glyph glyph-name="uni0325.ringBelowComb" unicode="&#x325;" horiz-adv-x="0" 
d="M-340 -140q0 -25 16.5 -41t39.5 -16q24 0 39.5 16t15.5 41t-15.5 40.5t-39.5 15.5q-23 0 -39.5 -15.5t-16.5 -40.5zM-284 -246q-45 0 -76 29t-31 77q0 24 8.5 43t23.5 33t34.5 21.5t40.5 7.5q43 0 74.5 -28.5t31.5 -76.5q0 -24 -8.5 -43.5t-23 -33.5t-34 -21.5
t-40.5 -7.5z" />
    <glyph glyph-name="uni0326.commaBelowComb" unicode="&#x326;" horiz-adv-x="0" 
d="M-300 -59h136l-92 -150h-86z" />
    <glyph glyph-name="cedillacmb" unicode="&#x327;" horiz-adv-x="241" 
d="M25 -148q20 -9 35.5 -13.5t31.5 -4.5q19 0 37.5 6.5t18.5 29.5q0 17 -13 25.5t-29 8.5q-23 0 -39 -11l-26 23l69 92h56l-42 -56q4 1 10.5 1h12.5q15 0 31 -5t28.5 -14.5t20.5 -24.5t8 -35q0 -26 -11 -44t-28.5 -29.5t-40 -16.5t-44.5 -5q-29 0 -56.5 6t-50.5 19z" />
    <glyph glyph-name="ogonekcmb" unicode="&#x328;" horiz-adv-x="241" 
d="M225 8q-30 -23 -49.5 -41.5t-30.5 -34t-15.5 -29t-4.5 -27.5q0 -18 10.5 -28.5t24.5 -10.5t25.5 7t24.5 27l47 -10q-6 -24 -18.5 -40t-27.5 -25.5t-31.5 -13t-31.5 -3.5q-8 0 -25 2t-34.5 11.5t-31 28t-13.5 51.5q0 7 2 19.5t13.5 30t35 39t66.5 47.5h64z" />
    <glyph glyph-name="uni032D.circumflexBelowComb" unicode="&#x32d;" horiz-adv-x="0" 
d="M-341 -209h-99l111 150h113l114 -150h-101l-69 87z" />
    <glyph glyph-name="uni032E.breveBelowComb" unicode="&#x32e;" horiz-adv-x="0" 
d="M-384 -60q8 -42 36.5 -58.5t66.5 -16.5q36 0 62 18.5t34 56.5h64q-8 -75 -53 -111.5t-115 -36.5t-112 38t-48 110h65z" />
    <glyph glyph-name="uni0330.tildeBelowComb" unicode="&#x330;" horiz-adv-x="0" 
d="M-117 -71q-4 -26 -12.5 -48.5t-22.5 -38.5q-13 -16 -32 -25.5t-48 -9.5q-17 0 -37 5.5t-38 13.5q-20 8 -35.5 13t-29.5 5q-32 0 -40 -41h-64q3 21 11.5 42t22 38.5t31.5 28.5t42 11q10 0 18.5 -0.5t17.5 -3t20.5 -6.5t26.5 -10q20 -9 33 -13.5t26 -4.5q20 0 30.5 12
t15.5 32h64z" />
    <glyph glyph-name="uni0331.macronBelowComb" unicode="&#x331;" horiz-adv-x="0" 
d="M-447 -174v72h293v-72h-293z" />
    <glyph glyph-name="uni0338.slashComb" unicode="&#x338;" horiz-adv-x="0" 
d="M-81 724h85l-418 -748h-86z" />
    <glyph glyph-name="uni0340.graveToneComb" unicode="&#x340;" horiz-adv-x="0" 
d="M-294 732l95 -150h-91l-148 150h144z" />
    <glyph glyph-name="uni0341.acuteToneComb" unicode="&#x341;" horiz-adv-x="0" 
d="M-272 732h145l-148 -150h-91z" />
    <glyph glyph-name="uni0344.diaeresisTonosComb" unicode="&#x344;" horiz-adv-x="0" 
d="M-484 598v115h120v-115h-120zM-323 732h137l-92 -150h-86zM-196 598v115h120v-115h-120z" />
    <glyph glyph-name="uni037E.semicolonGreek" unicode="&#x37e;" horiz-adv-x="278" 
d="M65 508h145v-141h-145v141zM65 141h145v-137q-1 -64 -39.5 -106t-101.5 -55v68q32 8 47.5 34t16.5 55h-68v141z" />
    <glyph glyph-name="uni0384.tonos" unicode="&#x384;" horiz-adv-x="241" 
d="M73 732h136l-92 -150h-86z" />
    <glyph glyph-name="uni0385.diaeresisTonos" unicode="&#x385;" horiz-adv-x="428" 
d="M8 598v115h121v-115h-121zM169 732h137l-92 -150h-86zM296 598v115h121v-115h-121z" />
    <glyph glyph-name="uni0386.AlphaTonos" unicode="&#x386;" horiz-adv-x="711" 
d="M61 732h137l-92 -150h-86zM307 714h137l275 -714h-141l-67 187h-276l-66 -187h-136zM272 289h204l-51.5 143.5l-51.5 143.5z" />
    <glyph glyph-name="uni0387.anoteleia" unicode="&#x387;" horiz-adv-x="278" 
d="M65 445h145v-141h-145v141z" />
    <glyph glyph-name="uni0388.EpsilonTonos" unicode="&#x388;" horiz-adv-x="800" 
d="M64 732h136l-92 -150h-86zM242 714h516v-115h-385v-177h356v-109h-356v-198h392v-115h-523v714z" />
    <glyph glyph-name="uni0389.EtaTonos" unicode="&#x389;" horiz-adv-x="892" 
d="M64 732h136l-92 -150h-86zM239 714h131v-281h314v281h131v-714h-131v318h-314v-318h-131v714z" />
    <glyph glyph-name="uni038A.IotaTonos" unicode="&#x38a;" horiz-adv-x="448" 
d="M62 732h137l-92 -150h-86zM240 714h132v-714h-132v714z" />
    <glyph glyph-name="uni038C.OmicronTonos" unicode="&#x38c;" horiz-adv-x="870" 
d="M64 732h136l-92 -150h-86zM487 622q-56 0 -95.5 -22.5t-65.5 -59.5t-38 -85t-12 -98t12 -98t38 -85t65.5 -59.5t95.5 -22.5q55 0 95 22.5t66 59.5t38 85t12 98t-12 98t-38 85t-66 59.5t-95 22.5zM487 731q80 0 143.5 -30t107.5 -81t67.5 -119t23.5 -144q0 -77 -23.5 -145
t-67.5 -119t-107.5 -80.5t-143.5 -29.5t-143.5 29.5t-107.5 80.5t-67.5 119t-23.5 145q0 76 23.5 144t67.5 119t107.5 81t143.5 30z" />
    <glyph glyph-name="uni038E.UpsilonTonos" unicode="&#x38e;" horiz-adv-x="858" 
d="M64 732h136l-92 -150h-86zM465 281l-268 433h153l185 -313l90.5 156l90.5 157h148l-267 -433v-281h-132v281z" />
    <glyph glyph-name="uni038F.OmegaTonos" unicode="&#x38f;" horiz-adv-x="864" 
d="M64 732h136l-92 -150h-86zM141 115l153 -2q-65 49 -106 123.5t-41 175.5q0 77 24 136.5t68 100t106.5 61.5t140.5 21t140.5 -21t106.5 -61.5t68 -100t24 -136.5q0 -101 -41 -174.5t-104 -122.5h151v-115h-287v114q72 56 108.5 125t36.5 167q0 49 -13.5 89t-39 68.5
t-63.5 44t-87 15.5q-50 0 -87.5 -15.5t-63.5 -44t-39 -68.5t-13 -89q0 -98 36.5 -167t108.5 -125v-114h-287v115z" />
    <glyph glyph-name="uni0390.iotaDiaeresisTonos" unicode="&#x390;" horiz-adv-x="326" 
d="M215 115q0 -23 8.5 -27.5t19.5 -4.5h6q5 0 9 1q2 0 5.5 0.5t5.5 0.5v-85q-14 -5 -37 -9.5t-39 -4.5q-52 0 -75 26.5t-23 78.5v426h120v-402zM-26 594v94h100v-94h-100zM134 749h136l-90 -178h-87zM260 594v94h101v-94h-101z" />
    <glyph glyph-name="uni0391.Alpha" unicode="&#x391;" horiz-adv-x="667" 
d="M263 714h137l275 -714h-141l-66 187h-276l-67 -187h-136zM228 289h204l-51.5 144l-51.5 144z" />
    <glyph glyph-name="uni0392.Beta" unicode="&#x392;" horiz-adv-x="704" 
d="M205 418h198q43 0 71 24.5t28 69.5q0 51 -25.5 72t-73.5 21h-198v-187zM73 714h347q97 0 155.5 -44t58.5 -135q0 -51 -24 -89.5t-68 -61.5q64 -17 94 -64t30 -119q0 -42 -15 -79t-47.5 -64t-82.5 -42.5t-119 -15.5h-329v714zM205 109h214q55 0 85 28t30 80q0 51 -30 77.5
t-85 26.5h-214v-212z" />
    <glyph glyph-name="uni0393.Gamma" unicode="&#x393;" horiz-adv-x="593" 
d="M73 714h495v-115h-363v-599h-132v714z" />
    <glyph glyph-name="uni0394" unicode="&#x394;" horiz-adv-x="683" 
d="M332 574l-172 -469h354zM5 0l272 712h115l283 -712h-670z" />
    <glyph glyph-name="uni0395.Epsilon" unicode="&#x395;" horiz-adv-x="630" 
d="M73 714h516v-115h-384v-177h356v-109h-356v-198h391v-115h-523v714z" />
    <glyph glyph-name="uni0396.Zeta" unicode="&#x396;" horiz-adv-x="630" 
d="M52 714h545v-100l-407 -499h417v-115h-586v107l407 492h-376v115z" />
    <glyph glyph-name="uni0397.Eta" unicode="&#x397;" horiz-adv-x="722" 
d="M70 714h132v-281h313v281h132v-714h-132v318h-313v-318h-132v714z" />
    <glyph glyph-name="uni0398.Theta" unicode="&#x398;" horiz-adv-x="760" 
d="M378 622q-56 0 -95.5 -22.5t-65.5 -59.5t-38 -85t-12 -98t12 -98t38 -85t65.5 -59.5t95.5 -22.5q55 0 95 22.5t66 59.5t38 85t12 98t-12 98t-38 85t-66 59.5t-95 22.5zM378 731q80 0 143.5 -30t107.5 -81t67.5 -119t23.5 -144q0 -77 -23.5 -145t-67.5 -119t-107.5 -80.5
t-143.5 -29.5t-143.5 29.5t-107.5 80.5t-67.5 119t-23.5 145q0 76 23.5 144t67.5 119t107.5 81t143.5 30zM230 417h295v-114h-295v114z" />
    <glyph glyph-name="uni0399.Iota" unicode="&#x399;" horiz-adv-x="278" 
d="M72 714h131v-714h-131v714z" />
    <glyph glyph-name="uni039A.Kappa" unicode="&#x39a;" horiz-adv-x="685" 
d="M73 714h132v-315l308 315h165l-287 -287l151.5 -213.5l151.5 -213.5h-163l-229 336l-22 -22l-26.5 -26.5l-26.5 -26.5l-22 -22v-239h-132v714z" />
    <glyph glyph-name="uni039B.Lambda" unicode="&#x39b;" horiz-adv-x="667" 
d="M125 0h-136l274 714h137l275 -714h-141l-205 577z" />
    <glyph glyph-name="uni039C.Mu" unicode="&#x39c;" horiz-adv-x="889" 
d="M72 714h181l193 -545l94 272.5l93 272.5h179v-714h-125l-2 526l-189 -526h-108l-191 526v-526h-125v714z" />
    <glyph glyph-name="uni039D.Nu" unicode="&#x39d;" horiz-adv-x="722" 
d="M68 714h137l318 -511v511h126v-714h-137l-318 510v-510h-126v714z" />
    <glyph glyph-name="uni039E.Xi" unicode="&#x39e;" horiz-adv-x="622" 
d="M35 0v115h548v-115h-548zM42 599v115h534v-115h-534zM71 313v109h477v-109h-477z" />
    <glyph glyph-name="uni039F.Omicron" unicode="&#x39f;" horiz-adv-x="760" 
d="M378 622q-56 0 -95.5 -22.5t-65.5 -59.5t-38 -85t-12 -98t12 -98t38 -85t65.5 -59.5t95.5 -22.5q55 0 95 22.5t66 59.5t38 85t12 98t-12 98t-38 85t-66 59.5t-95 22.5zM378 731q80 0 143.5 -30t107.5 -81t67.5 -119t23.5 -144q0 -77 -23.5 -145t-67.5 -119t-107.5 -80.5
t-143.5 -29.5t-143.5 29.5t-107.5 80.5t-67.5 119t-23.5 145q0 76 23.5 144t67.5 119t107.5 81t143.5 30z" />
    <glyph glyph-name="uni03A0.Pi" unicode="&#x3a0;" horiz-adv-x="722" 
d="M70 714h577v-714h-132v599h-313v-599h-132v714z" />
    <glyph glyph-name="uni03A1.Rho" unicode="&#x3a1;" horiz-adv-x="667" 
d="M73 714h316q76 0 124 -22t74.5 -55.5t36 -72.5t9.5 -73q0 -33 -9.5 -71.5t-36 -71.5t-74.5 -55t-124 -22h-184v-271h-132v714zM205 380h177q20 0 41 5.5t38.5 18.5t28.5 34.5t11 53.5q0 34 -9.5 55.5t-25.5 34.5t-37 18t-45 5h-179v-225z" />
    <glyph glyph-name="uni03A3.Sigma" unicode="&#x3a3;" horiz-adv-x="605" 
d="M450 375l-242 -260h363v-115h-523v108l249 263l-249 248v95h516v-115h-341z" />
    <glyph glyph-name="uni03A4.Tau" unicode="&#x3a4;" horiz-adv-x="593" 
d="M6 714h579v-115h-224v-599h-132v599h-223v115z" />
    <glyph glyph-name="uni03A5.Upsilon" unicode="&#x3a5;" horiz-adv-x="648" 
d="M257 281l-268 433h152l185 -313l91 156l91 157h147l-267 -433v-281h-131v281z" />
    <glyph glyph-name="uni03A6.Phi" unicode="&#x3a6;" horiz-adv-x="746" 
d="M305 81q-68 7 -120 31t-86.5 62t-52 87.5t-17.5 106.5q0 58 16.5 107.5t50.5 87t86 61.5t123 31v89h131v-89q70 -7 122.5 -31t86.5 -61.5t51 -87t17 -107.5q0 -57 -17.5 -106.5t-52.5 -87.5t-87 -62t-120 -31v-81h-131v81zM586 368q0 34 -8 64t-26 53.5t-46.5 40
t-69.5 22.5v-359q41 6 69.5 22.5t46.5 40t26 53t8 63.5zM156 368q0 -68 33.5 -116.5t115.5 -62.5v358q-82 -14 -115.5 -62.5t-33.5 -116.5z" />
    <glyph glyph-name="uni03A7.Chi" unicode="&#x3a7;" horiz-adv-x="648" 
d="M9 714h156l158 -246l83 123l82 123h148l-237 -344l254 -370h-160l-174 267l-88 -133.5l-89 -133.5h-150l253 370z" />
    <glyph glyph-name="uni03A8.Psi" unicode="&#x3a8;" horiz-adv-x="821" 
d="M341 155q-60 4 -110.5 18t-87 41.5t-57 70t-20.5 104.5v325h131v-314q0 -60 33.5 -90.5t110.5 -38.5v443h132v-443q78 8 112 38.5t34 90.5v314h132v-325q0 -62 -20.5 -104.5t-57.5 -70t-88 -41.5t-112 -18v-155h-132v155z" />
    <glyph glyph-name="uni03A9" unicode="&#x3a9;" horiz-adv-x="757" 
d="M24 115l153 -2q-65 49 -106 123.5t-41 175.5q0 77 24 136.5t68 100t106.5 61.5t140.5 21t140.5 -21t106.5 -61.5t68 -100t24 -136.5q0 -101 -41 -174.5t-104 -122.5h151v-115h-287v114q72 56 108.5 125t36.5 167q0 49 -13.5 89t-39 68.5t-63.5 44t-87 15.5
q-50 0 -87.5 -15.5t-63.5 -44t-39 -68.5t-13 -89q0 -98 36.5 -167t108.5 -125v-114h-287v115z" />
    <glyph glyph-name="uni03AA.IotaDiaeresis" unicode="&#x3aa;" horiz-adv-x="278" 
d="M72 714h131v-714h-131v714zM-7 790v115h121v-115h-121zM284 905v-115h-121v115h121z" />
    <glyph glyph-name="uni03AB.UpsilonDiaeresis" unicode="&#x3ab;" horiz-adv-x="648" 
d="M257 281l-268 433h152l185 -313l91 156l91 157h147l-267 -433v-281h-131v281zM177 790v115h120v-115h-120zM468 905v-115h-121v115h121z" />
    <glyph glyph-name="uni03AC.alphaTonos" unicode="&#x3ac;" horiz-adv-x="606" 
d="M541 115q0 -23 8.5 -27.5t19.5 -4.5h7q4 0 8 1q2 0 5.5 0.5t5.5 0.5v-85q-13 -5 -36.5 -9.5t-39.5 -4.5q-45 0 -66 21t-29 59q-26 -42 -67 -60t-94 -18q-58 0 -101 23t-71.5 61t-42.5 87t-14 101t14.5 101t44 87t75 60.5t107.5 22.5q45 0 83 -20.5t63 -52.5v59h120v-402z
M154 260q0 -31 7.5 -62.5t23.5 -57t41 -41.5t60 -16q39 0 65.5 16t43 41.5t24 58t7.5 65.5q0 35 -8.5 66t-25 54t-41.5 36.5t-58 13.5q-40 0 -67 -15t-43 -39t-22.5 -55.5t-6.5 -64.5zM255 729h135l-91 -149h-86z" />
    <glyph glyph-name="uni03AD.epsilonTonos" unicode="&#x3ad;" horiz-adv-x="540" 
d="M373 371q-7 37 -30 50.5t-71 13.5q-47 0 -76 -13.5t-29 -48.5q0 -32 19.5 -43.5t54.5 -11.5h87v-95h-86q-46 0 -67 -16t-21 -49q0 -41 32 -59t85 -18q45 0 77.5 18t42.5 69h120q-16 -98 -82.5 -140t-175.5 -42q-40 0 -79.5 8.5t-71 27.5t-51 49.5t-19.5 74.5q0 46 25 78
t62 46q-33 14 -51 40.5t-18 66.5q0 37 18 66t48 48.5t70 29.5t84 10q91 0 147 -37.5t71 -122.5h-115zM222 729h136l-92 -149h-86z" />
    <glyph glyph-name="uni03AE.etaTonos" unicode="&#x3ae;" horiz-adv-x="574" 
d="M57 517h115l2 -68q26 38 66 60t88 22q85 0 134.5 -44t49.5 -133v-542h-120v512q0 58 -23.5 84t-71.5 26q-27 0 -49.5 -10t-38 -27.5t-24 -41.5t-8.5 -51v-304h-120v517zM239 729h135l-91 -149h-86z" />
    <glyph glyph-name="uni03AF.iotaTonos" unicode="&#x3af;" horiz-adv-x="240" 
d="M179 115q0 -23 8.5 -27.5t19.5 -4.5h7q5 0 9 1q2 0 5 0.5t5 0.5v-85q-13 -5 -36.5 -9.5t-38.5 -4.5q-52 0 -75.5 26.5t-23.5 78.5v426h120v-402zM73 729h136l-92 -149h-85z" />
    <glyph glyph-name="uni03B0.upsilonDiaeresisTonos" unicode="&#x3b0;" horiz-adv-x="575" 
d="M296 83q31 0 54 15.5t38 41.5t22.5 61t7.5 74q0 48 -6.5 86t-16.5 67.5t-23.5 51.5t-26.5 37h134q8 -14 18.5 -35t19.5 -51t15 -69.5t6 -89.5q0 -65 -17.5 -117.5t-50.5 -90t-79.5 -58t-104.5 -20.5q-64 0 -108 12.5t-71 38t-38.5 64t-11.5 89.5v327h121v-316
q0 -65 27.5 -91.5t90.5 -26.5zM79 594v94h101v-94h-101zM240 749h136l-91 -178h-87zM385 594v94h101v-94h-101z" />
    <glyph glyph-name="uni03B1.alpha" unicode="&#x3b1;" horiz-adv-x="606" 
d="M541 115q0 -23 8.5 -27.5t19.5 -4.5h7q4 0 8 1q2 0 5.5 0.5t5.5 0.5v-85q-13 -5 -36.5 -9.5t-39.5 -4.5q-45 0 -66 21t-29 59q-26 -42 -67 -60t-94 -18q-58 0 -101 23t-71.5 61t-42.5 87t-14 101t14.5 101t44 87t75 60.5t107.5 22.5q45 0 83 -20.5t63 -52.5v59h120v-402z
M154 260q0 -31 7.5 -62.5t23.5 -57t41 -41.5t60 -16q39 0 65.5 16t43 41.5t24 58t7.5 65.5q0 35 -8.5 66t-25 54t-41.5 36.5t-58 13.5q-40 0 -67 -15t-43 -39t-22.5 -55.5t-6.5 -64.5z" />
    <glyph glyph-name="uni03B2.beta" unicode="&#x3b2;" horiz-adv-x="578" 
d="M60 519q0 49 16.5 88t46 66t69.5 41t88 14q40 0 78.5 -12t68.5 -35t48.5 -57t18.5 -77q0 -49 -22 -89t-68 -60q57 -13 92 -60.5t35 -118.5q0 -49 -15.5 -91.5t-45.5 -74t-73.5 -49.5t-100.5 -18q-37 0 -64.5 8.5t-50.5 23.5v-206h-121v707zM181 138q17 -25 45 -40t71 -15
q32 0 54 12t35.5 31.5t19 44t5.5 49.5q0 39 -13.5 63.5t-36.5 38.5t-54.5 20t-68.5 8v81q28 0 52.5 5.5t43 18t29.5 32.5t11 49q0 95 -96 95q-16 0 -33 -5t-31.5 -18.5t-23.5 -38t-9 -62.5v-369z" />
    <glyph glyph-name="uni03B3.gamma" unicode="&#x3b3;" horiz-adv-x="522" 
d="M493 517q-13 -87 -33.5 -163.5t-46 -143.5t-55.5 -125t-63 -108v-165h-120v141q0 59 -16 136t-41 155.5t-56 150.5t-60 122h132q18 -31 38 -75.5t38 -94t33.5 -99t24.5 -91.5q18 37 33.5 75.5t27.5 82t21.5 93.5t16.5 109h126z" />
    <glyph glyph-name="uni03B4.delta" unicode="&#x3b4;" horiz-adv-x="593" 
d="M295 -14q-62 0 -110.5 20t-82 55.5t-51 84t-17.5 104.5q0 42 14 78t36.5 65t51.5 49t59 30q-38 19 -54 48t-16 58q0 43 17 71.5t44.5 46t62 25t69.5 7.5q43 0 87 -11t73 -26v-120q-42 35 -86 47.5t-82 12.5q-30 0 -47 -14t-17 -41q0 -21 11.5 -33.5t37.5 -23.5
q5 -2 10.5 -4.5t9.5 -4.5l68.5 -31t78.5 -45q39 -26 66.5 -72.5t27.5 -109.5q0 -57 -17.5 -105.5t-51 -84.5t-82 -56t-110.5 -20zM295 83q36 0 62.5 15.5t43.5 40t25.5 55t9.5 60.5q1 31 -6.5 51.5t-25.5 40.5q-20 19 -44 32.5t-65 27.5q-69 -14 -105 -50t-36 -108
q0 -29 8 -58t25.5 -53t44 -39t63.5 -15z" />
    <glyph glyph-name="uni03B5.epsilon" unicode="&#x3b5;" horiz-adv-x="540" 
d="M373 371q-7 37 -30 50.5t-71 13.5q-47 0 -76 -13.5t-29 -48.5q0 -32 19.5 -43.5t54.5 -11.5h87v-95h-86q-46 0 -67 -16t-21 -49q0 -41 32 -59t85 -18q45 0 77.5 18t42.5 69h120q-16 -98 -82.5 -140t-175.5 -42q-40 0 -79.5 8.5t-71 27.5t-51 49.5t-19.5 74.5q0 46 25 78
t62 46q-33 14 -51 40.5t-18 66.5q0 37 18 66t48 48.5t70 29.5t84 10q91 0 147 -37.5t71 -122.5h-115z" />
    <glyph glyph-name="uni03B6.zeta" unicode="&#x3b6;" horiz-adv-x="471" 
d="M335 83q73 0 104 -34t31 -95q0 -29 -2.5 -52t-11.5 -54h-118q9 33 11.5 54t2.5 37q0 24 -10.5 35.5t-40.5 11.5h-21q-55 0 -100 20t-77.5 56.5t-50 87t-17.5 112.5q0 60 17 113.5t46.5 98.5t68 80.5t82.5 59.5h-172v97h384v-89q-87 -32 -146.5 -70t-95 -82.5t-50 -96
t-12.5 -111.5q5 -179 147 -179h31z" />
    <glyph glyph-name="uni03B7.eta" unicode="&#x3b7;" horiz-adv-x="574" 
d="M57 517h115l2 -68q26 38 66 60t88 22q85 0 134.5 -44t49.5 -133v-542h-120v512q0 58 -23.5 84t-71.5 26q-27 0 -49.5 -10t-38 -27.5t-24 -41.5t-8.5 -51v-304h-120v517z" />
    <glyph glyph-name="uni03B8.theta" unicode="&#x3b8;" horiz-adv-x="593" 
d="M295 -14q-136 0 -198.5 91.5t-62.5 277.5q0 185 62.5 277.5t198.5 92.5t198.5 -92.5t62.5 -277.5q0 -186 -62.5 -277.5t-198.5 -91.5zM295 83q63 0 97.5 52t41.5 166h-279q7 -114 41.5 -166t98.5 -52zM295 628q-63 0 -97 -51.5t-43 -160.5h279q-8 109 -42.5 160.5
t-96.5 51.5z" />
    <glyph glyph-name="uni03B9.iota" unicode="&#x3b9;" horiz-adv-x="240" 
d="M179 115q0 -23 8.5 -27.5t19.5 -4.5h7q5 0 9 1q2 0 5.5 0.5t5.5 0.5v-85q-14 -5 -37.5 -9.5t-38.5 -4.5q-52 0 -75.5 26.5t-23.5 78.5v426h120v-402z" />
    <glyph glyph-name="uni03BA.kappa" unicode="&#x3ba;" horiz-adv-x="537" 
d="M60 517h121v-200l197 200h149l-200 -192l216 -325h-146l-153 245l-63 -61v-184h-121v517z" />
    <glyph glyph-name="uni03BB.lambda" unicode="&#x3bb;" horiz-adv-x="548" 
d="M267 372l-130 -372h-132l195 511l-16 47q-9 27 -25.5 47.5t-49.5 20.5q-27 0 -57 -8v104q39 6 82 6q45 0 74.5 -14.5t49.5 -39t33.5 -57t26.5 -67.5l165 -449q5 -12 13 -15t16 -3h7q5 0 9 1q2 0 5.5 0.5t5.5 0.5v-85q-14 -5 -37 -9.5t-39 -4.5q-35 0 -54 17t-30 44z" />
    <glyph glyph-name="uni03BC" unicode="&#x3bc;" horiz-adv-x="574" 
d="M512 0h-118l-2 61q-12 -15 -28 -29t-33.5 -24t-35.5 -16t-33 -6q-22 0 -44.5 6.5t-40.5 23.5v-204h-120v705h120v-316q0 -65 25 -91.5t69 -26.5q34 0 57 10.5t37.5 28.5t20.5 42.5t6 53.5v299h120v-517z" />
    <glyph glyph-name="uni03BD.nu" unicode="&#x3bd;" horiz-adv-x="521" 
d="M5 517h131l129 -387q20 48 36.5 93.5t30.5 92t25.5 96t20.5 105.5h123q-24 -136 -72 -266.5t-114 -250.5h-122z" />
    <glyph glyph-name="uni03BE.xi" unicode="&#x3be;" horiz-adv-x="458" 
d="M255 -14q-57 0 -98.5 15t-68.5 43t-40 66t-13 85q0 138 123 184q-44 18 -71.5 59t-27.5 101q0 48 18 84t48.5 59t71.5 34.5t88 11.5q35 0 71 -4.5t67 -17.5v-113q-35 18 -70.5 28t-67.5 10q-51 0 -78.5 -21.5t-27.5 -75.5q0 -47 28.5 -77t96.5 -30h96v-95h-100
q-41 0 -69 -7.5t-44.5 -23.5t-23.5 -39.5t-7 -55.5q0 -123 116 -123h41q74 0 109 -29.5t35 -99.5q0 -30 -2 -52.5t-11 -53.5h-119q8 33 11 53.5t3 35.5q0 26 -8.5 37.5t-37.5 11.5h-38z" />
    <glyph glyph-name="uni03BF.omicron" unicode="&#x3bf;" horiz-adv-x="593" 
d="M295 -14q-62 0 -110.5 20.5t-82 56.5t-51 86t-17.5 110q0 59 17.5 109t51 86t82 56.5t110.5 20.5t110.5 -20.5t82 -56.5t51 -86t17.5 -109q0 -60 -17.5 -110t-51 -86t-82 -56.5t-110.5 -20.5zM295 83q36 0 63 15.5t44 40t25.5 56t8.5 64.5q0 32 -8.5 63.5t-25.5 56
t-44 40t-63 15.5q-37 0 -63.5 -15.5t-44 -40t-25.5 -56t-8 -63.5q0 -33 8 -64.5t25.5 -56t44 -40t63.5 -15.5z" />
    <glyph glyph-name="pi" unicode="&#x3c0;" horiz-adv-x="621" 
d="M584 14q-21 -11 -41 -16t-44 -5q-35 0 -55 10t-31 28t-14 42t-3 52v290h-200v-415h-107v415h-69v102h561v-102h-77v-275q0 -20 4.5 -37t28.5 -17q18 0 47 12v-84z" />
    <glyph glyph-name="uni03C1.rho" unicode="&#x3c1;" horiz-adv-x="611" 
d="M61 258q0 61 18 111.5t51 86.5t80 55.5t106 19.5q67 0 115.5 -21.5t80 -59t46.5 -87.5t15 -107q0 -53 -13.5 -101.5t-41 -86t-70 -60t-99.5 -22.5q-46 0 -92.5 18.5t-75.5 54.5v-247h-120v446zM452 258q0 34 -8.5 65.5t-26 56t-43 39.5t-58.5 15q-69 0 -104 -47.5
t-35 -128.5q0 -38 9.5 -70t27 -55t43.5 -36.5t59 -13.5q37 0 63 15t42 40t23.5 56t7.5 64z" />
    <glyph glyph-name="uni03C2.sigma1" unicode="&#x3c2;" 
d="M401 339q-7 48 -36.5 71.5t-75.5 23.5q-21 0 -45 -7t-44 -27t-33.5 -55t-13.5 -92q0 -32 9 -62.5t27.5 -54.5t47 -38.5t67.5 -14.5h31q73 0 104 -34t31 -95q0 -29 -2.5 -52t-11.5 -54h-118q9 33 11.5 54t2.5 37q0 24 -10.5 35.5t-40.5 11.5h-21q-59 0 -104.5 21
t-77.5 57.5t-48.5 85t-16.5 103.5q0 58 16 109t47.5 88.5t79.5 59t112 21.5q45 0 85.5 -11.5t71.5 -35.5t51 -60t25 -85h-120z" />
    <glyph glyph-name="uni03C3.sigma" unicode="&#x3c3;" horiz-adv-x="610" 
d="M295 -14q-62 0 -110.5 20.5t-82 56.5t-51 86t-17.5 110q0 59 17.5 106.5t51 81.5t82 52t110.5 18h295v-92h-100q60 -60 60 -166q0 -60 -16.5 -110t-49 -86t-80 -56.5t-109.5 -20.5zM295 83q36 0 63 15.5t45 40t27 56t9 64.5q0 32 -9 61.5t-27 52t-45 36t-63 13.5
q-37 0 -63.5 -13.5t-44 -36t-25.5 -52t-8 -61.5q0 -33 8 -64.5t25.5 -56t44 -40t63.5 -15.5z" />
    <glyph glyph-name="uni03C4.tau" unicode="&#x3c4;" horiz-adv-x="481" 
d="M470 425h-169v-310q0 -23 8.5 -27.5t19.5 -4.5h7q5 0 9 1q1 0 4.5 0.5t5.5 0.5v-85q-13 -5 -36.5 -9.5t-38.5 -4.5q-52 0 -75.5 26.5t-23.5 78.5v334h-175v92h464v-92z" />
    <glyph glyph-name="uni03C5.upsilon" unicode="&#x3c5;" horiz-adv-x="575" 
d="M296 83q31 0 54 15.5t38 41.5t22.5 61t7.5 74q0 48 -6.5 86t-16.5 67.5t-23.5 51.5t-26.5 37h134q8 -14 18.5 -35t19.5 -51t15 -69.5t6 -89.5q0 -65 -17.5 -117.5t-50.5 -90t-79.5 -58t-104.5 -20.5q-64 0 -108 12.5t-71 38t-38.5 64t-11.5 89.5v327h121v-316
q0 -65 27.5 -91.5t90.5 -26.5z" />
    <glyph glyph-name="uni03C6.phi" unicode="&#x3c6;" horiz-adv-x="745" 
d="M310 -14q-60 1 -111 21.5t-87.5 57t-57 86t-20.5 108.5q0 58 20.5 108t57 86t87.5 56.5t111 21.5v133h120v-133q61 -1 111.5 -21.5t87 -56.5t57 -86t20.5 -108q0 -59 -20.5 -108.5t-57 -86t-87 -57t-111.5 -21.5v-174h-120v174zM586 259q0 32 -8.5 63t-27 56t-48.5 40.5
t-72 15.5v-351q42 0 72 15.5t48.5 40.5t27 56.5t8.5 63.5zM310 434q-42 0 -72 -15.5t-48.5 -40.5t-27 -56t-8.5 -63t8.5 -63.5t27 -56.5t48.5 -40.5t72 -15.5v351z" />
    <glyph glyph-name="uni03C7.chi" unicode="&#x3c7;" horiz-adv-x="557" 
d="M202 182l-182 335h139l115 -228l120 228h133l-179 -326l201 -379h-138l-138 271l-134 -271h-135z" />
    <glyph glyph-name="uni03C8.psi" unicode="&#x3c8;" horiz-adv-x="715" 
d="M298 -14q-126 1 -183 51t-57 153v327h120v-316q0 -65 29.5 -91t90.5 -27v581h120v-581q31 1 56.5 17t43.5 42t28 60.5t10 72.5q0 96 -22.5 153.5t-50.5 88.5h134q8 -14 18.5 -35t19.5 -51t15 -69.5t6 -89.5q0 -64 -18.5 -116.5t-52.5 -90t-81.5 -58t-105.5 -21.5v-174
h-120v174z" />
    <glyph glyph-name="uni03C9.omega" unicode="&#x3c9;" horiz-adv-x="796" 
d="M246 83q46 0 67.5 26t21.5 92v204h120v-203q0 -68 22.5 -93.5t66.5 -25.5q24 0 41 15.5t28.5 41.5t17 61t5.5 74q0 96 -22.5 153.5t-50.5 88.5h134q8 -14 18.5 -35t19.5 -51t15 -69.5t6 -89.5q0 -65 -14.5 -117.5t-42.5 -90t-69.5 -58t-95.5 -20.5q-50 0 -84.5 18.5
t-54.5 47.5q-21 -29 -55 -47.5t-84 -18.5q-54 0 -95.5 20.5t-69.5 58t-42.5 90t-14.5 117.5q0 50 6 89.5t15 69.5t19.5 51t18.5 35h134q-14 -16 -27 -37.5t-23.5 -51t-16.5 -67.5t-6 -86q0 -39 5 -74t16.5 -61t29 -41.5t41.5 -15.5z" />
    <glyph glyph-name="uni03CA.iotaDiaeresis" unicode="&#x3ca;" horiz-adv-x="240" 
d="M179 115q0 -23 8.5 -27.5t19.5 -4.5h7q5 0 8 1q2 0 5.5 0.5t5.5 0.5v-85q-13 -5 -36.5 -9.5t-39.5 -4.5q-51 0 -74.5 26.5t-23.5 78.5v426h120v-402zM-26 593v114h120v-114h-120zM264 707v-114h-120v114h120z" />
    <glyph glyph-name="uni03CB.upsilonDiaeresis" unicode="&#x3cb;" horiz-adv-x="575" 
d="M296 83q31 0 54 15.5t38 41.5t22.5 61t7.5 74q0 48 -6.5 86t-16.5 67.5t-23.5 51.5t-26.5 37h134q8 -14 18.5 -35t19.5 -51t15 -69.5t6 -89.5q0 -65 -17.5 -117.5t-50.5 -90t-79.5 -58t-104.5 -20.5q-64 0 -108 12.5t-71 38t-38.5 64t-11.5 89.5v327h121v-316
q0 -65 27.5 -91.5t90.5 -26.5zM140 593v114h120v-114h-120zM430 707v-114h-120v114h120z" />
    <glyph glyph-name="uni03CC.omicronTonos" unicode="&#x3cc;" horiz-adv-x="593" 
d="M295 -14q-62 0 -110.5 20.5t-82 56.5t-51 86t-17.5 110q0 59 17.5 109t51 86t82 56.5t110.5 20.5t110.5 -20.5t82 -56.5t51 -86t17.5 -109q0 -60 -17.5 -110t-51 -86t-82 -56.5t-110.5 -20.5zM295 83q36 0 63 15.5t44 40t25.5 56t8.5 64.5q0 32 -8.5 63.5t-25.5 56
t-44 40t-63 15.5q-37 0 -63.5 -15.5t-44 -40t-25.5 -56t-8 -63.5q0 -33 8 -64.5t25.5 -56t44 -40t63.5 -15.5zM247 729h136l-91 -149h-86z" />
    <glyph glyph-name="uni03CD.upsilonTonos" unicode="&#x3cd;" horiz-adv-x="575" 
d="M296 83q31 0 54 15.5t38 41.5t22.5 61t7.5 74q0 48 -6.5 86t-16.5 67.5t-23.5 51.5t-26.5 37h134q8 -14 18.5 -35t19.5 -51t15 -69.5t6 -89.5q0 -65 -17.5 -117.5t-50.5 -90t-79.5 -58t-104.5 -20.5q-64 0 -108 12.5t-71 38t-38.5 64t-11.5 89.5v327h121v-316
q0 -65 27.5 -91.5t90.5 -26.5zM239 729h136l-92 -149h-86z" />
    <glyph glyph-name="uni03CE.omegaTonos" unicode="&#x3ce;" horiz-adv-x="796" 
d="M246 83q46 0 67.5 26t21.5 92v204h120v-203q0 -68 22.5 -93.5t66.5 -25.5q24 0 41 15.5t28.5 41.5t17 61t5.5 74q0 96 -22.5 153.5t-50.5 88.5h134q8 -14 18.5 -35t19.5 -51t15 -69.5t6 -89.5q0 -65 -14.5 -117.5t-42.5 -90t-69.5 -58t-95.5 -20.5q-50 0 -84.5 18.5
t-54.5 47.5q-21 -29 -55 -47.5t-84 -18.5q-54 0 -95.5 20.5t-69.5 58t-42.5 90t-14.5 117.5q0 50 6 89.5t15 69.5t19.5 51t18.5 35h134q-14 -16 -27 -37.5t-23.5 -51t-16.5 -67.5t-6 -86q0 -39 5 -74t16.5 -61t29 -41.5t41.5 -15.5zM349 729h136l-92 -149h-86z" />
    <glyph glyph-name="uni0400.EGraveCyrillic" unicode="&#x400;" horiz-adv-x="630" 
d="M73 714h516v-115h-384v-177h356v-109h-356v-198h391v-115h-523v714zM348 927l95 -150h-91l-148 150h144z" />
    <glyph glyph-name="uni0401.IoCyrillic" unicode="&#x401;" horiz-adv-x="630" 
d="M73 714h516v-115h-384v-177h356v-109h-356v-198h391v-115h-523v714zM198 790v115h120v-115h-120zM488 905v-115h-120v115h120z" />
    <glyph glyph-name="uni0402.DjeCyrillic" unicode="&#x402;" horiz-adv-x="742" 
d="M413 101q29 -8 46 -8q25 0 47 7t38.5 23.5t25.5 43t9 65.5q0 76 -37 106.5t-101 30.5q-40 0 -72.5 -19.5t-47.5 -44.5v-305h-131v599h-184v115h579v-115h-264v-183q26 26 64.5 38t87.5 12q42 0 84.5 -12t76.5 -39.5t55 -72.5t21 -110q0 -60 -19 -105.5t-52 -77t-78 -47.5
t-98 -16q-29 0 -50 3v112z" />
    <glyph glyph-name="uni0403.GjeCyrillic" unicode="&#x403;" horiz-adv-x="593" 
d="M73 714h495v-115h-363v-599h-132v714zM334 927h145l-148 -150h-91z" />
    <glyph glyph-name="uni0404.ECyrillic" unicode="&#x404;" horiz-adv-x="722" 
d="M551 482q-16 63 -56.5 101.5t-116.5 38.5q-47 0 -82.5 -16t-60.5 -43.5t-40.5 -64t-22.5 -76.5h293v-109h-296q4 -44 19 -84t40.5 -70.5t62.5 -48.5t87 -18q40 0 71 14.5t53 39.5t35 58.5t17 72.5h128q-4 -65 -28 -119t-63.5 -93t-94 -60.5t-118.5 -21.5
q-80 0 -143.5 29.5t-107.5 80.5t-67.5 119t-23.5 145q0 76 23.5 144t67.5 119t107.5 81t143.5 30q61 0 113.5 -17t93 -49t65.5 -78t31 -105h-130z" />
    <glyph glyph-name="uni0405.DzeCyrillic" unicode="&#x405;" horiz-adv-x="648" 
d="M162 243q0 -41 13.5 -69.5t37.5 -46.5t56 -26.5t68 -8.5q40 0 67.5 9t44.5 23.5t25 33t8 37.5q0 37 -17.5 56t-37.5 27q-25 9 -54.5 17t-66.5 17l-90 24q-44 13 -74 33t-49 44t-27.5 51.5t-8.5 54.5q0 55 23 95t60 66t84 38.5t95 12.5q56 0 106 -15t87.5 -44.5
t59.5 -73.5t22 -101h-131q-5 68 -45.5 96.5t-103.5 28.5q-21 0 -43 -4t-40 -14.5t-30 -27.5t-12 -42q0 -35 22.5 -55.5t58.5 -31.5l27 -7l177 -47q35 -11 61 -30t43.5 -44t26.5 -53t9 -57q0 -61 -24.5 -104t-64.5 -70t-91.5 -39.5t-104.5 -12.5q-61 0 -115 15t-94.5 47
t-64.5 81t-25 117h132z" />
    <glyph glyph-name="uni0406.ICyrillic" unicode="&#x406;" horiz-adv-x="278" 
d="M72 714h131v-714h-131v714z" />
    <glyph glyph-name="uni0407.YiCyrillic" unicode="&#x407;" horiz-adv-x="278" 
d="M72 714h131v-714h-131v714zM-7 790v115h121v-115h-121zM284 905v-115h-121v115h121z" />
    <glyph glyph-name="uni0408.JeCyrillic" unicode="&#x408;" horiz-adv-x="537" 
d="M461 231q0 -47 -8 -91.5t-33 -79t-71.5 -56t-123.5 -21.5q-57 0 -97.5 17.5t-67 48.5t-38.5 73t-12 92v41h132v-40q0 -59 19.5 -91t73.5 -32q29 0 47.5 8.5t29 25.5t14.5 41.5t4 56.5v490h131v-483z" />
    <glyph glyph-name="uni0409.LjeCyrillic" unicode="&#x409;" horiz-adv-x="1117" 
d="M33 111q49 0 71.5 41t31.5 105v-1q4 33 7 60.5t5.5 54.5t3.5 57.5t2 70t1.5 92t0.5 123.5h495v-271h184q76 0 124 -22t74.5 -55t36 -71.5t9.5 -71.5q0 -34 -9.5 -73t-36 -72.5t-74.5 -55.5t-124 -22h-316v599h-239q0 -26 -1 -51.5t-1 -51.5q-2 -75 -6 -142t-14 -131
q-6 -32 -18 -71t-35.5 -74t-61.5 -58.5t-96 -23.5q-17 0 -30 1t-29 4v115q16 -3 25 -4t20 -1zM651 109h179q24 0 45 5t37 17.5t25.5 34.5t9.5 56q0 32 -11 53.5t-28.5 34.5t-38.5 18.5t-41 5.5h-177v-225z" />
    <glyph glyph-name="uni040A.NjeCyrillic" unicode="&#x40a;" horiz-adv-x="1114" 
d="M516 318h-313v-318h-132v714h132v-281h313v281h132v-281h184q77 0 124.5 -20.5t74 -51.5t36 -68t9.5 -70q0 -34 -9.5 -73t-36 -72.5t-74 -55.5t-124.5 -22h-316v318zM648 109h179q24 0 45 5t37.5 17.5t26 34.5t9.5 56q0 32 -11.5 51t-29 29t-38.5 13t-41 3h-177v-209z
" />
    <glyph glyph-name="uni040B.TsheCyrillic" unicode="&#x40b;" horiz-adv-x="732" 
d="M190 599h-184v115h579v-115h-264v-172q28 19 66 29t86 10q42 0 78.5 -11t62.5 -33.5t41 -56t15 -77.5v-288h-131v258q0 58 -25 84.5t-73 26.5q-40 0 -73 -16.5t-47 -34.5v-318h-131v599z" />
    <glyph glyph-name="uni040C.KjeCyrillic" unicode="&#x40c;" horiz-adv-x="685" 
d="M73 714h132v-315l308 315h165l-287 -287l151.5 -213.5l151.5 -213.5h-163l-229 336l-22 -22l-26.5 -26.5l-26.5 -26.5l-22 -22v-239h-132v714zM357 927h146l-149 -150h-91z" />
    <glyph glyph-name="uni040D.IGraveCyrillic" unicode="&#x40d;" horiz-adv-x="722" 
d="M70 714h132v-517l147 258.5l146 258.5h152v-714h-132v521l-149 -260.5l-148 -260.5h-148v714zM344 927l95 -150h-91l-148 150h144z" />
    <glyph glyph-name="uni040E.UshortCyrillic" unicode="&#x40e;" horiz-adv-x="648" 
d="M110 111q36 0 67 22t47 59l-234 522h157l160 -387l161 387h149l-237 -524q-45 -99 -110 -146.5t-145 -47.5q-17 0 -30 1t-29 4v115q16 -3 25 -4t19 -1zM222 926q8 -42 36.5 -59t66.5 -17q37 0 63 19t34 57h63q-8 -75 -53 -111.5t-115 -36.5t-111.5 38t-47.5 110h64z" />
    <glyph glyph-name="uni040F.DzheCyrillic" unicode="&#x40f;" horiz-adv-x="722" 
d="M70 714h132v-599h313v599h132v-714h-223v-175h-131v175h-223v714z" />
    <glyph glyph-name="uni0410.ACyrillic" unicode="&#x410;" horiz-adv-x="667" 
d="M263 714h137l275 -714h-141l-66 187h-276l-67 -187h-136zM228 289h204l-51.5 143.5l-51.5 143.5z" />
    <glyph glyph-name="uni0411.BeCyrillic" unicode="&#x411;" horiz-adv-x="667" 
d="M73 714h496v-115h-364v-156h184q76 0 124 -22t74.5 -55t36 -71.5t9.5 -71.5q0 -34 -9.5 -73t-36 -72.5t-74.5 -55.5t-124 -22h-316v714zM205 109h179q24 0 45 5t37 17.5t25.5 34.5t9.5 56q0 32 -11 53.5t-28.5 34.5t-38.5 18.5t-41 5.5h-177v-225z" />
    <glyph glyph-name="uni0412.VeCyrillic" unicode="&#x412;" horiz-adv-x="704" 
d="M205 418h198q43 0 71 24.5t28 69.5q0 51 -25.5 72t-73.5 21h-198v-187zM73 714h347q97 0 155.5 -44t58.5 -135q0 -51 -24 -89.5t-68 -61.5q64 -17 94 -64t30 -119q0 -42 -15 -79t-47.5 -64t-82.5 -42.5t-119 -15.5h-329v714zM205 109h214q55 0 85 28t30 80q0 51 -30 77.5
t-85 26.5h-214v-212z" />
    <glyph glyph-name="uni0413.GeCyrillic" unicode="&#x413;" horiz-adv-x="593" 
d="M73 714h495v-115h-363v-599h-132v714z" />
    <glyph glyph-name="uni0414.DeCyrillic" unicode="&#x414;" horiz-adv-x="808" 
d="M664 0h-524v-175h-132v290h82l8.5 3.5t5.5 2.5q28 16 41.5 52t20.5 84v-1q4 33 7 60.5t5.5 54.5t3.5 57.5t2 70t1.5 92t0.5 123.5h495v-599h114v-290h-131v175zM549 115v484h-239q0 -26 -1 -51.5t-1 -51.5q-2 -75 -6 -142t-14 -131q-2 -15 -6.5 -32.5l-9.5 -37.5
q-3 -10 -7 -20l-7 -18h291z" />
    <glyph glyph-name="uni0415.IeCyrillic" unicode="&#x415;" horiz-adv-x="630" 
d="M73 714h516v-115h-384v-177h356v-109h-356v-198h391v-115h-523v714z" />
    <glyph glyph-name="uni0416.ZheCyrillic" unicode="&#x416;" horiz-adv-x="1093" 
d="M478 239l-49 49l-48 48l-115 -168l-115 -168h-163l304 427l-287 287h164l309 -315v315h131v-315l309 315h164l-287 -287l152 -213.5l152 -213.5h-163l-230 336l-22 -22l-26.5 -26.5l-26.5 -26.5l-22 -22v-239h-131v239z" />
    <glyph glyph-name="uni0417.ZeCyrillic" unicode="&#x417;" horiz-adv-x="591" 
d="M242 425q78 -2 115 19.5t37 84.5q0 45 -27 69t-75 24q-29 0 -50 -11t-34.5 -30t-19.5 -44.5t-5 -55.5h-130q2 54 18.5 100t47 79t74.5 52t101 19q48 0 90 -12t73.5 -36t50 -60.5t18.5 -85.5q0 -53 -23 -92.5t-71 -60.5q58 -15 90 -63.5t32 -115.5q0 -52 -19.5 -93
t-54 -69.5t-82 -44t-103.5 -15.5q-66 0 -114 18t-79.5 51.5t-47 81t-16.5 105.5h130q-2 -69 29.5 -108t97.5 -39q63 0 95.5 29.5t32.5 89.5q0 37 -9.5 59.5t-27.5 34.5t-45.5 16t-63.5 4h-35v100z" />
    <glyph glyph-name="uni0418.IiCyrillic" unicode="&#x418;" horiz-adv-x="722" 
d="M70 714h132v-517l147 258.5l146 258.5h152v-714h-132v521l-149 -260.5l-148 -260.5h-148v714z" />
    <glyph glyph-name="uni0419.IiShortCyrillic" unicode="&#x419;" horiz-adv-x="722" 
d="M70 714h132v-517l147 258.5l146 258.5h152v-714h-132v521l-149 -260.5l-148 -260.5h-148v714zM259 926q8 -42 36.5 -59t66.5 -17q36 0 62.5 19t34.5 57h63q-8 -75 -53 -111.5t-115 -36.5t-111.5 38t-47.5 110h64z" />
    <glyph glyph-name="uni041A.KaCyrillic" unicode="&#x41a;" horiz-adv-x="685" 
d="M73 714h132v-315l308 315h165l-287 -287l151.5 -213.5l151.5 -213.5h-163l-229 336l-22 -22l-26.5 -26.5l-26.5 -26.5l-22 -22v-239h-132v714z" />
    <glyph glyph-name="uni041B.ElCyrillic" unicode="&#x41b;" horiz-adv-x="736" 
d="M42 111q25 0 42.5 11t29.5 30.5t19.5 46t12.5 58.5v-1q4 33 7 60.5t5.5 54.5t3.5 57.5t2 70t1.5 92t0.5 123.5h494v-714h-131v599h-239q0 -26 -1 -51.5t-1 -51.5q-2 -75 -6 -142t-14 -131q-6 -32 -18 -71t-36 -74t-62 -58.5t-95 -23.5q-18 0 -30.5 1t-28.5 4v115
q16 -3 25 -4t19 -1z" />
    <glyph glyph-name="uni041C.EmCyrillic" unicode="&#x41c;" horiz-adv-x="889" 
d="M72 714h181l193 -545l94 272.5l93 272.5h179v-714h-125l-2 526l-189 -526h-108l-191 526v-526h-125v714z" />
    <glyph glyph-name="uni041D.EnCyrillic" unicode="&#x41d;" horiz-adv-x="722" 
d="M70 714h132v-281h313v281h132v-714h-132v318h-313v-318h-132v714z" />
    <glyph glyph-name="uni041E.OCyrillic" unicode="&#x41e;" horiz-adv-x="760" 
d="M378 622q-56 0 -95.5 -22.5t-65.5 -59.5t-38 -85t-12 -98t12 -98t38 -85t65.5 -59.5t95.5 -22.5q55 0 95 22.5t66 59.5t38 85t12 98t-12 98t-38 85t-66 59.5t-95 22.5zM378 731q80 0 143.5 -30t107.5 -81t67.5 -119t23.5 -144q0 -77 -23.5 -145t-67.5 -119t-107.5 -80.5
t-143.5 -29.5t-143.5 29.5t-107.5 80.5t-67.5 119t-23.5 145q0 76 23.5 144t67.5 119t107.5 81t143.5 30z" />
    <glyph glyph-name="uni041F.PeCyrillic" unicode="&#x41f;" horiz-adv-x="722" 
d="M70 714h577v-714h-132v599h-313v-599h-132v714z" />
    <glyph glyph-name="uni0420.ErCyrillic" unicode="&#x420;" horiz-adv-x="667" 
d="M73 714h316q76 0 124 -22t74.5 -55.5t36 -72.5t9.5 -73q0 -33 -9.5 -71.5t-36 -71.5t-74.5 -55t-124 -22h-184v-271h-132v714zM205 380h177q20 0 41 5.5t38.5 18.5t28.5 34.5t11 53.5q0 34 -9.5 55.5t-25.5 34.5t-37 18t-45 5h-179v-225z" />
    <glyph glyph-name="uni0421.EsCyrillic" unicode="&#x421;" horiz-adv-x="722" 
d="M551 482q-16 62 -56.5 101t-116.5 39q-56 0 -96 -22.5t-65.5 -59.5t-37.5 -85t-12 -98t12 -98t37.5 -85t65.5 -59.5t96 -22.5q40 0 71.5 14.5t53 39.5t34.5 58.5t17 72.5h128q-4 -65 -28 -119t-63.5 -93t-93.5 -60.5t-119 -21.5q-80 0 -143.5 29.5t-107.5 80.5t-67.5 119
t-23.5 145q0 76 23.5 144t67.5 119t107.5 81t143.5 30q61 0 113.5 -17t93 -49t65.5 -78t31 -105h-130z" />
    <glyph glyph-name="uni0422.TeCyrillic" unicode="&#x422;" horiz-adv-x="593" 
d="M6 714h579v-115h-224v-599h-132v599h-223v115z" />
    <glyph glyph-name="uni0423.UCyrillic" unicode="&#x423;" horiz-adv-x="610" 
d="M110 111q36 0 67 22t47 59l-234 522h157l160 -387l161 387h149l-237 -524q-45 -99 -110 -146.5t-145 -47.5q-17 0 -30 1t-29 4v115q16 -3 25 -4t19 -1z" />
    <glyph glyph-name="uni0424.EfCyrillic" unicode="&#x424;" horiz-adv-x="746" 
d="M305 81q-68 7 -120 31t-86.5 62t-52 87.5t-17.5 106.5q0 58 16.5 107.5t50.5 87t86 61.5t123 31v89h131v-89q70 -7 122.5 -31t86.5 -61.5t51 -87t17 -107.5q0 -57 -17.5 -106.5t-52.5 -87.5t-87 -62t-120 -31v-81h-131v81zM586 368q0 34 -8 64t-26 53.5t-46.5 40
t-69.5 22.5v-359q41 6 69.5 22.5t46.5 40t26 53t8 63.5zM156 368q0 -68 33.5 -116.5t115.5 -62.5v358q-82 -14 -115.5 -62.5t-33.5 -116.5z" />
    <glyph glyph-name="uni0425.KhaCyrillic" unicode="&#x425;" horiz-adv-x="648" 
d="M9 714h156l158 -246l83 123l82 123h148l-237 -344l254 -370h-160l-174 267l-88 -133.5l-89 -133.5h-150l252 370z" />
    <glyph glyph-name="uni0426.TseCyrillic" unicode="&#x426;" horiz-adv-x="754" 
d="M70 714h132v-599h294v599h131v-599h115v-290h-132v175h-540v714z" />
    <glyph glyph-name="uni0427.CheCyrillic" unicode="&#x427;" horiz-adv-x="672" 
d="M597 0h-131v307q-29 -20 -75.5 -29.5t-95.5 -9.5q-53 0 -96.5 11t-75 33.5t-49 55.5t-17.5 78v268h132v-238q0 -58 34 -84.5t103 -26.5q20 0 41.5 5t40.5 12.5t34 16.5t24 18v297h131v-714z" />
    <glyph glyph-name="uni0428.ShaCyrillic" unicode="&#x428;" horiz-adv-x="1051" 
d="M588 115h255v599h131v-714h-903v714h132v-599h254v599h131v-599z" />
    <glyph glyph-name="uni0429.ShchaCyrillic" unicode="&#x429;" horiz-adv-x="1104" 
d="M589 115h254v599h131v-599h115v-290h-131v175h-887v714h132v-599h254v599h132v-599z" />
    <glyph glyph-name="uni042A.HardSignCyrillic" unicode="&#x42a;" horiz-adv-x="746" 
d="M151 599h-145v115h277v-271h184q76 0 124 -22t74.5 -55t36 -71.5t9.5 -71.5q0 -34 -9.5 -73t-36 -72.5t-74.5 -55.5t-124 -22h-316v599zM283 109h179q24 0 45 5t37.5 17.5t26 34.5t9.5 56q0 32 -11.5 53.5t-29 34.5t-38.5 18.5t-41 5.5h-177v-225z" />
    <glyph glyph-name="uni042B.YeriCyrillic" unicode="&#x42b;" horiz-adv-x="945" 
d="M205 109h179q24 0 45.5 5t37.5 17.5t25.5 34.5t9.5 56q0 32 -11 53.5t-28.5 34.5t-39 18.5t-41.5 5.5h-177v-225zM74 714h131v-271h184q77 0 125 -22t74.5 -55t36 -71.5t9.5 -71.5q0 -34 -9.5 -73t-36 -72.5t-74.5 -55.5t-125 -22h-315v714zM733 714h132v-714h-132v714z
" />
    <glyph glyph-name="uni042C.SoftSignCyrillic" unicode="&#x42c;" horiz-adv-x="667" 
d="M205 109h179q24 0 45 5t37 17.5t25.5 34.5t9.5 56q0 32 -11 53.5t-28.5 34.5t-38.5 18.5t-41 5.5h-177v-225zM73 714h132v-271h184q76 0 124 -22t74.5 -55t36 -71.5t9.5 -71.5q0 -34 -9.5 -73t-36 -72.5t-74.5 -55.5t-124 -22h-316v714z" />
    <glyph glyph-name="uni042D.ECyrillic" unicode="&#x42d;" horiz-adv-x="722" 
d="M37 482q6 59 31 105t65.5 78t93 49t113.5 17q80 0 143.5 -30t107.5 -81t67.5 -119t23.5 -144q0 -77 -23.5 -145t-67.5 -119t-107.5 -80.5t-143.5 -29.5q-65 0 -119 21.5t-94 60.5t-63.5 93t-27.5 119h128q4 -39 17 -72.5t35 -58.5t53 -39.5t71 -14.5q50 0 87 18
t62.5 48.5t40 70.5t19.5 84h-296v109h293q-7 40 -22.5 76.5t-40.5 64t-60.5 43.5t-82.5 16q-77 0 -117 -39t-56 -101h-130z" />
    <glyph glyph-name="uni042E.IuCyrillic" unicode="&#x42e;" horiz-adv-x="1038" 
d="M654 731q79 0 142.5 -30t108 -81t68 -119t23.5 -144q0 -77 -23.5 -145t-68 -119t-108 -80.5t-142.5 -29.5q-74 0 -134.5 26t-104 70.5t-70 104.5t-32.5 129h-107v-313h-132v714h132v-292h109q9 64 36.5 120.5t71 98.5t102 66t129.5 24zM654 622q-56 0 -96 -22.5
t-65.5 -59.5t-37.5 -85t-12 -98t12 -98t37.5 -85t65.5 -59.5t96 -22.5q55 0 95 22.5t65.5 59.5t37.5 85t12 98t-12 98t-37.5 85t-65.5 59.5t-95 22.5z" />
    <glyph glyph-name="uni042F.IaCyrillic" unicode="&#x42f;" horiz-adv-x="667" 
d="M590 0h-132v271h-128l-186 -271h-157l200 280q-49 12 -79.5 36t-48 53t-23.5 61t-6 61q0 34 9.5 73t36 72.5t74.5 55.5t125 22h315v-714zM458 605h-179q-24 0 -45 -5t-37 -18t-25.5 -34.5t-9.5 -55.5q0 -32 11 -53.5t28.5 -34.5t38.5 -18.5t41 -5.5h177v225z" />
    <glyph glyph-name="uni0430.aCyrillic" unicode="&#x430;" 
d="M492 117q0 -18 4.5 -26t17.5 -8h12q3 1 7 1h6.5t6.5 1v-85q-14 -5 -37 -9.5t-38 -4.5q-34 0 -57 13t-32 45q-34 -31 -81.5 -44.5t-92.5 -13.5q-35 0 -67.5 9.5t-57 28.5t-39 47.5t-14.5 67.5q0 49 17.5 79t46 47.5t64.5 24.5t72 11h-1q14 3 27.5 4.5t26.5 3.5
q20 3 37.5 6t30 9t20 16.5t7.5 28.5q0 21 -10 34t-25 19.5t-32.5 9t-33.5 2.5q-46 0 -75 -19t-33 -61h-121q3 51 24.5 85t54 54.5t73.5 29t84 8.5q38 0 75 -8.5t66.5 -26.5t48 -47t18.5 -70v-262zM371 252q-19 -10 -43 -14.5t-47 -7.5q-10 -2 -21.5 -2.5t-20.5 -2.5
q-18 -3 -34 -8t-28 -14.5t-19.5 -23.5t-7.5 -35q0 -18 10.5 -30t25.5 -18.5t32 -9.5t31 -3q18 0 39.5 5t39.5 15.5t30.5 28t12.5 43.5v77z" />
    <glyph glyph-name="uni0431.beCyrillic" unicode="&#x431;" horiz-adv-x="593" 
d="M295 -14q-127 0 -194 82t-67 241q0 36 3.5 73.5t11 73.5t20.5 69t31 60q36 51 89.5 78t129.5 31q31 1 50.5 2.5t30.5 5.5t16 10t7 16h112q-2 -40 -12.5 -66t-32 -42.5t-54 -25t-78.5 -11.5q-104 -9 -154 -46.5t-62 -97.5q29 38 74.5 59t109.5 21q50 0 92 -18.5t73 -52.5
t48 -82t17 -107q0 -60 -17.5 -110t-51 -86t-82 -56.5t-110.5 -20.5zM295 83q36 0 63 15.5t44 40t25.5 56t8.5 64.5q0 32 -8.5 61.5t-25.5 52t-44 36t-63 13.5q-37 0 -63.5 -13.5t-44 -36t-25.5 -52t-8 -61.5q0 -33 8 -64.5t25.5 -56t44 -40t63.5 -15.5z" />
    <glyph glyph-name="uni0432.veCyrillic" unicode="&#x432;" horiz-adv-x="548" 
d="M180 309h117q31 0 51 15.5t20 42.5q0 33 -18.5 45.5t-52.5 12.5h-117v-116zM60 517h272q71 0 113.5 -31.5t42.5 -98.5q0 -36 -17 -64t-47 -45q44 -12 65 -46t21 -86q0 -31 -11 -57.5t-34.5 -46t-59.5 -31t-86 -11.5h-259v517zM180 92h129q40 0 60.5 18t20.5 51
q0 66 -81 66h-129v-135z" />
    <glyph glyph-name="uni0433.geCyrillic" unicode="&#x433;" horiz-adv-x="423" 
d="M60 517h353v-92h-233v-425h-120v517z" />
    <glyph glyph-name="uni0434.deCyrillic" unicode="&#x434;" horiz-adv-x="691" 
d="M120 -155h-111v247h67q6 2 13.5 5.5t12.5 7.5q22 16 32 50q6 18 9 37t5.5 40t3.5 46t2 57t1.5 80t0.5 102h431v-425h90v-247h-111v155h-446v-155zM466 425h-189q0 -63 -1 -111t-3 -85.5t-6 -65.5t-11 -49l-7 -22h217v333z" />
    <glyph glyph-name="uni0435.ieCyrillic" unicode="&#x435;" 
d="M407 307q-2 25 -11.5 48.5t-25 40.5t-37.5 27.5t-50 10.5q-57 0 -91.5 -36.5t-38.5 -90.5h254zM153 226q1 -29 9 -54.5t24.5 -45.5t41.5 -31.5t58 -11.5q48 0 77 21t44 63h114q-9 -44 -31 -77.5t-53.5 -56.5t-70 -35t-80.5 -12q-62 0 -109 20t-79 56t-48.5 86t-16.5 110
q0 55 17.5 104.5t50 87t78.5 59.5t104 22q56 0 101.5 -21.5t77.5 -58t49.5 -84.5t17.5 -100v-21.5t-2 -19.5h-374z" />
    <glyph glyph-name="uni0436.zheCyrillic" unicode="&#x436;" horiz-adv-x="834" 
d="M354 184l-63 61l-77 -122.5l-77 -122.5h-146l216 325l-200 192h150l197 -200v200h120v-200l197 200h150l-200 -192l215 -325h-145l-154 245l-63 -61v-184h-120v184z" />
    <glyph glyph-name="uni0437.zeCyrillic" unicode="&#x437;" horiz-adv-x="540" 
d="M48 371q15 85 71 122.5t147 37.5q44 0 84 -10t70 -29.5t48 -48.5t18 -66q0 -40 -18 -67t-51 -42q38 -12 62.5 -43t24.5 -79q0 -44 -19.5 -74.5t-51 -49.5t-71 -27.5t-79.5 -8.5q-110 0 -176 42t-82 140h121q4 -26 15 -42.5t27 -26.5t35.5 -14t41.5 -4q53 0 85 18t32 59
q0 33 -21 49t-67 16h-86v95h87q35 0 54.5 11.5t19.5 43.5q0 35 -29 48.5t-76 13.5q-48 0 -71.5 -13.5t-29.5 -50.5h-115z" />
    <glyph glyph-name="uni0438.iiCyrillic" unicode="&#x438;" horiz-adv-x="611" 
d="M60 517h121l2 -341l217 341h145v-517h-120l-2 344l-223 -344h-140v517z" />
    <glyph glyph-name="uni0439.iiShortCyrillic" unicode="&#x439;" horiz-adv-x="611" 
d="M60 517h121l2 -341l217 341h145v-517h-120l-2 344l-223 -344h-140v517zM204 728q8 -42 36.5 -58.5t66.5 -16.5q36 0 62 18.5t34 56.5h63q-8 -75 -53 -111t-114 -36q-70 0 -111.5 37.5t-47.5 109.5h64z" />
    </font>
</defs>
</svg>
